<svg width="36" height="36" viewBox="0 0 36 36" fill="none" xmlns="http://www.w3.org/2000/svg">
<path d="M18 5.39999L19.4108 5.47922L20.8038 5.7159L22.1615 6.10706L23.467 6.64779L24.7036 7.33127L25.856 8.14892L26.9096 9.09045L27.8511 10.144L28.6687 11.2964L29.3522 12.5331L29.893 13.8385L30.2841 15.1962L30.5208 16.5892L30.6 18L30.5208 19.4107L30.2841 20.8038L29.893 22.1615L29.3522 23.4669L28.6687 24.7036L27.8511 25.856L26.9096 26.9095L25.856 27.8511L24.7036 28.6687L23.467 29.3522L22.1615 29.8929L20.8038 30.2841L19.4108 30.5208L18 30.6L16.5893 30.5208L15.1963 30.2841L13.8385 29.8929L12.5331 29.3522L11.2964 28.6687L10.1441 27.8511L9.09048 26.9095L8.14895 25.856L7.3313 24.7036L6.64782 23.4669L6.10709 22.1615L5.71593 20.8038L5.47925 19.4107L5.40002 18L5.47925 16.5892L5.71593 15.1962L6.10709 13.8385L6.64782 12.5331L7.3313 11.2964L8.14895 10.144L9.09048 9.09045L10.1441 8.14892L11.2964 7.33127L12.5331 6.64779L13.8385 6.10706L15.1963 5.7159L16.5893 5.47922L18 5.39999Z" />
<path d="M18 5.39999L18.0281 4.90078C18.0094 4.89973 17.9907 4.89973 17.972 4.90078L18 5.39999ZM19.4108 5.47922L19.4945 4.98628C19.4761 4.98315 19.4575 4.98106 19.4388 4.98001L19.4108 5.47922ZM20.8038 5.7159L20.9422 5.23544C20.9242 5.23027 20.906 5.2261 20.8875 5.22297L20.8038 5.7159ZM22.1615 6.10706L22.3529 5.64512C22.3356 5.63797 22.3179 5.63178 22.3 5.62661L22.1615 6.10706ZM23.467 6.64779L23.7088 6.21017C23.6924 6.20113 23.6756 6.193 23.6583 6.18585L23.467 6.64779ZM24.7036 7.33127L24.993 6.92349C24.9777 6.91266 24.9619 6.90271 24.9455 6.89366L24.7036 7.33127ZM25.856 8.14892L26.1892 7.7761C26.1752 7.76363 26.1606 7.75196 26.1453 7.74114L25.856 8.14892ZM26.9096 9.09045L27.2824 8.75727C27.2699 8.74333 27.2567 8.73009 27.2427 8.71763L26.9096 9.09045ZM27.8511 10.144L28.2589 9.85469C28.2481 9.83943 28.2364 9.8248 28.2239 9.81085L27.8511 10.144ZM28.6687 11.2964L29.1064 11.0545C29.0973 11.0382 29.0874 11.0223 29.0765 11.0071L28.6687 11.2964ZM29.3522 12.5331L29.8142 12.3417C29.807 12.3244 29.7989 12.3076 29.7898 12.2912L29.3522 12.5331ZM29.893 13.8385L30.3734 13.7001C30.3682 13.6821 30.362 13.6644 30.3549 13.6471L29.893 13.8385ZM30.2841 15.1962L30.7771 15.1125C30.7739 15.094 30.7698 15.0758 30.7646 15.0578L30.2841 15.1962ZM30.5208 16.5892L31.02 16.5612C31.019 16.5425 31.0169 16.5239 31.0137 16.5055L30.5208 16.5892ZM30.6 18L31.0992 18.028C31.1003 18.0094 31.1003 17.9906 31.0992 17.972L30.6 18ZM30.5208 19.4107L31.0137 19.4945C31.0169 19.4761 31.019 19.4575 31.02 19.4388L30.5208 19.4107ZM30.2841 20.8038L30.7646 20.9422C30.7698 20.9242 30.7739 20.906 30.7771 20.8875L30.2841 20.8038ZM29.893 22.1615L30.3549 22.3529C30.362 22.3356 30.3682 22.3179 30.3734 22.2999L29.893 22.1615ZM29.3522 23.4669L29.7898 23.7088C29.7989 23.6924 29.807 23.6756 29.8142 23.6583L29.3522 23.4669ZM28.6687 24.7036L29.0765 24.9929C29.0874 24.9777 29.0973 24.9618 29.1064 24.9455L28.6687 24.7036ZM27.8511 25.856L28.2239 26.1891C28.2364 26.1752 28.2481 26.1606 28.2589 26.1453L27.8511 25.856ZM26.9096 26.9095L27.2427 27.2824C27.2567 27.2699 27.2699 27.2567 27.2824 27.2427L26.9096 26.9095ZM25.856 27.8511L26.1453 28.2589C26.1606 28.248 26.1752 28.2364 26.1892 28.2239L25.856 27.8511ZM24.7036 28.6687L24.9455 29.1063C24.9619 29.0973 24.9777 29.0873 24.993 29.0765L24.7036 28.6687ZM23.467 29.3522L23.6583 29.8141C23.6756 29.807 23.6924 29.7989 23.7088 29.7898L23.467 29.3522ZM22.1615 29.8929L22.3 30.3734C22.3179 30.3682 22.3356 30.362 22.3529 30.3549L22.1615 29.8929ZM20.8038 30.2841L20.8875 30.777C20.906 30.7739 20.9242 30.7697 20.9422 30.7645L20.8038 30.2841ZM19.4108 30.5208L19.4388 31.02C19.4575 31.0189 19.4761 31.0168 19.4945 31.0137L19.4108 30.5208ZM18 30.6L17.972 31.0992C17.9907 31.1003 18.0094 31.1003 18.0281 31.0992L18 30.6ZM16.5893 30.5208L16.5055 31.0137C16.524 31.0168 16.5426 31.0189 16.5612 31.02L16.5893 30.5208ZM15.1963 30.2841L15.0578 30.7645C15.0758 30.7697 15.0941 30.7739 15.1125 30.777L15.1963 30.2841ZM13.8385 29.8929L13.6472 30.3549C13.6644 30.362 13.6821 30.3682 13.7001 30.3734L13.8385 29.8929ZM12.5331 29.3522L12.2912 29.7898C12.3076 29.7989 12.3245 29.807 12.3417 29.8141L12.5331 29.3522ZM11.2964 28.6687L11.0071 29.0765C11.0223 29.0873 11.0382 29.0973 11.0546 29.1063L11.2964 28.6687ZM10.1441 27.8511L9.81088 28.2239C9.82483 28.2364 9.83946 28.248 9.85472 28.2589L10.1441 27.8511ZM9.09048 26.9095L8.71766 27.2427C8.73012 27.2567 8.74336 27.2699 8.75731 27.2824L9.09048 26.9095ZM8.14895 25.856L7.74117 26.1453C7.75199 26.1606 7.76366 26.1752 7.77613 26.1891L8.14895 25.856ZM7.3313 24.7036L6.89369 24.9455C6.90274 24.9618 6.9127 24.9777 6.92352 24.9929L7.3313 24.7036ZM6.64782 23.4669L6.18588 23.6583C6.19303 23.6756 6.20116 23.6924 6.2102 23.7088L6.64782 23.4669ZM6.10709 22.1615L5.62664 22.2999C5.63181 22.3179 5.638 22.3356 5.64515 22.3529L6.10709 22.1615ZM5.71593 20.8038L5.223 20.8875C5.22613 20.906 5.2303 20.9242 5.23547 20.9422L5.71593 20.8038ZM5.47925 19.4107L4.98004 19.4388C4.98109 19.4575 4.98318 19.4761 4.98632 19.4945L5.47925 19.4107ZM5.40002 18L4.90081 17.972C4.89976 17.9906 4.89976 18.0094 4.90081 18.028L5.40002 18ZM5.47925 16.5892L4.98632 16.5055C4.98318 16.5239 4.98109 16.5425 4.98004 16.5612L5.47925 16.5892ZM5.71593 15.1962L5.23547 15.0578C5.2303 15.0758 5.22613 15.094 5.223 15.1125L5.71593 15.1962ZM6.10709 13.8385L5.64515 13.6471C5.638 13.6644 5.63181 13.6821 5.62664 13.7001L6.10709 13.8385ZM6.64782 12.5331L6.21021 12.2912C6.20116 12.3076 6.19303 12.3244 6.18588 12.3417L6.64782 12.5331ZM7.3313 11.2964L6.92352 11.0071C6.9127 11.0223 6.90274 11.0382 6.89369 11.0545L7.3313 11.2964ZM8.14895 10.144L7.77613 9.81085C7.76366 9.8248 7.75199 9.83943 7.74117 9.85469L8.14895 10.144ZM9.09048 9.09045L8.75731 8.71763C8.74336 8.73009 8.73012 8.74333 8.71766 8.75728L9.09048 9.09045ZM10.1441 8.14892L9.85472 7.74114C9.83946 7.75196 9.82483 7.76363 9.81088 7.7761L10.1441 8.14892ZM11.2964 7.33127L11.0546 6.89366C11.0382 6.90271 11.0223 6.91266 11.0071 6.92349L11.2964 7.33127ZM12.5331 6.64779L12.3417 6.18585C12.3245 6.193 12.3076 6.20113 12.2912 6.21017L12.5331 6.64779ZM13.8385 6.10706L13.7001 5.62661C13.6821 5.63178 13.6644 5.63797 13.6472 5.64512L13.8385 6.10706ZM15.1963 5.7159L15.1125 5.22297C15.0941 5.2261 15.0758 5.23027 15.0578 5.23544L15.1963 5.7159ZM16.5893 5.47922L16.5612 4.98001C16.5426 4.98106 16.524 4.98315 16.5055 4.98628L16.5893 5.47922ZM17.972 5.89921L19.3827 5.97843L19.4388 4.98001L18.0281 4.90078L17.972 5.89921ZM19.327 5.97216L20.72 6.20884L20.8875 5.22297L19.4945 4.98628L19.327 5.97216ZM20.6654 6.19636L22.0231 6.58752L22.3 5.62661L20.9422 5.23544L20.6654 6.19636ZM21.9702 6.569L23.2756 7.10973L23.6583 6.18585L22.3529 5.64512L21.9702 6.569ZM23.2251 7.0854L24.4618 7.76888L24.9455 6.89366L23.7088 6.21017L23.2251 7.0854ZM24.4143 7.73905L25.5667 8.5567L26.1453 7.74114L24.993 6.92349L24.4143 7.73905ZM25.5228 8.52174L26.5764 9.46327L27.2427 8.71763L26.1892 7.7761L25.5228 8.52174ZM26.5367 9.42362L27.4783 10.4772L28.2239 9.81085L27.2824 8.75727L26.5367 9.42362ZM27.4433 10.4334L28.261 11.5857L29.0765 11.0071L28.2589 9.85469L27.4433 10.4334ZM28.2311 11.5382L28.9146 12.7749L29.7898 12.2912L29.1064 11.0545L28.2311 11.5382ZM28.8903 12.7244L29.431 14.0298L30.3549 13.6471L29.8142 12.3417L28.8903 12.7244ZM29.4125 13.9769L29.8037 15.3346L30.7646 15.0578L30.3734 13.7001L29.4125 13.9769ZM29.7912 15.28L30.0279 16.673L31.0137 16.5055L30.7771 15.1125L29.7912 15.28ZM30.0216 16.6173L30.1008 18.028L31.0992 17.972L31.02 16.5612L30.0216 16.6173ZM30.1008 17.972L30.0216 19.3827L31.02 19.4388L31.0992 18.028L30.1008 17.972ZM30.0279 19.327L29.7912 20.72L30.7771 20.8875L31.0137 19.4945L30.0279 19.327ZM29.8037 20.6653L29.4125 22.0231L30.3734 22.2999L30.7646 20.9422L29.8037 20.6653ZM29.431 21.9702L28.8903 23.2756L29.8142 23.6583L30.3549 22.3529L29.431 21.9702ZM28.9146 23.2251L28.2311 24.4617L29.1064 24.9455L29.7898 23.7088L28.9146 23.2251ZM28.261 24.4143L27.4433 25.5666L28.2589 26.1453L29.0765 24.9929L28.261 24.4143ZM27.4783 25.5228L26.5367 26.5764L27.2824 27.2427L28.2239 26.1891L27.4783 25.5228ZM26.5764 26.5367L25.5228 27.4782L26.1892 28.2239L27.2427 27.2824L26.5764 26.5367ZM25.5667 27.4433L24.4143 28.2609L24.993 29.0765L26.1453 28.2589L25.5667 27.4433ZM24.4618 28.2311L23.2251 28.9146L23.7088 29.7898L24.9455 29.1063L24.4618 28.2311ZM23.2756 28.8903L21.9702 29.431L22.3529 30.3549L23.6583 29.8141L23.2756 28.8903ZM22.0231 29.4125L20.6654 29.8036L20.9422 30.7645L22.3 30.3734L22.0231 29.4125ZM20.72 29.7911L19.327 30.0278L19.4945 31.0137L20.8875 30.777L20.72 29.7911ZM19.3827 30.0216L17.972 30.1008L18.0281 31.0992L19.4388 31.02L19.3827 30.0216ZM18.0281 30.1008L16.6173 30.0216L16.5612 31.02L17.972 31.0992L18.0281 30.1008ZM16.673 30.0278L15.28 29.7911L15.1125 30.777L16.5055 31.0137L16.673 30.0278ZM15.3347 29.8036L13.9769 29.4125L13.7001 30.3734L15.0578 30.7645L15.3347 29.8036ZM14.0298 29.431L12.7244 28.8903L12.3417 29.8141L13.6472 30.3549L14.0298 29.431ZM12.7749 28.9146L11.5383 28.2311L11.0546 29.1063L12.2912 29.7898L12.7749 28.9146ZM11.5858 28.2609L10.4334 27.4433L9.85472 28.2589L11.0071 29.0765L11.5858 28.2609ZM10.4772 27.4782L9.42365 26.5367L8.75731 27.2824L9.81088 28.2239L10.4772 27.4782ZM9.4633 26.5764L8.52177 25.5228L7.77613 26.1891L8.71766 27.2427L9.4633 26.5764ZM8.55673 25.5666L7.73908 24.4143L6.92352 24.9929L7.74117 26.1453L8.55673 25.5666ZM7.76891 24.4617L7.08543 23.2251L6.2102 23.7088L6.89369 24.9455L7.76891 24.4617ZM7.10976 23.2756L6.56903 21.9702L5.64515 22.3529L6.18588 23.6583L7.10976 23.2756ZM6.58755 22.0231L6.19639 20.6653L5.23547 20.9422L5.62664 22.2999L6.58755 22.0231ZM6.20887 20.72L5.97219 19.327L4.98632 19.4945L5.223 20.8875L6.20887 20.72ZM5.97846 19.3827L5.89924 17.972L4.90081 18.028L4.98004 19.4388L5.97846 19.3827ZM5.89924 18.028L5.97846 16.6173L4.98004 16.5612L4.90081 17.972L5.89924 18.028ZM5.97219 16.673L6.20887 15.28L5.223 15.1125L4.98632 16.5055L5.97219 16.673ZM6.19639 15.3346L6.58755 13.9769L5.62664 13.7001L5.23547 15.0578L6.19639 15.3346ZM6.56903 14.0298L7.10976 12.7244L6.18588 12.3417L5.64515 13.6471L6.56903 14.0298ZM7.08543 12.7749L7.76891 11.5382L6.89369 11.0545L6.21021 12.2912L7.08543 12.7749ZM7.73908 11.5857L8.55673 10.4334L7.74117 9.85469L6.92352 11.0071L7.73908 11.5857ZM8.52177 10.4772L9.4633 9.42362L8.71766 8.75728L7.77613 9.81085L8.52177 10.4772ZM9.42365 9.46327L10.4772 8.52174L9.81088 7.7761L8.75731 8.71763L9.42365 9.46327ZM10.4334 8.5567L11.5858 7.73905L11.0071 6.92349L9.85472 7.74114L10.4334 8.5567ZM11.5383 7.76888L12.7749 7.0854L12.2912 6.21017L11.0546 6.89366L11.5383 7.76888ZM12.7244 7.10973L14.0298 6.569L13.6472 5.64512L12.3417 6.18585L12.7244 7.10973ZM13.9769 6.58752L15.3347 6.19636L15.0578 5.23544L13.7001 5.62661L13.9769 6.58752ZM15.28 6.20884L16.673 5.97216L16.5055 4.98628L15.1125 5.22297L15.28 6.20884ZM16.6173 5.97843L18.0281 5.89921L17.972 4.90078L16.5612 4.98001L16.6173 5.97843Z" fill="currentColor"/>
<path d="M11.3539 18.0819L15.0809 21.8442C15.4696 22.2366 16.0998 22.2366 16.4884 21.8442L24.6462 13.6091" stroke="currentColor" stroke-linecap="round" stroke-linejoin="round"/>
</svg>
