<svg width="24" height="24" viewBox="0 0 24 24" fill="none" stroke="currentColor" xmlns="http://www.w3.org/2000/svg">
<path d="M9.00002 16.5002V11.1008V8.70035C9.00002 8.03752 9.53741 7.50023 10.2002 7.50035L12.6572 7.50079L15 7.50053V5.10035C15 4.43753 14.4626 3.90023 13.7998 3.90035L6.60016 3.90027C5.93736 3.9002 5.40003 4.43747 5.40003 5.10027L5.40002 15.3002C5.40002 15.963 5.93728 16.5002 6.60002 16.5002H9.00002Z"  fill-opacity="0.25"/>
<path d="M10.2 20.1002C9.53728 20.1002 9.00002 19.563 9.00002 18.9002V11.1008V8.70035C9.00002 8.03752 9.53741 7.50023 10.2002 7.50035L12.6572 7.50079L17.3999 7.50025C18.0627 7.50018 18.6 8.03746 18.6 8.70025L18.6 18.9002C18.6 19.563 18.0628 20.1002 17.4 20.1002H10.2Z" fill-opacity="0.25"/>
<path d="M9.00002 11.1008V16.5002H6.60002C5.93728 16.5002 5.40002 15.963 5.40002 15.3002L5.40003 5.10027C5.40003 4.43747 5.93736 3.9002 6.60016 3.90027L13.7998 3.90035C14.4626 3.90023 15 4.43753 15 5.10035V7.50053L12.6572 7.50079M9.00002 11.1008V8.70035C9.00002 8.03752 9.53741 7.50023 10.2002 7.50035L12.6572 7.50079M9.00002 11.1008V18.9002C9.00002 19.563 9.53728 20.1002 10.2 20.1002H17.4C18.0628 20.1002 18.6 19.563 18.6 18.9002L18.6 8.70025C18.6 8.03746 18.0627 7.50018 17.3999 7.50025L12.6572 7.50079"  stroke-linecap="round" stroke-linejoin="round"/>
</svg>
