<svg width="24" height="24" viewBox="0 0 24 24" fill="none" xmlns="http://www.w3.org/2000/svg">
<path d="M15.0281 5.71391C16.1027 5.20996 17.4228 5.4019 18.3105 6.28958C19.1981 7.17726 19.3901 8.4973 18.8861 9.57195C20.0024 9.97549 20.8 11.0446 20.8 12.3C20.8 13.5554 20.0024 14.6245 18.8861 15.028C19.3901 16.1027 19.1981 17.4227 18.3105 18.3104C17.4228 19.1981 16.1027 19.39 15.0281 18.8861C14.6245 20.0023 13.5554 20.8 12.3 20.8C11.0447 20.8 9.97555 20.0023 9.57201 18.8861C8.49736 19.39 7.17732 19.1981 6.28964 18.3104C5.40196 17.4227 5.21002 16.1027 5.71397 15.028C4.59774 14.6245 3.80005 13.5554 3.80005 12.3C3.80005 11.0446 4.59774 9.97549 5.71397 9.57195C5.21002 8.4973 5.40196 7.17726 6.28964 6.28958C7.17732 5.4019 8.49736 5.20996 9.572 5.71391C9.97555 4.59768 11.0447 3.79999 12.3 3.79999C13.5554 3.79999 14.6245 4.59768 15.0281 5.71391Z" fill-opacity="0.25"/>
<path d="M9.15544 10.9499C8.74272 10.5372 8.74272 9.86808 9.15544 9.45537C9.56815 9.04266 10.2373 9.04266 10.65 9.45537C11.0627 9.86808 11.0627 10.5372 10.65 10.9499C10.2373 11.3627 9.56815 11.3627 9.15544 10.9499Z" fill-opacity="0.25"/>
<path d="M13.3402 15.1347C12.9275 14.722 12.9275 14.0529 13.3402 13.6402C13.7529 13.2274 14.4221 13.2274 14.8348 13.6402C15.2475 14.0529 15.2475 14.722 14.8348 15.1347C14.4221 15.5474 13.7529 15.5474 13.3402 15.1347Z" fill-opacity="0.25"/>
<path d="M15.2084 8.93227L8.63234 15.5084M18.3105 6.28958C17.4228 5.4019 16.1027 5.20996 15.0281 5.71391C14.6245 4.59768 13.5554 3.79999 12.3 3.79999C11.0447 3.79999 9.97555 4.59768 9.572 5.71391C8.49736 5.20996 7.17732 5.4019 6.28964 6.28958C5.40196 7.17726 5.21002 8.4973 5.71397 9.57195C4.59774 9.97549 3.80005 11.0446 3.80005 12.3C3.80005 13.5554 4.59774 14.6245 5.71397 15.028C5.21002 16.1027 5.40196 17.4227 6.28964 18.3104C7.17732 19.1981 8.49736 19.39 9.57201 18.8861C9.97555 20.0023 11.0447 20.8 12.3 20.8C13.5554 20.8 14.6245 20.0023 15.0281 18.8861C16.1027 19.39 17.4228 19.1981 18.3105 18.3104C19.1981 17.4227 19.3901 16.1027 18.8861 15.028C20.0024 14.6245 20.8 13.5554 20.8 12.3C20.8 11.0446 20.0024 9.97549 18.8861 9.57195C19.3901 8.4973 19.1981 7.17726 18.3105 6.28958ZM10.65 10.9499C10.2373 11.3627 9.56815 11.3627 9.15544 10.9499C8.74272 10.5372 8.74272 9.86808 9.15544 9.45537C9.56815 9.04266 10.2373 9.04266 10.65 9.45537C11.0627 9.86808 11.0627 10.5372 10.65 10.9499ZM14.8348 15.1347C14.4221 15.5474 13.7529 15.5474 13.3402 15.1347C12.9275 14.722 12.9275 14.0529 13.3402 13.6402C13.7529 13.2274 14.4221 13.2274 14.8348 13.6402C15.2475 14.0529 15.2475 14.722 14.8348 15.1347Z" stroke="currentColor" stroke-linecap="round" stroke-linejoin="round"/>
</svg>
