<svg width="33" height="41" viewBox="0 0 33 41" fill="none" xmlns="http://www.w3.org/2000/svg">
<g clipPath="url(#clip0_2942_6079)">
<path d="M1.12 10.4V5.50001C1.12528 4.33653 1.59118 3.22252 2.41577 2.40168C3.24036 1.58084 4.35652 1.11999 5.52002 1.12H21.52L22.1801 1.77003L31.3201 10.91L31.8201 11.4201V13.9901H32.8201V10.9901L32.6801 10.84C29.3601 7.50004 24.83 2.96002 22.1 0.260019L21.9501 0.120004H5.48999C4.78217 0.11869 4.08108 0.256839 3.42664 0.526499C2.77219 0.796158 2.17722 1.19208 1.67578 1.69166C1.17434 2.19124 0.776236 2.78468 0.50415 3.43812C0.232065 4.09156 0.0913999 4.79218 0.0900879 5.50001V10.4H1.12Z" fill="#005FA2" stroke="#005FA2" stroke-width="0.25" stroke-miterlimit="10"/>
<path d="M31.85 18.12V34.7401C31.8473 35.9026 31.3837 37.0166 30.5607 37.8378C29.7377 38.6589 28.6227 39.12 27.4601 39.12H5.52002C4.35652 39.12 3.24036 38.6592 2.41577 37.8384C1.59118 37.0175 1.12528 35.9035 1.12 34.7401V34.56H0.119995V34.7401C0.121307 35.4479 0.262094 36.1485 0.53418 36.8019C0.806265 37.4554 1.20437 38.0488 1.70581 38.5484C2.20725 39.048 2.80209 39.4439 3.45654 39.7136C4.11099 39.9832 4.81219 40.1213 5.52002 40.12H27.4601C28.8879 40.12 30.2573 39.5535 31.2678 38.5449C32.2784 37.5362 32.8473 36.1678 32.85 34.7401V18.12H31.85Z" fill="#005FA2" stroke="#005FA2" stroke-width="0.25" stroke-miterlimit="10"/>
<path d="M32.85 15.26H31.85V16.84H32.85V15.26Z" fill="#005FA2" stroke="#005FA2" stroke-width="0.25" stroke-miterlimit="10"/>
<path d="M32.7101 10.84C29.3901 7.50003 24.86 2.96001 22.13 0.26001L21.98 0.119995H21.23V6.12C21.23 7.65295 21.839 9.12313 22.923 10.2071C24.0069 11.2911 25.4771 11.9 27.01 11.9H32.85V11L32.7101 10.84ZM27.01 10.84C25.7423 10.84 24.5264 10.3364 23.63 9.44C22.7336 8.54358 22.23 7.32773 22.23 6.06V1.70001L31.37 10.84H27.03H27.01Z" fill="#005FA2" stroke="#005FA2" stroke-width="0.25" stroke-miterlimit="10"/>
<path d="M1.15002 16.07H0.150024V33.14H1.15002V16.07Z" fill="#005FA2" stroke="#005FA2" stroke-width="0.25" stroke-miterlimit="10"/>
<path d="M1.15002 12H0.150024V13.58H1.15002V12Z" fill="#005FA2" stroke="#005FA2" stroke-width="0.25" stroke-miterlimit="10"/>
<line x1="8" y1="23.75" x2="24" y2="23.75" stroke="#005FA2" stroke-width="2.5"/>
<line x1="16.25" y1="16" x2="16.25" y2="33" stroke="#005FA2" stroke-width="2.5"/>
</g>
<defs>
<clipPath id="clip0_2942_6079">
<rect width="32.98" height="40.25" fill="white"/>
</clipPath>
</defs>
</svg>
