<svg xmlns="http://www.w3.org/2000/svg" viewBox="0 0 24 24" fill="currentColor">
  <path d="M5.21184 6.24172C4.42419 7.02937 3.98169 8.09766 3.98169 9.21157C3.98169 10.3255 4.42419 11.3938 5.21184 12.1814L11.5758 18.5454C11.8101 18.7797 12.19 18.7797 12.4243 18.5454L18.7883 12.1814C19.5759 11.3938 20.0184 10.3255 20.0184 9.21157C20.0184 8.09766 19.5759 7.02937 18.7883 6.24172C18.0006 5.45406 16.9324 5.01157 15.8184 5.01157C14.7045 5.01157 13.6362 5.45407 12.8486 6.24172L12.2074 6.88294C12.0929 6.99743 11.9073 6.99743 11.7928 6.88294L11.1515 6.24172C10.3639 5.45407 9.2956 5.01157 8.18169 5.01157C7.06778 5.01157 5.99949 5.45406 5.21184 6.24172Z" fill-opacity="0.25" stroke="currentColor" stroke-linecap="round" stroke-linejoin="round"/>
</svg>