<svg width="24" height="24" viewBox="0 0 24 24" fill="currentColor" xmlns="http://www.w3.org/2000/svg">
<path fillRule="evenodd" clip-rule="evenodd" d="M5.21179 6.24172C4.42414 7.02937 3.98164 8.09766 3.98164 9.21156C3.98164 10.3255 4.42414 11.3938 5.21179 12.1814L12 18.9696L18.7882 12.1814C19.5759 11.3938 20.0184 10.3255 20.0184 9.21157C20.0184 8.09766 19.5759 7.02937 18.7882 6.24172C18.0006 5.45406 16.9323 5.01156 15.8184 5.01156C14.7045 5.01157 13.6362 5.45406 12.8485 6.24172L12.2073 6.88294L12 7.09025L11.7927 6.88294L11.1515 6.24171C10.3638 5.45406 9.29555 5.01156 8.18164 5.01156C7.06773 5.01156 5.99944 5.45406 5.21179 6.24172Z"/>
<path d="M3.98164 9.21156H1.48164V9.21157L3.98164 9.21156ZM5.21179 12.1814L6.97956 10.4136L5.21179 12.1814ZM12 18.9696L10.2322 20.7374C10.7011 21.2062 11.337 21.4696 12 21.4696C12.6631 21.4696 13.2989 21.2062 13.7678 20.7374L12 18.9696ZM18.7882 12.1814L17.0205 10.4136V10.4136L18.7882 12.1814ZM20.0184 9.21157L22.5184 9.21157L20.0184 9.21157ZM15.8184 5.01156L15.8184 2.51156H15.8184L15.8184 5.01156ZM12.8485 6.24172L11.0808 4.47395L12.8485 6.24172ZM12.2073 6.88294L10.4396 5.11517L10.4395 5.11519L12.2073 6.88294ZM12 7.09025L10.2323 8.85801C10.7011 9.32686 11.337 9.59025 12 9.59025C12.6631 9.59024 13.299 9.32685 13.7678 8.858L12 7.09025ZM11.7927 6.88294L13.5605 5.11517L11.7927 6.88294ZM11.1515 6.24171L9.38372 8.00948L11.1515 6.24171ZM8.18164 5.01156L8.18164 2.51156H8.18164L8.18164 5.01156ZM6.48164 9.21157C6.48164 8.7607 6.66075 8.32829 6.97956 8.00948L3.44402 4.47395C2.18753 5.73044 1.48164 7.43461 1.48164 9.21156L6.48164 9.21157ZM6.97956 10.4136C6.66075 10.0948 6.48164 9.66243 6.48164 9.21156L1.48164 9.21157C1.48164 10.9885 2.18753 12.6927 3.44403 13.9492L6.97956 10.4136ZM13.7678 17.2019L6.97956 10.4136L3.44403 13.9492L10.2322 20.7374L13.7678 17.2019ZM13.7678 20.7374L20.556 13.9492L17.0205 10.4136L10.2322 17.2019L13.7678 20.7374ZM20.556 13.9492C21.8125 12.6927 22.5184 10.9885 22.5184 9.21157L17.5184 9.21156C17.5184 9.66243 17.3393 10.0948 17.0205 10.4136L20.556 13.9492ZM22.5184 9.21157C22.5184 7.43462 21.8125 5.73044 20.556 4.47395L17.0205 8.00948C17.3393 8.32829 17.5184 8.7607 17.5184 9.21156L22.5184 9.21157ZM20.556 4.47395C19.2995 3.21745 17.5953 2.51156 15.8184 2.51156L15.8184 7.51157C16.2693 7.51157 16.7017 7.69067 17.0205 8.00948L20.556 4.47395ZM15.8184 2.51156C14.0414 2.51157 12.3373 3.21746 11.0808 4.47395L14.6163 8.00948C14.9351 7.69067 15.3675 7.51157 15.8184 7.51157L15.8184 2.51156ZM11.0808 4.47395L10.4396 5.11517L13.9751 8.65071L14.6163 8.00948L11.0808 4.47395ZM10.4395 5.11519L10.2322 5.32249L13.7678 8.858L13.9751 8.65069L10.4395 5.11519ZM10.0249 8.6507L10.2323 8.85801L13.7678 5.32248L13.5605 5.11517L10.0249 8.6507ZM9.38372 8.00948L10.0249 8.6507L13.5605 5.11517L12.9193 4.47395L9.38372 8.00948ZM8.18164 7.51156C8.63251 7.51156 9.06491 7.69067 9.38372 8.00948L12.9193 4.47395C11.6628 3.21745 9.95859 2.51157 8.18164 2.51156L8.18164 7.51156ZM6.97956 8.00948C7.29837 7.69067 7.73077 7.51156 8.18164 7.51156L8.18164 2.51156C6.40469 2.51156 4.70052 3.21745 3.44402 4.47395L6.97956 8.00948Z" />
</svg>
