<svg viewBox="0 0 24 24" fill="currentColor" xmlns="http://www.w3.org/2000/svg">
<path fillRule="evenodd" clip-rule="evenodd" d="M12 5.39999L18 10.2H17C17.5523 10.2 18 10.6477 18 11.2V17.6C18 18.1523 17.5523 18.6 17 18.6H7C6.44772 18.6 6 18.1523 6 17.6L6 11.2C6 10.6477 6.44772 10.2 7 10.2H6L12 5.39999ZM13.8 15L13.8 11.4H10.2L10.2 15L13.8 15Z"/>
<path d="M20.2501 12L19.3501 11.28L12.0001 5.39999L4.65012 11.28L3.75012 12" stroke="currentColor" stroke-width="3" stroke-linecap="round" stroke-linejoin="round"/>
<path fillRule="evenodd" clip-rule="evenodd" d="M16.8751 9.29998H18.6001V5.69998L12.6001 5.69998V5.87998L16.8751 9.29998Z"/>
<path d="M18.6001 9.29998V10.3C19.1524 10.3 19.6001 9.85227 19.6001 9.29998L18.6001 9.29998ZM16.8751 9.29998L16.2504 10.0809C16.4277 10.2227 16.648 10.3 16.8751 10.3V9.29998ZM18.6001 5.69998H19.6001C19.6001 5.1477 19.1524 4.69998 18.6001 4.69998V5.69998ZM12.6001 5.69998V4.69998C12.0478 4.69998 11.6001 5.1477 11.6001 5.69998H12.6001ZM12.6001 5.87998H11.6001C11.6001 6.18377 11.7382 6.47108 11.9754 6.66085L12.6001 5.87998ZM18.6001 8.29998H16.8751V10.3H18.6001V8.29998ZM17.6001 5.69998V9.29998L19.6001 9.29998V5.69998H17.6001ZM12.6001 6.69998L18.6001 6.69998V4.69998L12.6001 4.69998V6.69998ZM13.6001 5.87998V5.69998H11.6001V5.87998H13.6001ZM11.9754 6.66085L16.2504 10.0809L17.4998 8.51911L13.2248 5.09911L11.9754 6.66085Z"/>
</svg>
