<svg width="50" height="39" viewBox="0 0 50 39" fill="none" xmlns="http://www.w3.org/2000/svg">
<path d="M21.7741 30.2419H7.25801C6.45631 30.2419 5.8064 29.592 5.8064 28.7903C5.8064 26.3892 7.29605 24.24 9.54441 23.3974L9.99081 23.23C12.9086 22.1365 16.1236 22.1365 19.0413 23.23L19.4877 23.3974C21.7361 24.24 23.2258 26.3892 23.2258 28.7903C23.2258 29.592 22.5758 30.2419 21.7741 30.2419Z" stroke="#005FA2" stroke-width="1.2" stroke-linecap="round" stroke-linejoin="round"/>
<path d="M12.3029 18.9437C13.6921 19.6573 15.3401 19.6573 16.7293 18.9437C18.0221 18.2796 18.9484 17.07 19.2525 15.6488L19.3337 15.2694C19.6447 13.816 19.3125 12.2991 18.4225 11.1087L18.2922 10.9344C17.4021 9.74379 16.0026 9.04272 14.5161 9.04272C13.0295 9.04272 11.6301 9.74379 10.74 10.9344L10.6096 11.1087C9.71964 12.2991 9.38745 13.816 9.69845 15.2694L9.77961 15.6488C10.0837 17.07 11.01 18.2796 12.3029 18.9437Z" stroke="#005FA2" stroke-width="1.2" stroke-linecap="round" stroke-linejoin="round"/>
<path d="M27.4193 12.9032H41.9354M27.4193 17.7419H37.0967M27.4193 24.1935H37.0967M27.4193 29.0322H41.9354" stroke="#005FA2" stroke-width="1.2" stroke-linecap="round" stroke-linejoin="round"/>
<rect x="0.6" y="0.6" width="48.8" height="37.5097" rx="3.4" stroke="#005FA2" stroke-width="1.2"/>
</svg>
