<svg width="34" height="30" viewBox="0 0 34 30" fill="none" xmlns="http://www.w3.org/2000/svg">
<g clipPath="url(#clip0_2943_10315)">
<path d="M33.357 0.408594C33.1121 0.204448 32.8165 0.0702075 32.5015 0.0200715C32.1865 -0.0300645 31.8639 0.005765 31.5676 0.123775C26.0618 2.30213 8.44928 9.507 1.13646 12.4986C0.78865 12.6413 0.493271 12.8875 0.290296 13.2037C0.0873199 13.5199 -0.0133698 13.8908 0.00187326 14.2661C0.0171164 14.6414 0.147508 15.0029 0.375459 15.3017C0.603409 15.6004 0.917819 15.8219 1.27606 15.936L8.67739 18.2931L11.4145 26.6549C11.5014 26.921 11.6523 27.1618 11.8539 27.3563C12.0554 27.5508 12.3016 27.693 12.5708 27.7706C12.6992 27.806 12.8311 27.8271 12.9641 27.8335L13.1056 27.857L13.1332 27.8354C13.5035 27.8163 13.858 27.6786 14.1439 27.4426L18.0117 24.2526C20.4617 26.0676 23.2853 28.1556 25.1337 29.5188C25.4607 29.76 25.8435 29.9146 26.2464 29.9682C26.6493 30.0218 27.0592 29.9727 27.438 29.8255C27.8168 29.6783 28.1522 29.4377 28.4128 29.1261C28.6735 28.8145 28.851 28.4422 28.9288 28.0436L33.9665 2.11553C34.0275 1.80255 34.0031 1.47895 33.8958 1.17864C33.7886 0.878323 33.6025 0.612352 33.357 0.408594ZM12.7615 19.6052L12.7457 19.9195C12.6553 21.5714 12.5373 23.3393 12.4252 24.6651L10.2505 18.022L21.8087 11.1157L12.7615 19.6052ZM13.9413 25.5746C13.9413 25.549 13.9413 25.5215 13.9413 25.498L13.9531 25.3723C13.9531 25.3231 13.9649 25.2701 13.9688 25.2171L13.9807 25.0855C13.9807 25.0305 13.9905 24.9735 13.9964 24.9165L14.0081 24.7771L14.0259 24.5807L14.0377 24.4373C14.0377 24.3685 14.0474 24.2998 14.0533 24.2291L14.0651 24.0719C14.0651 23.9973 14.0711 23.9207 14.0829 23.8421L14.0947 23.6869C14.0947 23.6044 14.1065 23.518 14.1124 23.4316L14.1242 23.2666C14.1242 23.1762 14.136 23.0859 14.1419 22.9916L14.1537 22.8246C14.1537 22.7225 14.1675 22.6282 14.1734 22.5143C14.1734 22.4652 14.1733 22.4141 14.1831 22.363C14.1831 22.2471 14.1989 22.1312 14.2048 22.0114C14.2048 21.9623 14.2048 21.9112 14.2146 21.8621C14.2146 21.7345 14.2304 21.6088 14.2383 21.4693V21.4575L16.7001 23.2803L13.9413 25.5746ZM32.4249 1.80714L27.3871 27.7352C27.3603 27.8721 27.2993 28 27.2098 28.1069C27.1202 28.2139 27.0051 28.2965 26.875 28.3471C26.7449 28.3977 26.6041 28.4145 26.4657 28.3962C26.3273 28.3778 26.1958 28.3248 26.0834 28.242C24.0994 26.7767 20.9906 24.4785 18.4265 22.5791L14.7751 19.8763L27.5327 7.90418C27.6917 7.75301 27.7895 7.5487 27.8075 7.33015C27.8256 7.1116 27.7626 6.89405 27.6305 6.7189C27.4984 6.54376 27.3064 6.42325 27.0911 6.3803C26.8758 6.33735 26.6523 6.37497 26.463 6.48599L9.2142 16.7924L1.76572 14.4216C1.71672 14.4058 1.67371 14.3754 1.64254 14.3345C1.61136 14.2936 1.59351 14.2441 1.59136 14.1927C1.58922 14.1413 1.60288 14.0905 1.63054 14.0471C1.6582 14.0038 1.69852 13.9699 1.74604 13.9501C9.0569 10.9547 26.6556 3.75175 32.1594 1.57536C32.192 1.56264 32.2275 1.55885 32.2621 1.56437C32.2966 1.5699 32.329 1.58454 32.3561 1.60679C32.3852 1.63191 32.4063 1.66503 32.4168 1.70205C32.4273 1.73906 32.4268 1.77834 32.4151 1.815L32.4249 1.80714Z" fill="#005FA2" stroke="#005FA2" stroke-width="0.5"/>
</g>
<defs>
<clipPath id="clip0_2943_10315">
<rect width="34" height="30" fill="white"/>
</clipPath>
</defs>
</svg>
