<svg width="96" height="110" viewBox="0 0 96 110" fill="none" xmlns="http://www.w3.org/2000/svg">
<g clipPath="url(#clip0_2622_2586)">
<path d="M1.1721 46.9141L59.3215 46.9141V39.368L1.1721 39.368V46.9141Z" fill="#0363A6"/>
<path d="M70.0942 110H20.3736C17.5959 109.996 14.9329 108.889 12.9688 106.921C11.0047 104.952 9.89986 102.283 9.89673 99.4991V73.4793C9.89673 73.1646 10.0215 72.8628 10.2435 72.6403C10.4655 72.4178 10.7666 72.2928 11.0806 72.2928C11.3945 72.2928 11.6957 72.4178 11.9177 72.6403C12.1397 72.8628 12.2644 73.1646 12.2644 73.4793V99.4991C12.2644 101.655 13.1187 103.722 14.6395 105.246C16.1603 106.77 18.2229 107.627 20.3736 107.627H70.0942C72.2449 107.627 74.3075 106.77 75.8283 105.246C77.349 103.722 78.2034 101.655 78.2034 99.4991V90.4106C78.2034 90.0959 78.3281 89.7941 78.5501 89.5716C78.7721 89.3491 79.0732 89.2241 79.3872 89.2241C79.7012 89.2241 80.0023 89.3491 80.2243 89.5716C80.4463 89.7941 80.571 90.0959 80.571 90.4106V99.4991C80.5679 102.283 79.4631 104.952 77.499 106.921C75.5349 108.889 72.8719 109.996 70.0942 110ZM79.3872 50.3782C79.0732 50.3782 78.7721 50.2532 78.5501 50.0307C78.3281 49.8082 78.2034 49.5064 78.2034 49.1917V10.4526C78.2003 8.29806 77.3449 6.23262 75.8248 4.7091C74.3047 3.18558 72.2439 2.32828 70.0942 2.32514H20.3736C18.2238 2.32828 16.1631 3.18558 14.643 4.7091C13.1229 6.23262 12.2675 8.29806 12.2644 10.4526V29.7332C12.2644 30.0479 12.1397 30.3496 11.9177 30.5722C11.6957 30.7947 11.3945 30.9197 11.0806 30.9197C10.7666 30.9197 10.4655 30.7947 10.2435 30.5722C10.0215 30.3496 9.89673 30.0479 9.89673 29.7332V10.4526C9.89986 7.6687 11.0047 4.99968 12.9688 3.03114C14.9329 1.0626 17.5959 -0.0447112 20.3736 -0.0478516H70.0942C72.8616 -0.0290697 75.5094 1.08515 77.4608 3.052C79.4121 5.01885 80.5088 7.67894 80.5118 10.4526V49.1442C80.5182 49.304 80.4923 49.4634 80.4357 49.6129C80.3791 49.7624 80.2929 49.8988 80.1823 50.0141C80.0717 50.1293 79.939 50.221 79.7922 50.2836C79.6454 50.3462 79.4875 50.3783 79.328 50.3782H79.3872Z" fill="#0363A6"/>
<path d="M56.6815 98.3369H33.6443C33.3303 98.3369 33.0292 98.2118 32.8072 97.9893C32.5852 97.7668 32.4604 97.465 32.4604 97.1504C32.4604 96.8357 32.5852 96.5339 32.8072 96.3114C33.0292 96.0889 33.3303 95.9639 33.6443 95.9639H56.6815C56.9955 95.9639 57.2966 96.0889 57.5186 96.3114C57.7406 96.5339 57.8653 96.8357 57.8653 97.1504C57.8653 97.465 57.7406 97.7668 57.5186 97.9893C57.2966 98.2118 56.9955 98.3369 56.6815 98.3369Z" fill="#0363A6"/>
<path d="M49.3418 7.93744H40.9958C40.6819 7.93744 40.3807 7.81244 40.1587 7.58993C39.9367 7.36742 39.812 7.06563 39.812 6.75095C39.812 6.43627 39.9367 6.13448 40.1587 5.91197C40.3807 5.68946 40.6819 5.56445 40.9958 5.56445H49.3418C49.6558 5.56445 49.9568 5.68946 50.1789 5.91197C50.4009 6.13448 50.5256 6.43627 50.5256 6.75095C50.5256 7.06563 50.4009 7.36742 50.1789 7.58993C49.9568 7.81244 49.6558 7.93744 49.3418 7.93744Z" fill="#0363A6"/>
<path d="M35.1478 64.3671H10.9978C10.6838 64.3671 10.3827 64.2421 10.1607 64.0196C9.93871 63.7971 9.81396 63.4953 9.81396 63.1806C9.81396 62.866 9.93871 62.5641 10.1607 62.3416C10.3827 62.1191 10.6838 61.9941 10.9978 61.9941H35.1478C35.4618 61.9941 35.7629 62.1191 35.9849 62.3416C36.2069 62.5641 36.3317 62.866 36.3317 63.1806C36.3317 63.4953 36.2069 63.7971 35.9849 64.0196C35.7629 64.2421 35.4618 64.3671 35.1478 64.3671Z" fill="#0363A6"/>
<path d="M35.1478 57.4853H10.9978C10.6838 57.4853 10.3827 57.3603 10.1607 57.1378C9.93871 56.9153 9.81396 56.6135 9.81396 56.2988C9.81396 55.9841 9.93871 55.6823 10.1607 55.4598C10.3827 55.2373 10.6838 55.1123 10.9978 55.1123H35.1478C35.4618 55.1123 35.7629 55.2373 35.9849 55.4598C36.2069 55.6823 36.3317 55.9841 36.3317 56.2988C36.3317 56.6135 36.2069 56.9153 35.9849 57.1378C35.7629 57.3603 35.4618 57.4853 35.1478 57.4853Z" fill="#0363A6"/>
<path d="M50.277 74.6663H9.71922C7.15409 74.6663 4.69401 73.645 2.88019 71.8271C1.06637 70.0092 0.0473633 67.5436 0.0473633 64.9727V38.2884C0.0473633 37.0154 0.297549 35.7549 0.783604 34.5788C1.26966 33.4027 1.98207 32.334 2.88019 31.4339C3.7783 30.5338 4.84452 29.8197 6.01797 29.3326C7.19141 28.8454 8.4491 28.5947 9.71922 28.5947H50.8808C53.4449 28.5979 55.9032 29.6201 57.7163 31.4374C59.5295 33.2546 60.5495 35.7184 60.5526 38.2884V52.0873C60.5526 52.402 60.4279 52.7038 60.2059 52.9263C59.9839 53.1488 59.6828 53.2738 59.3688 53.2738C59.0548 53.2738 58.7537 53.1488 58.5317 52.9263C58.3097 52.7038 58.185 52.402 58.185 52.0873V38.2884C58.1819 36.3478 57.4113 34.4876 56.0422 33.1153C54.673 31.7431 52.817 30.9709 50.8808 30.9677H9.71922C7.78299 30.9709 5.92696 31.7431 4.55784 33.1153C3.18871 34.4876 2.41814 36.3478 2.41501 38.2884V65.032C2.41814 66.9726 3.18871 68.8328 4.55784 70.205C5.92696 71.5772 7.78299 72.3496 9.71922 72.3527H50.3244C50.6383 72.3527 50.9395 72.4777 51.1615 72.7002C51.3835 72.9227 51.5082 73.2245 51.5082 73.5392C51.5082 73.8539 51.3835 74.1556 51.1615 74.3781C50.9395 74.6007 50.6383 74.7257 50.3244 74.7257L50.277 74.6663Z" fill="#0363A6"/>
<path d="M72.0831 92.8433C67.5371 92.8433 63.0933 91.4925 59.3131 88.9617C55.533 86.4309 52.5863 82.8336 50.8455 78.6247C49.1048 74.4157 48.6481 69.784 49.5333 65.315C50.4184 60.846 52.6056 56.7403 55.8185 53.5169C59.0313 50.2935 63.1255 48.0972 67.5835 47.2054C72.0415 46.3137 76.6633 46.7666 80.8646 48.5069C85.0658 50.2473 88.658 53.1969 91.187 56.983C93.716 60.769 95.0683 65.2216 95.073 69.7778C95.0699 75.8901 92.6475 81.7514 88.3374 86.0757C84.0273 90.4 78.1816 92.8338 72.0831 92.8433ZM72.0831 49.1328C68.0034 49.1328 64.0154 50.3456 60.6236 52.6177C57.2317 54.8899 54.5886 58.1193 53.0284 61.8974C51.4683 65.6755 51.0613 69.8325 51.8589 73.8425C52.6565 77.8525 54.623 81.5353 57.5094 84.4249C60.3958 87.3146 64.0726 89.2812 68.0744 90.076C72.0763 90.8709 76.2235 90.4582 79.9913 88.8902C83.7591 87.3221 86.9782 84.6693 89.2414 81.2672C91.5045 77.8651 92.71 73.8667 92.7053 69.7778C92.6897 64.3031 90.5112 59.0575 86.6465 55.1885C82.7818 51.3195 77.5455 49.1422 72.0831 49.1328Z" fill="#0363A6"/>
<path d="M68.5434 80.4567C68.3694 80.457 68.1976 80.4188 68.04 80.345C67.8825 80.2712 67.7431 80.1635 67.6318 80.0296L59.9725 70.8342C59.873 70.7142 59.798 70.5758 59.7519 70.4268C59.7058 70.2778 59.6894 70.1211 59.7037 69.9658C59.7326 69.652 59.8846 69.3626 60.1264 69.1613C60.3681 68.9599 60.6798 68.863 60.9928 68.8919C61.3059 68.9208 61.5946 69.0732 61.7956 69.3155L68.5197 77.3837L81.1747 61.1168C81.3666 60.8687 81.6488 60.7069 81.9594 60.6669C82.2701 60.6269 82.5839 60.7118 82.8321 60.9032C82.9555 60.9994 83.0586 61.1191 83.1356 61.2555C83.2126 61.3919 83.2618 61.5421 83.2805 61.6977C83.2992 61.8532 83.287 62.0109 83.2446 62.1617C83.2022 62.3125 83.1304 62.4534 83.0334 62.5762L69.4786 80.0058C69.3696 80.1441 69.2312 80.2563 69.0735 80.3343C68.9159 80.4123 68.7428 80.4541 68.567 80.4567H68.5434Z" fill="#0363A6"/>
<path d="M73.6457 49.1926C73.3317 49.1926 73.0306 49.0676 72.8086 48.8451C72.5866 48.6226 72.4618 48.3208 72.4618 48.0061V11.5213C72.4636 10.6151 72.1205 9.74229 71.5024 9.08088C70.8842 8.41946 70.0377 8.01925 69.1353 7.96186H61.0497C60.9127 9.18469 60.3384 10.3164 59.433 11.1475C58.5276 11.9786 57.3525 12.4528 56.1251 12.4824H34.2243C32.9941 12.4582 31.8147 11.986 30.9063 11.1542C29.998 10.3224 29.4226 9.18765 29.2878 7.96186H21.1312C20.2415 8.03642 19.4125 8.44412 18.8092 9.10374C18.2059 9.76337 17.8726 10.6265 17.8757 11.5213V29.7815C17.8757 30.0962 17.751 30.398 17.529 30.6205C17.307 30.843 17.0059 30.968 16.6919 30.968C16.3779 30.968 16.0768 30.843 15.8548 30.6205C15.6328 30.398 15.5081 30.0962 15.5081 29.7815V11.5213C15.505 10.0116 16.0763 8.55744 17.1057 7.45519C18.1351 6.35293 19.5451 5.68549 21.0484 5.58887H29.6903C30.1733 5.59796 30.6363 5.78404 30.9919 6.11194C31.3474 6.43985 31.5708 6.88688 31.6199 7.36861C31.6199 7.36861 31.6199 7.53474 31.6199 7.57033C31.6525 8.24336 31.9379 8.87912 32.4188 9.35006C32.8996 9.82099 33.5404 10.0923 34.2125 10.1094H56.1014C56.7795 10.086 57.4237 9.80629 57.9046 9.32652C58.3855 8.84675 58.6674 8.2024 58.694 7.52286C58.6881 7.47161 58.6881 7.41986 58.694 7.36861C58.7365 6.89678 58.9482 6.45641 59.29 6.12914C59.6317 5.80187 60.0803 5.60992 60.5526 5.58887H69.2537C70.757 5.68549 72.1669 6.35293 73.1963 7.45519C74.2257 8.55744 74.7971 10.0116 74.794 11.5213V48.0061C74.7941 48.3147 74.6743 48.6112 74.4599 48.8327C74.2455 49.0542 73.9534 49.1833 73.6457 49.1926Z" fill="#0363A6"/>
<path d="M68.9104 104.186H21.001C19.5062 104.078 18.1079 103.405 17.0884 102.304C16.069 101.203 15.5042 99.7556 15.5081 98.2535V73.4795C15.5081 73.1648 15.6328 72.863 15.8548 72.6405C16.0768 72.418 16.3779 72.293 16.6919 72.293C17.0059 72.293 17.307 72.418 17.529 72.6405C17.751 72.863 17.8757 73.1648 17.8757 73.4795V98.2535C17.8731 99.1521 18.2096 100.018 18.8179 100.679C19.4261 101.339 20.261 101.744 21.1549 101.813H69.1945C70.0842 101.738 70.9132 101.331 71.5165 100.671C72.1198 100.011 72.4531 99.1483 72.45 98.2535V91.6922C72.45 91.3775 72.5747 91.0757 72.7967 90.8532C73.0187 90.6307 73.3198 90.5057 73.6338 90.5057C73.9478 90.5057 74.2489 90.6307 74.4709 90.8532C74.6929 91.0757 74.8176 91.3775 74.8176 91.6922V98.2535C74.8222 99.7499 74.2623 101.193 73.2503 102.293C72.2382 103.393 70.8487 104.069 69.3602 104.186H68.9104Z" fill="#0363A6"/>
</g>
<defs>
<clipPath id="clip0_2622_2586">
<rect width="95.0847" height="110" fill="white"/>
</clipPath>
</defs>
</svg>
