<svg width="94" height="109" viewBox="0 0 94 109" fill="none" xmlns="http://www.w3.org/2000/svg">
<g clipPath="url(#clip0_2622_2598)">
<path d="M1.1702 46.499L58.6562 46.499V39.0215L1.1702 39.0215V46.499Z" fill="#D3685C"/>
<path d="M71.2725 91.9878C66.7789 91.9878 62.3862 90.6496 58.6494 88.1423C54.9126 85.635 51.9995 82.0712 50.2783 77.9012C48.5571 73.7312 48.105 69.1422 48.9791 64.7141C49.8532 60.2861 52.0143 56.2177 55.1893 53.0231C58.3643 49.8286 62.4107 47.6512 66.8171 46.7663C71.2235 45.8813 75.7921 46.3284 79.9457 48.0511C84.0992 49.7739 87.6512 52.6949 90.1527 56.445C92.6543 60.1951 93.9932 64.606 94.0001 69.1203C94.0032 75.18 91.6109 80.9929 87.3489 85.281C83.087 89.5692 77.3044 91.9816 71.2725 91.9878ZM71.2725 48.6864C67.2383 48.6864 63.2949 49.8888 59.9413 52.1414C56.5877 54.3939 53.9747 57.5954 52.433 61.3405C50.8914 65.0856 50.4903 69.2061 51.2808 73.1802C52.0712 77.1544 54.0175 80.8037 56.8734 83.6661C59.7292 86.5285 63.3663 88.4754 67.324 89.2603C71.2818 90.0453 75.3824 89.633 79.1068 88.0756C82.8312 86.5182 86.0119 83.8858 88.2464 80.5116C90.4809 77.1374 91.6688 73.173 91.6595 69.1203C91.644 63.6975 89.4896 58.502 85.6683 54.6719C81.847 50.8419 76.6704 48.6895 71.2725 48.6864Z" fill="#C9655A"/>
<path d="M64.5664 79.7009C64.3079 79.7001 64.0568 79.6133 63.8526 79.454C63.7297 79.3595 63.6267 79.2416 63.5496 79.1069C63.4724 78.9722 63.4226 78.8234 63.403 78.6693C63.3834 78.5151 63.3944 78.3586 63.4354 78.2087C63.4764 78.0589 63.5466 77.9187 63.6419 77.7963L77.0421 60.5251C77.137 60.4026 77.255 60.3001 77.3895 60.2237C77.524 60.1473 77.6723 60.0983 77.8257 60.0797C77.9791 60.0612 78.1347 60.0733 78.2834 60.1154C78.4321 60.1575 78.571 60.2288 78.6922 60.3252C78.9351 60.5175 79.0924 60.7986 79.1297 61.107C79.167 61.4154 79.0812 61.7261 78.8911 61.9712L65.491 79.2424C65.3819 79.3846 65.2419 79.5 65.0817 79.5794C64.9214 79.6589 64.7452 79.7005 64.5664 79.7009Z" fill="#C9655A"/>
<path d="M77.9666 79.7011C77.7879 79.7007 77.6116 79.6591 77.4514 79.5797C77.2911 79.5002 77.1511 79.3848 77.0421 79.2426L63.6419 61.9714C63.451 61.7251 63.3654 61.4126 63.4038 61.1029C63.4422 60.7931 63.6015 60.5113 63.8467 60.3196C64.0919 60.1278 64.4029 60.0417 64.7113 60.0803C65.0197 60.1189 65.3001 60.279 65.491 60.5253L78.8911 77.7965C79.0278 77.9702 79.1128 78.1791 79.1365 78.3993C79.1601 78.6194 79.1214 78.8417 79.0248 79.0407C78.9282 79.2398 78.7777 79.4073 78.5905 79.5242C78.4033 79.641 78.187 79.7023 77.9666 79.7011Z" fill="#C9655A"/>
<path d="M69.236 109H20.0826C17.3367 108.997 14.7041 107.9 12.7624 105.949C10.8207 103.998 9.72844 101.354 9.72534 98.595V72.8117C9.72534 72.4999 9.84866 72.2008 10.0681 71.9803C10.2876 71.7598 10.5853 71.636 10.8957 71.636C11.206 71.636 11.5037 71.7598 11.7232 71.9803C11.9427 72.2008 12.066 72.4999 12.066 72.8117V98.595C12.0722 100.729 12.9187 102.774 14.4208 104.283C15.9229 105.792 17.9584 106.642 20.0826 106.649H69.236C71.3623 106.645 73.4008 105.796 74.9054 104.287C76.41 102.778 77.2583 100.731 77.2645 98.595V89.589C77.2645 89.2772 77.3877 88.9782 77.6072 88.7577C77.8267 88.5372 78.1244 88.4133 78.4348 88.4133C78.7452 88.4133 79.0428 88.5372 79.2623 88.7577C79.4818 88.9782 79.6051 89.2772 79.6051 89.589V98.595C79.602 101.356 78.5082 104.002 76.5639 105.953C74.6197 107.904 71.984 109 69.236 109ZM78.4348 49.9089C78.1244 49.9089 77.8267 49.785 77.6072 49.5645C77.3877 49.344 77.2645 49.045 77.2645 48.7331V10.405C77.2614 8.26799 76.4141 6.21955 74.9088 4.70955C73.4036 3.19954 71.3633 2.35142 69.236 2.35142H20.0826C17.9574 2.35453 15.9202 3.20402 14.4174 4.71369C12.9147 6.22336 12.0691 8.27002 12.066 10.405V29.4985C12.066 29.8103 11.9427 30.1094 11.7232 30.3299C11.5037 30.5504 11.206 30.6742 10.8957 30.6742C10.5853 30.6742 10.2876 30.5504 10.0681 30.3299C9.84866 30.1094 9.72534 29.8103 9.72534 29.4985V10.405C9.72844 7.64639 10.8207 5.00163 12.7624 3.05098C14.7041 1.10034 17.3367 0.00311182 20.0826 0H69.236C71.984 -1.75839e-06 74.6197 1.09586 76.5639 3.04684C78.5082 4.99782 79.602 7.64435 79.6051 10.405V48.7331C79.6051 49.045 79.4818 49.344 79.2623 49.5645C79.0428 49.785 78.7452 49.9089 78.4348 49.9089Z" fill="#C9655A"/>
<path d="M56.0465 97.4315H33.2604C32.95 97.4315 32.6524 97.3076 32.4329 97.0872C32.2134 96.8667 32.0901 96.5676 32.0901 96.2558C32.0901 95.944 32.2134 95.6449 32.4329 95.4245C32.6524 95.204 32.95 95.0801 33.2604 95.0801H56.0465C56.3569 95.0801 56.6546 95.204 56.8741 95.4245C57.0935 95.6449 57.2169 95.944 57.2169 96.2558C57.2169 96.5676 57.0935 96.8667 56.8741 97.0872C56.6546 97.3076 56.3569 97.4315 56.0465 97.4315Z" fill="#C9655A"/>
<path d="M48.779 7.86509H40.5282C40.2178 7.86509 39.9202 7.74122 39.7007 7.52073C39.4812 7.30025 39.3579 7.0012 39.3579 6.68938C39.3579 6.37756 39.4812 6.07852 39.7007 5.85803C39.9202 5.63754 40.2178 5.51367 40.5282 5.51367H48.779C49.0893 5.51367 49.387 5.63754 49.6065 5.85803C49.826 6.07852 49.9493 6.37756 49.9493 6.68938C49.9493 7.0012 49.826 7.30025 49.6065 7.52073C49.387 7.74122 49.0893 7.86509 48.779 7.86509Z" fill="#C9655A"/>
<path d="M34.8053 63.7821H10.9308C10.6204 63.7821 10.3228 63.6582 10.1033 63.4377C9.88382 63.2173 9.7605 62.9182 9.7605 62.6064C9.7605 62.2946 9.88382 61.9955 10.1033 61.775C10.3228 61.5546 10.6204 61.4307 10.9308 61.4307H34.8053C35.1157 61.4307 35.4134 61.5546 35.6329 61.775C35.8523 61.9955 35.9757 62.2946 35.9757 62.6064C35.9757 62.9182 35.8523 63.2173 35.6329 63.4377C35.4134 63.6582 35.1157 63.7821 34.8053 63.7821Z" fill="#C9655A"/>
<path d="M34.8053 56.951H10.9308C10.6204 56.951 10.3228 56.8272 10.1033 56.6067C9.88382 56.3862 9.7605 56.0871 9.7605 55.7753C9.7605 55.4635 9.88382 55.1645 10.1033 54.944C10.3228 54.7235 10.6204 54.5996 10.9308 54.5996H34.8053C35.1157 54.5996 35.4134 54.7235 35.6329 54.944C35.8523 55.1645 35.9757 55.4635 35.9757 55.7753C35.9757 56.0871 35.8523 56.3862 35.6329 56.6067C35.4134 56.8272 35.1157 56.951 34.8053 56.951Z" fill="#C9655A"/>
<path d="M49.7151 73.9878H9.56148C7.02549 73.9816 4.59535 72.9659 2.80322 71.1634C1.0111 69.3608 0.0030889 66.9182 0 64.3705V37.9406C0.0030889 35.3929 1.0111 32.9502 2.80322 31.1477C4.59535 29.3451 7.02549 28.3295 9.56148 28.3232H50.2535C52.7904 28.3264 55.2224 29.341 57.0152 31.1443C58.808 32.9475 59.815 35.3919 59.815 37.9406V51.614C59.815 51.9259 59.6917 52.2249 59.4722 52.4454C59.2527 52.6659 58.955 52.7897 58.6447 52.7897C58.3343 52.7897 58.0366 52.6659 57.8171 52.4454C57.5977 52.2249 57.4743 51.9259 57.4743 51.614V37.9406C57.4743 36.0156 56.714 34.1692 55.3601 32.807C54.0063 31.4447 52.1697 30.6778 50.2535 30.6747H9.56148C7.64532 30.6778 5.80868 31.4447 4.45484 32.807C3.101 34.1692 2.34063 36.0156 2.34064 37.9406V64.4175C2.34063 66.3425 3.101 68.1889 4.45484 69.5511C5.80868 70.9134 7.64532 71.6803 9.56148 71.6834H49.7151C50.0255 71.6834 50.3232 71.8073 50.5426 72.0278C50.7621 72.2483 50.8854 72.5473 50.8854 72.8591C50.8854 73.1709 50.7621 73.47 50.5426 73.6905C50.3232 73.911 50.0255 74.0348 49.7151 74.0348V73.9878Z" fill="#C9655A"/>
<path d="M72.8054 48.7445C72.495 48.7445 72.1974 48.6206 71.9779 48.4001C71.7584 48.1796 71.6351 47.8806 71.6351 47.5688V11.4039C71.6367 10.504 71.2959 9.63752 70.6823 8.98182C70.0688 8.32611 69.229 7.9308 68.3348 7.87681H60.3415C60.2082 9.08834 59.6407 10.2098 58.7449 11.0318C57.849 11.8539 56.6861 12.3205 55.473 12.3445H33.8338C32.6194 12.3208 31.455 11.8546 30.5573 11.0328C29.6595 10.2109 29.0896 9.08933 28.9536 7.87681H20.8901C20.0105 7.95069 19.1909 8.35467 18.5945 9.0083C17.9981 9.66192 17.6686 10.5173 17.6717 11.4039V29.4981C17.6717 29.8099 17.5484 30.109 17.3289 30.3295C17.1094 30.5499 16.8118 30.6738 16.5014 30.6738C16.191 30.6738 15.8933 30.5499 15.6739 30.3295C15.4544 30.109 15.3311 29.8099 15.3311 29.4981V11.4039C15.3282 9.90599 15.8947 8.46344 16.9148 7.3709C17.9349 6.27837 19.3316 5.61826 20.8199 5.52539H29.3515C29.8273 5.53406 30.2835 5.71678 30.6347 6.0393C30.9859 6.36181 31.2079 6.80195 31.2591 7.27719C31.2591 7.27719 31.2591 7.4418 31.2591 7.47707C31.2914 8.14399 31.5735 8.77397 32.0489 9.24062C32.5243 9.70727 33.1577 9.97607 33.8221 9.99309H55.4613C56.1316 9.97555 56.7698 9.70182 57.2461 9.22774C57.7224 8.75366 58.0007 8.11491 58.0243 7.44178C58.0243 7.44178 58.0243 7.31246 58.0243 7.30071C58.0661 6.83197 58.275 6.39416 58.6126 6.06793C58.9503 5.7417 59.3938 5.54903 59.8617 5.52539H68.4636C69.9518 5.61826 71.3486 6.27837 72.3687 7.3709C73.3888 8.46344 73.9552 9.90599 73.9524 11.4039V47.5688C73.9524 47.8765 73.8323 48.1721 73.6179 48.3919C73.4034 48.6117 73.1117 48.7383 72.8054 48.7445Z" fill="#C9655A"/>
<path d="M68.1008 103.215H20.7613C19.2864 103.098 17.9091 102.428 16.9015 101.34C15.8939 100.252 15.3293 98.8231 15.3193 97.3367V72.8115C15.3193 72.4996 15.4427 72.2006 15.6621 71.9801C15.8816 71.7596 16.1793 71.6357 16.4897 71.6357C16.8 71.6357 17.0978 71.7596 17.3172 71.9801C17.5367 72.2006 17.66 72.4996 17.66 72.8115V97.3367C17.6576 98.229 17.992 99.0891 18.5957 99.7436C19.1994 100.398 20.0277 100.798 20.9135 100.864H68.3933C69.2771 100.796 70.1024 100.394 70.7037 99.7399C71.305 99.0856 71.6377 98.2272 71.6351 97.3367V90.8233C71.6351 90.5115 71.7584 90.2124 71.9779 89.992C72.1973 89.7715 72.495 89.6476 72.8054 89.6476C73.1158 89.6476 73.4135 89.7715 73.633 89.992C73.8525 90.2124 73.9757 90.5115 73.9757 90.8233V97.3367C73.98 98.8214 73.4249 100.253 72.4219 101.343C71.419 102.434 70.0424 103.102 68.5688 103.215H68.1008Z" fill="#C9655A"/>
</g>
<defs>
<clipPath id="clip0_2622_2598">
<rect width="94" height="109" fill="white"/>
</clipPath>
</defs>
</svg>
