<svg xmlns="http://www.w3.org/2000/svg" viewBox="0 0 37 39" fill="currentColor">
  <g clipPath="url(#clip0_2953_5231)">
    <path d="M24.322 0.195881C24.1956 0.0698829 24.0279 -0.000366211 23.8535 -0.000366211C23.6792 -0.000366211 23.5115 0.0698829 23.3851 0.195881L16.0527 7.89142C16.0026 7.94625 15.9618 8.00974 15.9322 8.07911L15.9089 8.13216C15.9082 8.14575 15.9082 8.15937 15.9089 8.17296L14.5287 13.0694C14.495 13.1888 14.4927 13.3157 14.5221 13.4364C14.5516 13.5571 14.6116 13.6671 14.6959 13.7549L15.038 14.114L8.35102 15.7461C7.84696 15.869 7.38078 16.124 6.99599 16.4872C6.6112 16.8504 6.32034 17.3099 6.15055 17.823L0.0350645 35.9928C-0.00665981 36.1163 -0.0141935 36.2497 0.0133286 36.3775C0.0408506 36.5053 0.102306 36.6224 0.190579 36.715L2.17723 38.796C2.23805 38.861 2.31068 38.9126 2.39081 38.9476C2.47094 38.9827 2.55696 39.0005 2.64377 39C2.71775 39.0001 2.79126 38.9877 2.86148 38.9633L20.131 32.5694C20.6189 32.3903 21.0558 32.0846 21.4011 31.6809C21.7464 31.2771 21.9889 30.7883 22.106 30.2599L23.6611 23.2417L23.8555 23.4457C23.9798 23.5748 24.1472 23.648 24.322 23.6497C24.3864 23.6485 24.4504 23.6389 24.5125 23.6212L29.1779 22.1686C29.3437 22.1161 29.4833 21.9974 29.5666 21.8381L36.8135 14.2772C36.8755 14.2133 36.9248 14.1372 36.9585 14.0531C36.9922 13.969 37.0095 13.8787 37.0095 13.7875C37.0095 13.6963 36.9922 13.6061 36.9585 13.522C36.9248 13.4379 36.8755 13.3617 36.8135 13.2979L24.322 0.195881ZM20.823 29.9416C20.7569 30.2436 20.6188 30.523 20.4215 30.7535C20.2243 30.984 19.9745 31.1582 19.6956 31.2596L2.81872 37.5066L2.58934 37.2659L11.3679 28.0565C11.6119 28.174 11.8771 28.2352 12.1455 28.236C12.3927 28.2371 12.6376 28.1865 12.8659 28.087C13.0943 27.9875 13.3014 27.8412 13.4751 27.6566C13.8279 27.285 14.026 26.7817 14.026 26.2571C14.026 25.7325 13.8279 25.2292 13.4751 24.8575C13.1146 24.5018 12.6384 24.3037 12.1436 24.3037C11.6487 24.3037 11.1725 24.5018 10.812 24.8575C10.5407 25.1418 10.3581 25.506 10.2887 25.9018C10.2193 26.2975 10.2662 26.7061 10.4232 27.0732L1.6485 36.2825L1.41912 36.0418L7.36742 18.333C7.46502 18.0402 7.63174 17.778 7.85202 17.5711C8.07229 17.3642 8.33894 17.2192 8.62706 17.1497L16.111 15.3013L22.5803 22.0706L20.823 29.9416ZM11.7451 25.8409C11.8478 25.7313 11.9874 25.6683 12.1338 25.6654C12.2065 25.6662 12.2783 25.6821 12.345 25.7122C12.4118 25.7423 12.4721 25.7861 12.5226 25.8409C12.6273 25.9523 12.686 26.1026 12.686 26.2591C12.686 26.4157 12.6273 26.5659 12.5226 26.6774C12.4146 26.7835 12.2721 26.8426 12.1241 26.8426C11.9761 26.8426 11.8337 26.7835 11.7256 26.6774C11.623 26.5638 11.567 26.4123 11.5699 26.2558C11.5729 26.0992 11.6344 25.9502 11.7412 25.8409H11.7451ZM24.532 22.1686L15.8817 13.0939L16.838 9.69494L22.3043 15.4319L27.7472 21.1648L24.532 22.1686ZM29.0068 20.4997L17.4601 8.38107L18.9025 6.86317L22.8175 10.9843C22.9417 11.1142 23.11 11.1869 23.2854 11.1865C23.4607 11.1862 23.6287 11.1127 23.7525 10.9823C23.8762 10.8519 23.9455 10.6752 23.9451 10.4912C23.9448 10.3072 23.8748 10.1308 23.7505 10.001L19.8316 5.88796L23.8516 1.66888L35.3983 13.7875L29.0068 20.4997Z"  stroke="currentColor" stroke-width="0.5"/>
  </g>
  <defs>
    <clipPath id="clip0_2953_5231">
      <rect width="37" height="39" fill="white"/>
    </clipPath>
  </defs>
</svg>