<svg xmlns="http://www.w3.org/2000/svg" width="13" height="13" viewBox="0 0 13 13" fill="currentColor">
  <g clipPath="url(#clip0_3047_1856)">
    <path d="M0.15073 12.9989C0.12796 12.9994 0.105377 12.9948 0.0846635 12.9853C0.0639506 12.9758 0.0456499 12.9618 0.0311406 12.9443C0.0166314 12.9267 0.00628308 12.9061 0.000882146 12.8839C-0.00451878 12.8618 -0.00483594 12.8388 -4.73268e-05 12.8165L1.05539 8.0444C1.06131 8.01813 1.07416 7.99392 1.09261 7.97429C1.11105 7.95466 1.13441 7.94033 1.16027 7.93279C1.18612 7.92525 1.21353 7.92477 1.23963 7.9314C1.26573 7.93804 1.28958 7.95155 1.3087 7.97052L5.02988 11.6917C5.04926 11.711 5.06301 11.7353 5.06965 11.7619C5.07629 11.7884 5.07558 11.8163 5.06758 11.8425C5.05991 11.8682 5.04553 11.8914 5.02592 11.9096C5.0063 11.9279 4.98216 11.9407 4.95599 11.9465L0.183905 13.002L0.15073 12.9989ZM1.29362 8.37913L0.352775 12.6506L4.62579 11.7098L1.29362 8.37913Z" />
    <path d="M4.92139 11.9495C4.88162 11.9489 4.84368 11.9326 4.81585 11.9042L1.09467 8.18305C1.06626 8.15521 1.05 8.11727 1.04944 8.0775C1.04952 8.05755 1.05356 8.03782 1.06133 8.01944C1.06909 8.00107 1.08042 7.98442 1.09467 7.97045L7.88718 1.17644C7.90119 1.1623 7.91787 1.15109 7.93624 1.14343C7.95462 1.13578 7.97433 1.13184 7.99423 1.13184C8.01413 1.13184 8.03384 1.13578 8.05222 1.14343C8.07059 1.15109 8.08727 1.1623 8.10128 1.17644L11.8225 4.89309C11.8366 4.90711 11.8478 4.92378 11.8555 4.94215C11.8631 4.96053 11.8671 4.98024 11.8671 5.00014C11.8671 5.02005 11.8631 5.03975 11.8555 5.05813C11.8478 5.0765 11.8366 5.09318 11.8225 5.1072L5.02845 11.9042C5.01448 11.9185 4.99783 11.9298 4.97945 11.9376C4.96108 11.9453 4.94134 11.9494 4.92139 11.9495ZM1.41432 8.0775L4.92139 11.5846L11.5013 5.00466L7.99423 1.49759L1.41432 8.0775Z" />
    <path d="M2.44106 9.46723C2.42121 9.46734 2.40154 9.46354 2.38317 9.45604C2.3648 9.44853 2.3481 9.43747 2.33401 9.4235C2.30593 9.39525 2.29016 9.35704 2.29016 9.3172C2.29016 9.27737 2.30593 9.23916 2.33401 9.21091L9.13405 2.41689C9.1623 2.38881 9.20052 2.37305 9.24035 2.37305C9.28019 2.37305 9.3184 2.38881 9.34665 2.41689C9.36078 2.43091 9.372 2.44758 9.37966 2.46596C9.38731 2.48433 9.39125 2.50404 9.39125 2.52394C9.39125 2.54385 9.38731 2.56356 9.37966 2.58193C9.372 2.6003 9.36078 2.61698 9.34665 2.63099L2.56168 9.4235C2.54603 9.43921 2.5271 9.45128 2.50625 9.45883C2.4854 9.46639 2.46314 9.46926 2.44106 9.46723Z" />
    <path d="M3.68192 10.7087C3.66208 10.7088 3.64241 10.705 3.62404 10.6975C3.60567 10.69 3.58896 10.6789 3.57487 10.6649C3.56074 10.6509 3.54952 10.6342 3.54187 10.6159C3.53421 10.5975 3.53027 10.5778 3.53027 10.5579C3.53027 10.538 3.53421 10.5183 3.54187 10.4999C3.54952 10.4815 3.56074 10.4648 3.57487 10.4508L10.3689 3.65833C10.3977 3.63363 10.4348 3.62072 10.4728 3.62218C10.5107 3.62365 10.5467 3.63938 10.5736 3.66623C10.6004 3.69308 10.6162 3.72908 10.6176 3.76703C10.6191 3.80498 10.6062 3.84208 10.5815 3.87092L3.78746 10.6649C3.75938 10.6928 3.72148 10.7085 3.68192 10.7087Z" />
    <path d="M4.92142 11.9487C4.88165 11.9481 4.84371 11.9319 4.81588 11.9035L1.0947 8.18229C1.07891 8.16878 1.0661 8.15214 1.05705 8.13344C1.048 8.11473 1.04291 8.09436 1.0421 8.07359C1.0413 8.05283 1.0448 8.03212 1.05238 8.01277C1.05996 7.99342 1.07146 7.97585 1.08616 7.96116C1.10085 7.94646 1.11843 7.93496 1.13778 7.92738C1.15712 7.9198 1.17783 7.9163 1.1986 7.9171C1.21936 7.91791 1.23974 7.92299 1.25844 7.93205C1.27715 7.9411 1.29378 7.95391 1.3073 7.9697L5.02848 11.6909C5.05656 11.7191 5.07232 11.7573 5.07232 11.7972C5.07232 11.837 5.05656 11.8752 5.02848 11.9035C5.01451 11.9177 4.99786 11.9291 4.97948 11.9368C4.9611 11.9446 4.94137 11.9486 4.92142 11.9487Z" />
    <path d="M2.53603 12.4733C2.51618 12.4734 2.49651 12.4696 2.47814 12.4621C2.45977 12.4546 2.44307 12.4436 2.42898 12.4296L0.568386 10.569C0.539995 10.5406 0.524048 10.5021 0.524048 10.4619C0.524048 10.4218 0.539995 10.3833 0.568386 10.3549C0.596778 10.3265 0.635289 10.3105 0.675442 10.3105C0.715594 10.3105 0.754095 10.3265 0.782487 10.3549L2.65062 12.2155C2.66475 12.2295 2.67596 12.2462 2.68362 12.2645C2.69127 12.2829 2.69521 12.3026 2.69521 12.3225C2.69521 12.3424 2.69127 12.3621 2.68362 12.3805C2.67596 12.3989 2.66475 12.4156 2.65062 12.4296C2.63565 12.4445 2.61771 12.4561 2.59797 12.4636C2.57823 12.4712 2.55712 12.4745 2.53603 12.4733Z" />
    <path d="M11.7153 5.15554C11.6955 5.15566 11.6758 5.15186 11.6575 5.14435C11.6391 5.13685 11.6224 5.1258 11.6083 5.11182C11.5942 5.09781 11.5829 5.08113 11.5753 5.06275C11.5676 5.04438 11.5637 5.02467 11.5637 5.00477C11.5637 4.98486 11.5676 4.96516 11.5753 4.94679C11.5829 4.92841 11.5942 4.91173 11.6083 4.89772L12.2657 4.24033C12.5423 3.96354 12.6976 3.58825 12.6976 3.19695C12.6976 2.80565 12.5423 2.43036 12.2657 2.15357L10.8454 0.733255C10.5686 0.456669 10.1933 0.301301 9.80198 0.301301C9.41068 0.301301 9.0354 0.456669 8.75861 0.733255L8.10122 1.39064C8.07283 1.41903 8.03432 1.43498 7.99417 1.43498C7.95401 1.43498 7.9155 1.41903 7.88711 1.39064C7.85872 1.36225 7.84277 1.32374 7.84277 1.28359C7.84277 1.24344 7.85872 1.20493 7.88711 1.17654L8.54451 0.519152C8.87825 0.186677 9.33014 0 9.80123 0C10.2723 0 10.7242 0.186677 11.058 0.519152L12.4798 1.94098C12.8123 2.27473 12.9989 2.72662 12.9989 3.19771C12.9989 3.6688 12.8123 4.12069 12.4798 4.45443L11.8224 5.11182C11.8083 5.1258 11.7916 5.13685 11.7732 5.14435C11.7549 5.15186 11.7352 5.15566 11.7153 5.15554Z" />
  </g>
  <defs>
    <clipPath id="clip0_3047_1856">
      <rect width="13" height="13" fill="white"/>
    </clipPath>
  </defs>
</svg>