<svg width="36" height="36" viewBox="0 0 36 36" fill="none" xmlns="http://www.w3.org/2000/svg">
<path d="M12.8338 5.52763C16.1417 4.15746 19.8583 4.15746 23.1662 5.52763C26.4741 6.89779 29.1022 9.52589 30.4724 12.8338C31.8425 16.1417 31.8425 19.8583 30.4724 23.1662C29.1022 26.4741 26.4741 29.1022 23.1662 30.4724C19.8583 31.8425 16.1417 31.8425 12.8338 30.4724C9.52589 29.1022 6.89779 26.4741 5.52763 23.1662C4.15746 19.8583 4.15746 16.1417 5.52763 12.8338C6.89779 9.52589 9.52589 6.89779 12.8338 5.52763Z" fill="#1C7EBA"/>
<path d="M24.1372 18.2471H11.9602M18.0487 24.3355V12.1586M5.52763 12.8338C6.89779 9.52589 9.52589 6.89779 12.8338 5.52763C16.1417 4.15746 19.8583 4.15746 23.1662 5.52763C26.4741 6.89779 29.1022 9.52589 30.4724 12.8338C31.8425 16.1417 31.8425 19.8583 30.4724 23.1662C29.1022 26.4741 26.4741 29.1022 23.1662 30.4724C19.8583 31.8425 16.1417 31.8425 12.8338 30.4724C9.52589 29.1022 6.89779 26.4741 5.52763 23.1662C4.15746 19.8583 4.15746 16.1417 5.52763 12.8338Z" stroke="white" stroke-linecap="round" stroke-linejoin="round"/>
</svg>
