<svg width="16" height="16" viewBox="0 0 16 16" fill="none" xmlns="http://www.w3.org/2000/svg">
<g id="emoji-sad" clipPath="url(#clip0_2711_1519)">
<path id="Vector (Stroke)" fillRule="evenodd" clip-rule="evenodd" d="M8.00002 2.00008C4.68631 2.00008 2.00002 4.68637 2.00002 8.00008C2.00002 11.3138 4.68631 14.0001 8.00002 14.0001C11.3137 14.0001 14 11.3138 14 8.00008C14 4.68637 11.3137 2.00008 8.00002 2.00008ZM0.666687 8.00008C0.666687 3.94999 3.94993 0.666748 8.00002 0.666748C12.0501 0.666748 15.3334 3.94999 15.3334 8.00008C15.3334 12.0502 12.0501 15.3334 8.00002 15.3334C3.94993 15.3334 0.666687 12.0502 0.666687 8.00008Z" fill="white"/>
<path id="Vector" fillRule="evenodd" clip-rule="evenodd" d="M7.99998 10.0001C6.66358 10.0001 6.04394 10.7362 5.9296 10.9649C5.76494 11.2942 5.36449 11.4277 5.03517 11.263C4.70586 11.0984 4.57237 10.6979 4.73703 10.3686C5.06714 9.70839 6.13639 8.66675 7.99998 8.66675C9.86358 8.66675 10.9328 9.70839 11.2629 10.3686C11.4276 10.6979 11.2941 11.0984 10.9648 11.263C10.6355 11.4277 10.235 11.2942 10.0704 10.9649C9.95603 10.7362 9.33639 10.0001 7.99998 10.0001Z" fill="white"/>
<path id="Vector (Stroke)_2" fillRule="evenodd" clip-rule="evenodd" d="M5.33331 5.99992C5.33331 5.63173 5.63179 5.33325 5.99998 5.33325H6.00665C6.37484 5.33325 6.67331 5.63173 6.67331 5.99992C6.67331 6.36811 6.37484 6.66658 6.00665 6.66658H5.99998C5.63179 6.66658 5.33331 6.36811 5.33331 5.99992Z" fill="white"/>
<path id="Vector (Stroke)_3" fillRule="evenodd" clip-rule="evenodd" d="M9.33331 5.99992C9.33331 5.63173 9.63179 5.33325 9.99998 5.33325H10.0066C10.3748 5.33325 10.6733 5.63173 10.6733 5.99992C10.6733 6.36811 10.3748 6.66658 10.0066 6.66658H9.99998C9.63179 6.66658 9.33331 6.36811 9.33331 5.99992Z" fill="white"/>
</g>
<defs>
<clipPath id="clip0_2711_1519">
<rect width="16" height="16" fill="white"/>
</clipPath>
</defs>
</svg>
