<svg width="24" height="24" viewBox="0 0 24 24" fill="none" xmlns="http://www.w3.org/2000/svg">
<path d="M3.59998 6.59999V17.4C3.59998 18.3941 4.40586 19.2 5.39998 19.2H18.6C19.5941 19.2 20.4 18.3941 20.4 17.4V8.99999C20.4 8.00588 19.5941 7.19999 18.6 7.19999H18V6.59999C18 5.60588 17.1941 4.79999 16.2 4.79999H5.39998C4.40586 4.79999 3.59998 5.60588 3.59998 6.59999Z" fill-opacity="0.25"/>
<path d="M15.6 12.9C15.6 12.2372 16.1372 11.7 16.8 11.7C17.4627 11.7 18 12.2372 18 12.9C18 13.5627 17.4627 14.1 16.8 14.1C16.1372 14.1 15.6 13.5627 15.6 12.9Z"  fill-opacity="0.25"/>
<path d="M18 7.19999V6.59999C18 5.60588 17.1941 4.79999 16.2 4.79999H5.39998C4.40586 4.79999 3.59998 5.60588 3.59998 6.59999V17.4C3.59998 18.3941 4.40586 19.2 5.39998 19.2H18.6C19.5941 19.2 20.4 18.3941 20.4 17.4V8.99999C20.4 8.00588 19.5941 7.19999 18.6 7.19999H18ZM18 7.19999H6.74998M16.8 14.1C16.1372 14.1 15.6 13.5627 15.6 12.9C15.6 12.2372 16.1372 11.7 16.8 11.7C17.4627 11.7 18 12.2372 18 12.9C18 13.5627 17.4627 14.1 16.8 14.1Z" stroke="currentColor" stroke-linecap="round" stroke-linejoin="round"/>
</svg>
