<svg width="94" height="105" viewBox="0 0 94 105" fill="none" xmlns="http://www.w3.org/2000/svg">
<g id="&#229;&#156;&#150;&#229;&#177;&#164;_1" clipPath="url(#clip0_2622_2611)">
<path id="Vector" d="M13.68 57.42C11.4138 57.425 9.20189 56.7262 7.34998 55.42C7.13439 55.267 6.98815 55.035 6.94318 54.7745C6.8982 54.514 6.95816 54.2463 7.10999 54.03C7.18577 53.9218 7.28224 53.8297 7.3938 53.7591C7.50536 53.6884 7.62985 53.6405 7.76001 53.6182C7.89017 53.5959 8.02343 53.5996 8.15216 53.6291C8.28089 53.6586 8.40253 53.7132 8.51001 53.79C10.0335 54.8348 11.8376 55.394 13.685 55.394C15.5324 55.394 17.3365 54.8348 18.86 53.79C18.9663 53.7029 19.0893 53.6387 19.2215 53.6013C19.3537 53.564 19.4922 53.5542 19.6283 53.5727C19.7644 53.5912 19.8953 53.6375 20.0127 53.7088C20.1301 53.7801 20.2315 53.8749 20.3107 53.9871C20.3899 54.0994 20.4452 54.2267 20.473 54.3612C20.5008 54.4958 20.5005 54.6346 20.4723 54.769C20.4441 54.9034 20.3885 55.0306 20.309 55.1426C20.2294 55.2546 20.1276 55.349 20.01 55.42C18.1596 56.7292 15.9467 57.4283 13.68 57.42Z" fill="#0363A6"/>
<path id="Vector_2" d="M23.56 42.75C23.2948 42.75 23.0404 42.6446 22.8529 42.4571C22.6654 42.2695 22.56 42.0152 22.56 41.75V39.89C22.2066 37.7917 21.1212 35.8866 19.4965 34.5126C17.8718 33.1386 15.8128 32.3848 13.685 32.3848C11.5572 32.3848 9.49825 33.1386 7.87353 34.5126C6.2488 35.8866 5.16339 37.7917 4.80999 39.89V41.75C4.80999 42.0152 4.70462 42.2695 4.51708 42.4571C4.32955 42.6446 4.07521 42.75 3.80999 42.75C3.54477 42.75 3.29043 42.6446 3.1029 42.4571C2.91536 42.2695 2.80999 42.0152 2.80999 41.75V39.81C2.80471 39.7568 2.80471 39.7032 2.80999 39.65C3.21914 37.0625 4.53827 34.706 6.53002 33.0045C8.52177 31.3029 11.0554 30.368 13.675 30.368C16.2946 30.368 18.8282 31.3029 20.8199 33.0045C22.8117 34.706 24.1308 37.0625 24.54 39.65C24.5449 39.7032 24.5449 39.7567 24.54 39.81V41.75C24.54 42.0118 24.4374 42.2631 24.2542 42.4501C24.071 42.6371 23.8217 42.7447 23.56 42.75Z" fill="#0363A6"/>
<path id="Vector_3" d="M4.45001 64.3C3.27245 64.3 2.14312 63.8322 1.31046 62.9996C0.477794 62.1669 0.0100098 61.0376 0.0100098 59.86V45.18C0.0641483 44.0402 0.555036 42.965 1.38083 42.1775C2.20662 41.39 3.30392 40.9507 4.44501 40.9507C5.5861 40.9507 6.68336 41.39 7.50916 42.1775C8.33495 42.965 8.82587 44.0402 8.88 45.18V51.66V59.9C8.86948 61.0689 8.3984 62.1865 7.56903 63.0103C6.73967 63.834 5.61894 64.2974 4.45001 64.3ZM4.45001 42.71C4.13006 42.7087 3.81301 42.7706 3.51703 42.8921C3.22105 43.0137 2.95199 43.1924 2.72528 43.4182C2.49857 43.644 2.31867 43.9123 2.19592 44.2078C2.07318 44.5033 2.01001 44.8201 2.01001 45.14V59.9C1.98867 60.2329 2.03579 60.5667 2.1485 60.8806C2.26121 61.1946 2.43714 61.4821 2.66534 61.7254C2.89355 61.9687 3.16918 62.1626 3.47528 62.2952C3.78138 62.4278 4.11143 62.4962 4.44501 62.4962C4.77858 62.4962 5.10863 62.4278 5.41473 62.2952C5.72084 62.1626 5.99647 61.9687 6.22467 61.7254C6.45287 61.4821 6.6288 61.1946 6.74152 60.8806C6.85423 60.5667 6.90135 60.2329 6.88 59.9V51.3V45.24C6.88803 44.9151 6.83076 44.5918 6.71161 44.2893C6.59246 43.9869 6.41386 43.7114 6.18634 43.4792C5.95883 43.2471 5.68705 43.0629 5.38708 42.9377C5.08712 42.8124 4.76507 42.7486 4.44 42.75L4.45001 42.71Z" fill="#0363A6"/>
<path id="Vector_4" d="M22.93 64.3C21.7524 64.3 20.6231 63.8322 19.7905 62.9995C18.9578 62.1669 18.49 61.0375 18.49 59.86V45.18C18.49 44.0024 18.9578 42.8731 19.7905 42.0404C20.6231 41.2078 21.7524 40.74 22.93 40.74C24.1076 40.74 25.2369 41.2078 26.0696 42.0404C26.9022 42.8731 27.37 44.0024 27.37 45.18V51.66V59.9C27.3594 61.0706 26.887 62.1897 26.0555 63.0137C25.224 63.8377 24.1007 64.3 22.93 64.3ZM22.93 42.71C22.2846 42.71 21.6655 42.9657 21.2082 43.4211C20.7509 43.8765 20.4926 44.4946 20.49 45.14V59.9C20.49 60.5471 20.7471 61.1677 21.2047 61.6253C21.6622 62.0829 22.2829 62.34 22.93 62.34C23.5771 62.34 24.1977 62.0829 24.6553 61.6253C25.1129 61.1677 25.37 60.5471 25.37 59.9V45.19C25.37 44.8687 25.3065 44.5506 25.1833 44.2539C25.06 43.9572 24.8794 43.6878 24.6518 43.4611C24.4242 43.2344 24.154 43.0549 23.8568 42.9328C23.5596 42.8108 23.2412 42.7487 22.92 42.75L22.93 42.71Z" fill="#0363A6"/>
<path id="Vector_5" d="M6.81 100.15C5.6496 100.148 4.53622 99.6911 3.70825 98.8781C2.88028 98.0651 2.40352 96.9602 2.38 95.8V63.3C2.38 63.0348 2.48538 62.7805 2.67291 62.5929C2.86045 62.4054 3.11479 62.3 3.38 62.3C3.64522 62.3 3.89956 62.4054 4.0871 62.5929C4.27463 62.7805 4.38 63.0348 4.38 63.3V95.67C4.35866 96.0029 4.40578 96.3367 4.51849 96.6506C4.63121 96.9646 4.80714 97.2521 5.03534 97.4954C5.26354 97.7387 5.53917 97.9326 5.84528 98.0652C6.15138 98.1978 6.48143 98.2662 6.815 98.2662C7.14858 98.2662 7.47863 98.1978 7.78473 98.0652C8.09083 97.9326 8.36646 97.7387 8.59467 97.4954C8.82287 97.2521 8.9988 96.9646 9.11151 96.6506C9.22422 96.3367 9.27134 96.0029 9.25 95.67V83.1001C9.25264 81.926 9.7202 80.8007 10.5504 79.9705C11.3806 79.1403 12.5059 78.6727 13.68 78.67C13.9452 78.67 14.1995 78.7754 14.3871 78.9629C14.5746 79.1505 14.68 79.4048 14.68 79.67C14.68 79.9353 14.5746 80.1896 14.3871 80.3772C14.1995 80.5647 13.9452 80.67 13.68 80.67C13.0355 80.67 12.4174 80.9261 11.9617 81.3818C11.506 81.8375 11.25 82.4556 11.25 83.1001V95.7101C11.25 96.8876 10.7822 98.0169 9.94952 98.8496C9.11686 99.6823 7.98756 100.15 6.81 100.15Z" fill="#0363A6"/>
<path id="Vector_6" d="M20.56 100.15C19.9769 100.15 19.3996 100.035 18.8609 99.812C18.3222 99.5889 17.8328 99.2618 17.4205 98.8495C17.0082 98.4372 16.6811 97.9478 16.4579 97.4091C16.2348 96.8704 16.12 96.293 16.12 95.71V83.1C16.12 82.78 16.0568 82.4632 15.9341 82.1677C15.8113 81.8723 15.6314 81.6039 15.4047 81.3782C15.178 81.1524 14.909 80.9736 14.613 80.8521C14.317 80.7305 13.9999 80.6687 13.68 80.67C13.4148 80.67 13.1604 80.5646 12.9729 80.3771C12.7854 80.1895 12.68 79.9352 12.68 79.67C12.68 79.4048 12.7854 79.1504 12.9729 78.9629C13.1604 78.7753 13.4148 78.67 13.68 78.67C14.8558 78.67 15.9837 79.1364 16.816 79.9669C17.6484 80.7974 18.1173 81.9241 18.12 83.1V95.71C18.0987 96.0429 18.1458 96.3766 18.2585 96.6906C18.3712 97.0045 18.5471 97.292 18.7753 97.5353C19.0035 97.7786 19.2792 97.9726 19.5853 98.1051C19.8914 98.2377 20.2214 98.3061 20.555 98.3061C20.8886 98.3061 21.2186 98.2377 21.5247 98.1051C21.8308 97.9726 22.1065 97.7786 22.3347 97.5353C22.5629 97.292 22.7388 97.0045 22.8515 96.6906C22.9642 96.3766 23.0113 96.0429 22.99 95.71V72.97C22.99 72.7048 23.0954 72.4504 23.2829 72.2629C23.4704 72.0753 23.7248 71.97 23.99 71.97C24.2552 71.97 24.5095 72.0753 24.6971 72.2629C24.8846 72.4504 24.99 72.7048 24.99 72.97V95.8C24.9665 96.9601 24.4897 98.065 23.6617 98.878C22.8338 99.691 21.7204 100.148 20.56 100.15Z" fill="#0363A6"/>
<path id="Vector_7" d="M80.12 57.42C77.8538 57.4251 75.6419 56.7262 73.79 55.42C73.5944 55.2599 73.4668 55.0316 73.4328 54.7811C73.3987 54.5306 73.4608 54.2765 73.6065 54.0699C73.7523 53.8634 73.9708 53.7197 74.2182 53.6677C74.4656 53.6158 74.7235 53.6595 74.94 53.7901C76.4651 54.8357 78.2709 55.3954 80.12 55.3954C81.9691 55.3954 83.775 54.8357 85.3 53.7901C85.407 53.7139 85.5281 53.6595 85.6561 53.6301C85.7841 53.6007 85.9166 53.5968 86.0462 53.6186C86.1757 53.6405 86.2997 53.6876 86.411 53.7573C86.5224 53.827 86.6189 53.918 86.695 54.0251C86.7712 54.1321 86.8255 54.2531 86.8549 54.3811C86.8843 54.5091 86.8882 54.6417 86.8664 54.7712C86.8446 54.9008 86.7975 55.0247 86.7277 55.136C86.658 55.2474 86.5671 55.3439 86.46 55.42C84.6036 56.7246 82.389 57.4232 80.12 57.42Z" fill="#0363A6"/>
<path id="Vector_8" d="M90 42.75C89.7348 42.75 89.4804 42.6446 89.2929 42.4571C89.1054 42.2695 89 42.0152 89 41.75V39.89C88.6466 37.7917 87.5612 35.8866 85.9365 34.5126C84.3118 33.1386 82.2528 32.3848 80.125 32.3848C77.9972 32.3848 75.9382 33.1386 74.3135 34.5126C72.6887 35.8866 71.6034 37.7917 71.25 39.89V41.75C71.25 42.0152 71.1446 42.2695 70.9571 42.4571C70.7695 42.6446 70.5152 42.75 70.25 42.75C69.9848 42.75 69.7304 42.6446 69.5429 42.4571C69.3554 42.2695 69.25 42.0152 69.25 41.75V39.81C69.2447 39.7568 69.2447 39.7032 69.25 39.65C69.6591 37.0625 70.9783 34.706 72.97 33.0045C74.9618 31.3029 77.4954 30.368 80.115 30.368C82.7346 30.368 85.2682 31.3029 87.2599 33.0045C89.2517 34.706 90.5708 37.0625 90.98 39.65C90.9849 39.7032 90.9849 39.7567 90.98 39.81V41.75C90.98 42.0118 90.8774 42.2631 90.6942 42.4501C90.511 42.6371 90.2617 42.7447 90 42.75Z" fill="#0363A6"/>
<path id="Vector_9" d="M70.89 64.3C69.7125 64.3 68.5831 63.8322 67.7504 62.9996C66.9178 62.1669 66.45 61.0376 66.45 59.86V45.18C66.5042 44.0402 66.995 42.965 67.8208 42.1775C68.6466 41.39 69.7439 40.9507 70.885 40.9507C72.0261 40.9507 73.1234 41.39 73.9492 42.1775C74.775 42.965 75.2659 44.0402 75.32 45.18V51.66V59.9C75.3095 61.0689 74.8384 62.1865 74.009 63.0103C73.1797 63.834 72.0589 64.2974 70.89 64.3ZM70.89 42.71C70.5701 42.7087 70.253 42.7706 69.957 42.8921C69.6611 43.0137 69.392 43.1924 69.1653 43.4182C68.9386 43.644 68.7587 43.9123 68.6359 44.2078C68.5132 44.5033 68.45 44.8201 68.45 45.14V59.9C68.45 60.5472 68.7071 61.1678 69.1647 61.6254C69.6223 62.083 70.2429 62.34 70.89 62.34C71.5371 62.34 72.1578 62.083 72.6154 61.6254C73.0729 61.1678 73.33 60.5472 73.33 59.9V51.3V45.24C73.3381 44.9142 73.2805 44.5901 73.1607 44.287C73.0409 43.9839 72.8615 43.708 72.6329 43.4756C72.4043 43.2433 72.1313 43.0594 71.8302 42.9347C71.5291 42.8101 71.2059 42.7472 70.88 42.75L70.89 42.71Z" fill="#0363A6"/>
<path id="Vector_10" d="M89.37 64.3C88.1932 64.2973 87.0654 63.8287 86.2333 62.9966C85.4012 62.1645 84.9326 61.0367 84.93 59.86V45.18C84.93 44.0024 85.3978 42.8731 86.2305 42.0404C87.0631 41.2078 88.1924 40.74 89.37 40.74C90.5476 40.74 91.6769 41.2078 92.5096 42.0404C93.3422 42.8731 93.81 44.0024 93.81 45.18V51.66V59.9C93.7995 61.0706 93.327 62.1897 92.4955 63.0137C91.664 63.8377 90.5407 64.3 89.37 64.3ZM89.37 42.71C88.7246 42.71 88.1055 42.9657 87.6482 43.4211C87.1909 43.8765 86.9326 44.4946 86.93 45.14V59.9C86.93 60.5471 87.1871 61.1677 87.6447 61.6253C88.1022 62.0829 88.7229 62.34 89.37 62.34C90.0171 62.34 90.6377 62.0829 91.0953 61.6253C91.5529 61.1677 91.81 60.5471 91.81 59.9V45.19C91.81 44.8687 91.7465 44.5506 91.6233 44.2539C91.5 43.9572 91.3194 43.6878 91.0918 43.4611C90.8642 43.2344 90.594 43.0549 90.2968 42.9328C89.9996 42.8108 89.6813 42.7487 89.36 42.75L89.37 42.71Z" fill="#0363A6"/>
<path id="Vector_11" d="M73.25 100.15C72.0896 100.148 70.9762 99.691 70.1483 98.878C69.3203 98.065 68.8435 96.9601 68.82 95.8V72.97C68.82 72.7048 68.9254 72.4504 69.1129 72.2629C69.3005 72.0753 69.5548 71.97 69.82 71.97C70.0852 71.97 70.3396 72.0753 70.5271 72.2629C70.7146 72.4504 70.82 72.7048 70.82 72.97V95.71C70.7987 96.0429 70.8458 96.3766 70.9585 96.6906C71.0712 97.0045 71.2471 97.292 71.4753 97.5353C71.7035 97.7786 71.9792 97.9726 72.2853 98.1051C72.5914 98.2377 72.9214 98.3061 73.255 98.3061C73.5886 98.3061 73.9186 98.2377 74.2247 98.1051C74.5308 97.9726 74.8065 97.7786 75.0347 97.5353C75.2629 97.292 75.4388 97.0045 75.5515 96.6906C75.6642 96.3766 75.7113 96.0429 75.69 95.71V83.1C75.6926 81.9259 76.1602 80.8006 76.9904 79.9704C77.8206 79.1402 78.9459 78.6726 80.12 78.67C80.3852 78.67 80.6396 78.7753 80.8271 78.9629C81.0146 79.1504 81.12 79.4048 81.12 79.67C81.12 79.9352 81.0146 80.1895 80.8271 80.3771C80.6396 80.5646 80.3852 80.67 80.12 80.67C79.4755 80.67 78.8574 80.926 78.4017 81.3817C77.946 81.8374 77.69 82.4555 77.69 83.1V95.71C77.69 96.8875 77.2222 98.0169 76.3895 98.8495C75.5569 99.6822 74.4276 100.15 73.25 100.15Z" fill="#0363A6"/>
<path id="Vector_12" d="M87 100.15C85.8224 100.15 84.6931 99.6823 83.8605 98.8496C83.0278 98.0169 82.56 96.8876 82.56 95.7101V83.1001C82.56 82.7801 82.4968 82.4633 82.3741 82.1678C82.2513 81.8723 82.0714 81.604 81.8447 81.3782C81.618 81.1525 81.349 80.9737 81.053 80.8521C80.757 80.7306 80.4399 80.6687 80.12 80.67C79.8548 80.67 79.6004 80.5647 79.4129 80.3772C79.2254 80.1896 79.12 79.9353 79.12 79.67C79.12 79.4048 79.2254 79.1505 79.4129 78.9629C79.6004 78.7754 79.8548 78.67 80.12 78.67C81.2958 78.67 82.4237 79.1365 83.256 79.967C84.0884 80.7975 84.5573 81.9242 84.56 83.1001V95.7101C84.5387 96.0429 84.5858 96.3767 84.6985 96.6906C84.8112 97.0046 84.9871 97.2921 85.2153 97.5354C85.4435 97.7787 85.7192 97.9726 86.0253 98.1052C86.3314 98.2378 86.6614 98.3062 86.995 98.3062C87.3286 98.3062 87.6586 98.2378 87.9647 98.1052C88.2708 97.9726 88.5465 97.7787 88.7747 97.5354C89.0029 97.2921 89.1788 97.0046 89.2915 96.6906C89.4042 96.3767 89.4513 96.0429 89.43 95.7101V63.3C89.43 63.0348 89.5354 62.7805 89.7229 62.5929C89.9104 62.4054 90.1648 62.3 90.43 62.3C90.6952 62.3 90.9495 62.4054 91.1371 62.5929C91.3246 62.7805 91.43 63.0348 91.43 63.3V95.8C91.4065 96.9602 90.9297 98.0651 90.1017 98.8781C89.2738 99.6911 88.1604 100.148 87 100.15Z" fill="#0363A6"/>
<path id="Vector_13" d="M47.05 36.69C43.9921 36.6982 41.0074 35.7546 38.51 33.99C38.4023 33.9145 38.3106 33.8185 38.24 33.7075C38.1694 33.5965 38.1213 33.4727 38.0986 33.3432C38.0758 33.2137 38.0788 33.0809 38.1074 32.9525C38.1359 32.8242 38.1895 32.7026 38.265 32.595C38.3405 32.4873 38.4365 32.3955 38.5475 32.3249C38.6585 32.2543 38.7822 32.2063 38.9118 32.1836C39.0413 32.1608 39.1741 32.1638 39.3025 32.1923C39.4308 32.2209 39.5523 32.2745 39.66 32.35C41.8255 33.8721 44.4081 34.6889 47.055 34.6889C49.702 34.6889 52.2845 33.8721 54.45 32.35C54.5577 32.2745 54.6792 32.2209 54.8076 32.1923C54.936 32.1638 55.0687 32.1608 55.1983 32.1836C55.3278 32.2063 55.4516 32.2543 55.5626 32.3249C55.6736 32.3955 55.7695 32.4873 55.845 32.595C55.9205 32.7026 55.9741 32.8242 56.0026 32.9525C56.0312 33.0809 56.0342 33.2137 56.0114 33.3432C55.9887 33.4727 55.9407 33.5965 55.8701 33.7075C55.7995 33.8185 55.7077 33.9145 55.6 33.99C53.0989 35.7548 50.111 36.6983 47.05 36.69Z" fill="#0363A6"/>
<path id="Vector_14" d="M60.75 17.52C60.4848 17.52 60.2304 17.4146 60.0429 17.2271C59.8554 17.0395 59.75 16.7852 59.75 16.52V12.71C59.2373 9.71977 57.6839 7.00714 55.3644 5.05157C53.045 3.096 50.1088 2.02342 47.075 2.02342C44.0412 2.02342 41.105 3.096 38.7856 5.05157C36.4661 7.00714 34.9128 9.71977 34.4 12.71V16.52C34.4 16.7852 34.2947 17.0395 34.1071 17.2271C33.9196 17.4146 33.6652 17.52 33.4 17.52C33.1348 17.52 32.8804 17.4146 32.6929 17.2271C32.5053 17.0395 32.4 16.7852 32.4 16.52V12.63C32.3951 12.5767 32.3951 12.5232 32.4 12.4699C32.9692 8.99103 34.7567 5.82776 37.4431 3.54519C40.1295 1.26261 43.5398 0.00939941 47.065 0.00939941C50.5902 0.00939941 54.0006 1.26261 56.687 3.54519C59.3734 5.82776 61.1608 8.99103 61.73 12.4699C61.735 12.5232 61.735 12.5767 61.73 12.63V16.52C61.73 16.7817 61.6275 17.0331 61.4442 17.2201C61.261 17.4071 61.0117 17.5147 60.75 17.52Z" fill="#0363A6"/>
<path id="Vector_15" d="M46.91 31.38C46.056 31.38 45.237 31.0408 44.6331 30.4369C44.0292 29.833 43.69 29.014 43.69 28.16V23.04C43.6656 22.6014 43.7309 22.1624 43.8819 21.7499C44.0329 21.3374 44.2665 20.96 44.5684 20.6408C44.8702 20.3217 45.234 20.0675 45.6375 19.8937C46.041 19.72 46.4757 19.6304 46.915 19.6304C47.3543 19.6304 47.789 19.72 48.1924 19.8937C48.5959 20.0675 48.9597 20.3217 49.2616 20.6408C49.5635 20.96 49.7971 21.3374 49.9481 21.7499C50.0991 22.1624 50.1644 22.6014 50.14 23.04V24.23V28.16C50.1374 29.0149 49.7959 29.8339 49.1904 30.4375C48.585 31.0411 47.7649 31.38 46.91 31.38ZM46.91 21.81C46.5838 21.81 46.2709 21.9396 46.0403 22.1703C45.8096 22.4009 45.68 22.7138 45.68 23.04V28.16C45.7076 28.4658 45.8487 28.7502 46.0754 28.9573C46.302 29.1644 46.598 29.2792 46.905 29.2792C47.2121 29.2792 47.5079 29.1644 47.7346 28.9573C47.9613 28.7502 48.1023 28.4658 48.13 28.16V23.05C48.1313 22.8885 48.1008 22.7283 48.0402 22.5786C47.9796 22.4288 47.8901 22.2925 47.7768 22.1773C47.6635 22.0622 47.5287 21.9705 47.3799 21.9075C47.2312 21.8444 47.0715 21.8113 46.91 21.81Z" fill="#0363A6"/>
<path id="Vector_16" d="M34.27 47.42C32.7432 47.4174 31.2796 46.8097 30.2 45.73C29.1204 44.6504 28.5127 43.1869 28.51 41.66V29.66V21.3C28.51 19.7724 29.1169 18.3073 30.1971 17.2271C31.2773 16.1469 32.7424 15.54 34.27 15.54C35.7977 15.54 37.2627 16.1469 38.343 17.2271C39.4232 18.3073 40.03 19.7724 40.03 21.3V30.3V41.71C40.0142 43.2282 39.4007 44.6789 38.3225 45.7478C37.2443 46.8166 35.7882 47.4175 34.27 47.42ZM34.27 17.52C33.2736 17.5227 32.3188 17.9197 31.6142 18.6242C30.9096 19.3288 30.5126 20.2836 30.51 21.28V30.28V41.69C30.4837 42.1994 30.5613 42.7089 30.7382 43.1873C30.915 43.6658 31.1874 44.1033 31.5386 44.4732C31.8899 44.843 32.3127 45.1376 32.7814 45.3388C33.2501 45.5401 33.7549 45.6439 34.265 45.6439C34.7751 45.6439 35.2798 45.5401 35.7485 45.3388C36.2172 45.1376 36.6401 44.843 36.9914 44.4732C37.3427 44.1033 37.615 43.6658 37.7918 43.1873C37.9686 42.7089 38.0463 42.1994 38.02 41.69V29.69V21.28C38.0174 20.2819 37.619 19.3255 36.9123 18.6207C36.2056 17.9158 35.2481 17.52 34.25 17.52H34.27Z" fill="#0363A6"/>
<path id="Vector_17" d="M59.86 47.42C58.3332 47.4174 56.8696 46.8097 55.79 45.73C54.7103 44.6504 54.1026 43.1869 54.1 41.66V29.66V21.3C54.1 19.7724 54.7068 18.3073 55.787 17.2271C56.8673 16.1469 58.3323 15.54 59.86 15.54C61.3876 15.54 62.8527 16.1469 63.9329 17.2271C65.0131 18.3073 65.62 19.7724 65.62 21.3V30.3V41.71C65.6042 43.2282 64.9907 44.6789 63.9125 45.7478C62.8343 46.8166 61.3782 47.4175 59.86 47.42ZM59.86 17.52C58.8636 17.5227 57.9088 17.9197 57.2042 18.6242C56.4997 19.3288 56.1026 20.2836 56.1 21.28V30.28V41.69C56.0737 42.1994 56.1514 42.7089 56.3282 43.1873C56.505 43.6658 56.7773 44.1033 57.1286 44.4732C57.4799 44.843 57.9028 45.1376 58.3715 45.3388C58.8402 45.5401 59.3449 45.6439 59.855 45.6439C60.3651 45.6439 60.8699 45.5401 61.3386 45.3388C61.8073 45.1376 62.2302 44.843 62.5814 44.4732C62.9327 44.1033 63.205 43.6658 63.3818 43.1873C63.5587 42.7089 63.6363 42.1994 63.61 41.69V29.69V21.28C63.6073 20.2819 63.209 19.3255 62.5023 18.6207C61.7955 17.9158 60.8382 17.52 59.84 17.52H59.86Z" fill="#0363A6"/>
<path id="Vector_18" d="M37.54 104.3C36.0329 104.3 34.5857 103.71 33.5089 102.656C32.4321 101.601 31.8114 100.167 31.78 98.66V46.42C31.78 46.1548 31.8853 45.9005 32.0729 45.7129C32.2604 45.5254 32.5148 45.42 32.78 45.42C33.0452 45.42 33.2996 45.5254 33.4871 45.7129C33.6747 45.9005 33.78 46.1548 33.78 46.42V98.53C33.78 99.5273 34.1761 100.484 34.8813 101.189C35.5864 101.894 36.5428 102.29 37.54 102.29C38.5372 102.29 39.4936 101.894 40.1987 101.189C40.9039 100.484 41.3 99.5273 41.3 98.53V73.78C41.3026 72.2559 41.9093 70.7949 42.9871 69.7171C44.0648 68.6393 45.5258 68.0327 47.05 68.03C47.3152 68.03 47.5695 68.1354 47.7571 68.3229C47.9446 68.5105 48.05 68.7648 48.05 69.03C48.05 69.2953 47.9446 69.5496 47.7571 69.7372C47.5695 69.9247 47.3152 70.03 47.05 70.03C46.0554 70.03 45.1016 70.4251 44.3984 71.1284C43.6951 71.8317 43.3 72.7855 43.3 73.78V98.53C43.3 100.059 42.6934 101.525 41.6135 102.607C40.5336 103.688 39.0685 104.297 37.54 104.3Z" fill="#0363A6"/>
<path id="Vector_19" d="M56.57 104.3C55.0441 104.3 53.5805 103.695 52.5006 102.617C51.4207 101.538 50.8126 100.076 50.81 98.55V73.78C50.81 73.2867 50.7127 72.7983 50.5236 72.3427C50.3345 71.887 50.0574 71.4732 49.7081 71.1249C49.3589 70.7765 48.9443 70.5005 48.4882 70.3126C48.032 70.1248 47.5433 70.0287 47.05 70.03C46.7848 70.03 46.5304 69.9247 46.3429 69.7372C46.1554 69.5496 46.05 69.2953 46.05 69.03C46.05 68.7648 46.1554 68.5105 46.3429 68.3229C46.5304 68.1354 46.7848 68.03 47.05 68.03C48.5759 68.03 50.0395 68.6355 51.1194 69.7136C52.1993 70.7916 52.8073 72.2541 52.81 73.78V98.53C52.81 99.5273 53.2061 100.484 53.9113 101.189C54.6164 101.894 55.5728 102.29 56.57 102.29C57.5672 102.29 58.5236 101.894 59.2287 101.189C59.9338 100.484 60.33 99.5273 60.33 98.53V46.42C60.33 46.1548 60.4353 45.9005 60.6229 45.7129C60.8104 45.5254 61.0648 45.42 61.33 45.42C61.5952 45.42 61.8496 45.5254 62.0371 45.7129C62.2246 45.9005 62.33 46.1548 62.33 46.42V98.64C62.3012 100.149 61.682 101.587 60.6052 102.646C59.5283 103.704 58.0797 104.298 56.57 104.3Z" fill="#0363A6"/>
</g>
<defs>
<clipPath id="clip0_2622_2611">
<rect width="93.81" height="104.28" fill="white"/>
</clipPath>
</defs>
</svg>
