<svg  viewBox="0 0 48 72" fill="currentColor" xmlns="http://www.w3.org/2000/svg">
<g id="&#229;&#156;&#150;&#229;&#177;&#164;_1" clipPath="url(#clip0_2622_2436)">
<path id="Vector" d="M47.1675 72H0.816188C0.599721 72 0.39212 71.9148 0.239055 71.7632C0.0859903 71.6115 0 71.4058 0 71.1914V0.840974C0 0.626513 0.0859903 0.420848 0.239055 0.269201C0.39212 0.117555 0.599721 0.0323486 0.816188 0.0323486H47.1675C47.384 0.0323486 47.5916 0.117555 47.7446 0.269201C47.8977 0.420848 47.9837 0.626513 47.9837 0.840974V71.1914C47.9837 71.4058 47.8977 71.6115 47.7446 71.7632C47.5916 71.9148 47.384 72 47.1675 72ZM1.62421 70.3828H46.3513V1.6496H1.63238L1.62421 70.3828Z" />
<path id="Vector_2" d="M33.382 72C33.1655 72 32.9579 71.9148 32.8048 71.7632C32.6518 71.6115 32.5658 71.4058 32.5658 71.1914V46.4636H15.4258V71.1914C15.4258 71.4058 15.3398 71.6115 15.1868 71.7632C15.0337 71.9148 14.8261 72 14.6096 72C14.3932 72 14.1856 71.9148 14.0325 71.7632C13.8794 71.6115 13.7935 71.4058 13.7935 71.1914V45.655C13.7935 45.4405 13.8794 45.2349 14.0325 45.0832C14.1856 44.9316 14.3932 44.8464 14.6096 44.8464H33.382C33.5984 44.8464 33.806 44.9316 33.9591 45.0832C34.1122 45.2349 34.1981 45.4405 34.1981 45.655V71.1914C34.1981 71.2976 34.177 71.4027 34.136 71.5008C34.095 71.5989 34.0349 71.6881 33.9591 71.7632C33.8833 71.8383 33.7933 71.8978 33.6943 71.9385C33.5953 71.9791 33.4891 72 33.382 72Z" />
<path id="Vector_3" d="M13.3855 18.9622H8.69241C8.47594 18.9622 8.26834 18.877 8.11528 18.7254C7.96221 18.5738 7.87622 18.3681 7.87622 18.1536V10.0188C7.87622 9.80437 7.96221 9.5987 8.11528 9.44706C8.26834 9.29541 8.47594 9.21021 8.69241 9.21021H13.3855C13.602 9.21021 13.8096 9.29541 13.9626 9.44706C14.1157 9.5987 14.2017 9.80437 14.2017 10.0188V18.1536C14.2017 18.3681 14.1157 18.5738 13.9626 18.7254C13.8096 18.877 13.602 18.9622 13.3855 18.9622ZM9.5086 17.345H12.5693V10.8275H9.5086V17.345Z" />
<path id="Vector_4" d="M26.3465 18.9622H21.6453C21.4288 18.9622 21.2212 18.877 21.0682 18.7254C20.9151 18.5738 20.8291 18.3681 20.8291 18.1536V10.0188C20.8291 9.80437 20.9151 9.5987 21.0682 9.44706C21.2212 9.29541 21.4288 9.21021 21.6453 9.21021H26.3465C26.563 9.21021 26.7706 9.29541 26.9237 9.44706C27.0767 9.5987 27.1627 9.80437 27.1627 10.0188V18.1536C27.1627 18.3681 27.0767 18.5738 26.9237 18.7254C26.7706 18.877 26.563 18.9622 26.3465 18.9622ZM22.4615 17.345H25.5303V10.8275H22.4615V17.345Z" />
<path id="Vector_5" d="M39.2996 18.9622H34.6065C34.39 18.9622 34.1824 18.877 34.0293 18.7254C33.8763 18.5738 33.7903 18.3681 33.7903 18.1536V10.0188C33.7903 9.80437 33.8763 9.5987 34.0293 9.44706C34.1824 9.29541 34.39 9.21021 34.6065 9.21021H39.2996C39.516 9.21021 39.7236 9.29541 39.8767 9.44706C40.0297 9.5987 40.1157 9.80437 40.1157 10.0188V18.1536C40.1157 18.3681 40.0297 18.5738 39.8767 18.7254C39.7236 18.877 39.516 18.9622 39.2996 18.9622ZM35.4227 17.345H38.4834V10.8275H35.4227V17.345Z" />
<path id="Vector_6" d="M13.3855 33.4932H8.69241C8.47594 33.4932 8.26834 33.408 8.11528 33.2564C7.96221 33.1048 7.87622 32.8991 7.87622 32.6846V24.5498C7.87622 24.3354 7.96221 24.1297 8.11528 23.9781C8.26834 23.8264 8.47594 23.7412 8.69241 23.7412H13.3855C13.602 23.7412 13.8096 23.8264 13.9626 23.9781C14.1157 24.1297 14.2017 24.3354 14.2017 24.5498V32.6846C14.2017 32.8991 14.1157 33.1048 13.9626 33.2564C13.8096 33.408 13.602 33.4932 13.3855 33.4932ZM9.5086 31.876H12.5693V25.3585H9.5086V31.876Z" />
<path id="Vector_7" d="M26.3465 33.4932H21.6453C21.4288 33.4932 21.2212 33.408 21.0682 33.2564C20.9151 33.1048 20.8291 32.8991 20.8291 32.6846V24.5498C20.8291 24.3354 20.9151 24.1297 21.0682 23.9781C21.2212 23.8264 21.4288 23.7412 21.6453 23.7412H26.3465C26.563 23.7412 26.7706 23.8264 26.9237 23.9781C27.0767 24.1297 27.1627 24.3354 27.1627 24.5498V32.6846C27.1627 32.8991 27.0767 33.1048 26.9237 33.2564C26.7706 33.408 26.563 33.4932 26.3465 33.4932ZM22.4615 31.876H25.5303V25.3585H22.4615V31.876Z" />
<path id="Vector_8" d="M39.2996 33.4932H34.6065C34.39 33.4932 34.1824 33.408 34.0293 33.2564C33.8763 33.1048 33.7903 32.8991 33.7903 32.6846V24.5498C33.7903 24.3354 33.8763 24.1297 34.0293 23.9781C34.1824 23.8264 34.39 23.7412 34.6065 23.7412H39.2996C39.516 23.7412 39.7236 23.8264 39.8767 23.9781C40.0297 24.1297 40.1157 24.3354 40.1157 24.5498V32.6846C40.1157 32.8991 40.0297 33.1048 39.8767 33.2564C39.7236 33.408 39.516 33.4932 39.2996 33.4932ZM35.4227 31.876H38.4834V25.3585H35.4227V31.876Z" />
</g>
<defs>
<clipPath id="clip0_2622_2436">
<rect width="48" height="72" fill="white"/>
</clipPath>
</defs>
</svg>
