<svg width="321" height="325" viewBox="0 0 321 325" fill="none" xmlns="http://www.w3.org/2000/svg">
<path d="M163.761 312.552H164.749V320.053H163.761V312.552ZM159.965 314.463H168.402V315.36H159.965V314.463ZM165.022 314.814C165.802 316.374 167.323 317.947 168.74 318.727C168.532 318.909 168.22 319.26 168.051 319.494C166.634 318.584 165.126 316.829 164.268 315.1L165.022 314.814ZM163.54 314.749L164.307 315.035C163.436 316.829 161.824 318.571 160.277 319.468C160.108 319.234 159.809 318.896 159.601 318.701C161.122 317.947 162.721 316.335 163.54 314.749ZM161.863 309.575V311.954H166.712V309.575H161.863ZM160.94 308.704H167.674V312.838H160.94V308.704ZM159.588 308.119L160.511 308.405C159.627 310.602 158.262 312.786 156.845 314.229C156.741 314.008 156.468 313.501 156.286 313.267C157.586 312.032 158.834 310.095 159.588 308.119ZM158.236 311.473L159.159 310.55L159.172 310.563V320.014H158.236V311.473ZM175.227 314.71V315.568H179.647V314.71H175.227ZM175.227 313.228V314.073H179.647V313.228H175.227ZM174.343 312.578H180.557V316.231H174.343V312.578ZM176.943 308.08H177.879V309.601H176.943V308.08ZM176.943 316.075H177.879V320.04H176.943V316.075ZM173.979 309.042H181.129V309.835H173.979V309.042ZM173.472 311.044H181.415V311.85H173.472V311.044ZM173.355 317.193H181.467V317.999H173.355V317.193ZM178.88 309.666L179.816 309.874C179.556 310.368 179.309 310.888 179.088 311.239L178.282 311.057C178.477 310.667 178.75 310.069 178.88 309.666ZM175.097 309.874L175.903 309.705C176.137 310.121 176.332 310.693 176.41 311.057L175.552 311.278C175.5 310.888 175.305 310.316 175.097 309.874ZM170.04 308.652H173.108V309.536H170.924V320.053H170.04V308.652ZM172.809 308.652H172.978L173.134 308.613L173.758 308.99C173.381 310.056 172.9 311.395 172.458 312.435C173.42 313.514 173.628 314.424 173.628 315.23C173.628 315.932 173.485 316.478 173.121 316.738C172.939 316.855 172.705 316.933 172.445 316.972C172.185 316.998 171.86 316.998 171.561 316.985C171.548 316.751 171.47 316.374 171.327 316.127C171.626 316.153 171.873 316.166 172.081 316.14C172.237 316.14 172.38 316.101 172.484 316.023C172.692 315.88 172.757 315.529 172.757 315.139C172.757 314.437 172.523 313.553 171.587 312.539C172.055 311.356 172.536 309.809 172.809 308.912V308.652ZM193.089 308.522L193.843 309.263C192.114 309.809 189.514 310.212 187.278 310.459C187.239 310.238 187.109 309.887 187.005 309.666C189.163 309.432 191.685 308.99 193.089 308.522ZM186.732 309.406L187.681 309.718V317.349H186.732V309.406ZM185.861 317.18C187.096 316.985 188.916 316.673 190.697 316.335L190.749 317.219C189.098 317.531 187.369 317.856 186.069 318.09L185.861 317.18ZM187.278 312.643H194.467V313.54H187.278V312.643ZM190.281 309.679H191.269C191.282 314.593 192.374 318.597 193.492 318.584C193.752 318.584 193.882 318.064 193.934 316.79C194.142 316.998 194.48 317.193 194.714 317.284C194.571 319.052 194.233 319.546 193.401 319.546C191.438 319.546 190.385 314.905 190.281 309.679ZM186.251 318.831H191.789V319.702H186.251V318.831ZM185.432 308.132L186.355 308.418C185.497 310.628 184.158 312.825 182.754 314.281C182.65 314.06 182.377 313.54 182.195 313.319C183.482 312.058 184.704 310.108 185.432 308.132ZM184.08 311.486L184.99 310.563L185.016 310.576V320.027H184.08V311.486Z" fill="black"/>
<path d="M4.628 151.297H12.48V152.129H4.628V151.297ZM6.149 148.554V149.607H10.946V148.554H6.149ZM6.149 146.786V147.839H10.946V146.786H6.149ZM5.291 146.032H11.843V150.361H5.291V146.032ZM8.034 146.305H8.97V154.04H8.034V146.305ZM5.863 143.25V144.615H7.319V143.25H5.863ZM5.07 142.561H8.151V145.304H5.07V142.561ZM9.698 143.25V144.615H11.219V143.25H9.698ZM8.879 142.561H12.077V145.304H8.879V142.561ZM3.536 148.164H4.459C4.459 148.164 4.446 148.463 4.433 148.593C4.277 151.934 4.121 153.182 3.757 153.624C3.523 153.897 3.276 153.988 2.899 154.014C2.561 154.053 1.937 154.04 1.3 154.014C1.274 153.728 1.17 153.325 1.001 153.052C1.651 153.117 2.275 153.117 2.522 153.117C2.743 153.117 2.847 153.091 2.977 152.974C3.25 152.688 3.393 151.492 3.536 148.32V148.164ZM0.988 145.551H1.859C1.755 146.864 1.586 148.567 1.443 149.607L0.572 149.464C0.728 148.45 0.91 146.799 0.988 145.551ZM1.157 148.164H3.887V149.022H1.066L1.157 148.164ZM1.248 145.551H3.471V143.562H0.754V142.691H4.407V146.448H1.248V145.551ZM15.223 142.08H16.211V154.027H15.223V142.08ZM14.027 144.55L14.768 144.667C14.703 145.72 14.469 147.228 14.118 148.164L13.351 147.904C13.702 147.033 13.936 145.603 14.027 144.55ZM16.302 144.472L16.978 144.173C17.381 144.875 17.784 145.798 17.927 146.357L17.199 146.721C17.056 146.149 16.666 145.2 16.302 144.472ZM18.954 142.691L19.903 142.847C19.565 144.745 18.993 146.591 18.265 147.813C18.07 147.67 17.628 147.462 17.381 147.358C18.148 146.214 18.668 144.446 18.954 142.691ZM18.967 144.836H25.012V145.772H18.668L18.967 144.836ZM21.073 142.132H22.048V153.182H21.073V142.132ZM18.304 148.476H24.726V149.399H18.304V148.476ZM17.329 152.649H25.324V153.585H17.329V152.649ZM31.993 142.106H32.981V148.697C32.981 149.308 32.851 149.594 32.409 149.763C31.98 149.919 31.252 149.945 30.16 149.945C30.121 149.659 29.965 149.23 29.809 148.944C30.667 148.97 31.46 148.957 31.694 148.957C31.915 148.944 31.993 148.892 31.993 148.684V142.106ZM34.814 144.056L35.685 143.614C36.816 144.914 38.051 146.695 38.545 147.904L37.57 148.424C37.115 147.241 35.932 145.408 34.814 144.056ZM35.672 147.605L36.686 147.917C35.451 151.583 32.799 153.325 27.976 154.079C27.885 153.78 27.664 153.364 27.456 153.117C32.058 152.519 34.554 150.946 35.672 147.605ZM29.107 143.731L30.173 143.991C29.549 145.577 28.522 147.41 27.352 148.593C27.131 148.411 26.754 148.138 26.494 148.008C27.625 146.903 28.626 145.161 29.107 143.731Z" fill="black"/>
<line x1="49" y1="147.5" x2="320" y2="147.5" stroke="black"/>
<line x1="175.5" y1="1" x2="175.5" y2="294" stroke="black"/>
<g clip-path="url(#clip0_218_65)">
<path d="M243.767 126H217.562C217.44 126 217.323 125.951 217.236 125.865C217.15 125.779 217.101 125.662 217.101 125.539V85.4788C217.101 85.3567 217.15 85.2395 217.236 85.1532C217.323 85.0668 217.44 85.0183 217.562 85.0183H243.767C243.889 85.0183 244.007 85.0668 244.093 85.1532C244.18 85.2395 244.228 85.3567 244.228 85.4788V125.539C244.228 125.662 244.18 125.779 244.093 125.865C244.007 125.951 243.889 126 243.767 126ZM218.024 125.079H243.306V85.9392H218.024V125.079Z" fill="#9AA7B9"/>
<path d="M235.972 126C235.849 126 235.732 125.952 235.646 125.865C235.559 125.779 235.51 125.662 235.51 125.54V111.459H225.824V125.54C225.824 125.662 225.775 125.779 225.689 125.865C225.602 125.952 225.485 126 225.363 126C225.24 126 225.123 125.952 225.036 125.865C224.95 125.779 224.901 125.662 224.901 125.54V110.998C224.901 110.876 224.95 110.759 225.036 110.672C225.123 110.586 225.24 110.538 225.363 110.538H235.972C236.094 110.538 236.211 110.586 236.298 110.672C236.384 110.759 236.433 110.876 236.433 110.998V125.54C236.433 125.6 236.421 125.66 236.398 125.716C236.375 125.772 236.341 125.822 236.298 125.865C236.255 125.908 236.204 125.942 236.148 125.965C236.092 125.988 236.032 126 235.972 126Z" fill="#9AA7B9"/>
<path d="M239.205 95.7981H236.553C236.431 95.7981 236.313 95.7496 236.227 95.6632C236.14 95.5769 236.092 95.4597 236.092 95.3376V90.7329C236.092 90.6108 236.14 90.4937 236.227 90.4073C236.313 90.321 236.431 90.2725 236.553 90.2725H239.205C239.328 90.2725 239.445 90.321 239.531 90.4073C239.618 90.4937 239.666 90.6108 239.666 90.7329V95.3376C239.666 95.4597 239.618 95.5769 239.531 95.6632C239.445 95.7496 239.328 95.7981 239.205 95.7981ZM237.014 94.8771H238.744V91.1934H237.014V94.8771Z" fill="#9AA7B9"/>
<path d="M231.991 95.7981H229.339C229.216 95.7981 229.099 95.7496 229.012 95.6632C228.926 95.5769 228.877 95.4597 228.877 95.3376V90.7329C228.877 90.6108 228.926 90.4937 229.012 90.4073C229.099 90.321 229.216 90.2725 229.339 90.2725H231.991C232.113 90.2725 232.231 90.321 232.317 90.4073C232.404 90.4937 232.452 90.6108 232.452 90.7329V95.3376C232.452 95.4597 232.404 95.5769 232.317 95.6632C232.231 95.7496 232.113 95.7981 231.991 95.7981ZM229.8 94.8771H231.53V91.1934H229.8V94.8771Z" fill="#9AA7B9"/>
<path d="M224.777 95.7981H222.124C222.002 95.7981 221.885 95.7496 221.798 95.6632C221.712 95.5769 221.663 95.4597 221.663 95.3376V90.7329C221.663 90.6108 221.712 90.4937 221.798 90.4073C221.885 90.321 222.002 90.2725 222.124 90.2725H224.777C224.899 90.2725 225.016 90.321 225.103 90.4073C225.189 90.4937 225.238 90.6108 225.238 90.7329V95.3376C225.238 95.4597 225.189 95.5769 225.103 95.6632C225.016 95.7496 224.899 95.7981 224.777 95.7981ZM222.586 94.8771H224.315V91.1934H222.586V94.8771Z" fill="#9AA7B9"/>
<path d="M239.205 104.073H236.553C236.431 104.073 236.313 104.024 236.227 103.938C236.14 103.851 236.092 103.734 236.092 103.612V98.9798C236.092 98.8576 236.14 98.7405 236.227 98.6542C236.313 98.5678 236.431 98.5193 236.553 98.5193H239.205C239.328 98.5193 239.445 98.5678 239.531 98.6542C239.618 98.7405 239.666 98.8576 239.666 98.9798V103.612C239.666 103.734 239.618 103.851 239.531 103.938C239.445 104.024 239.328 104.073 239.205 104.073ZM237.014 103.152H238.744V99.4402H237.014V103.152Z" fill="#9AA7B9"/>
<path d="M231.991 104.073H229.339C229.216 104.073 229.099 104.024 229.012 103.938C228.926 103.851 228.877 103.734 228.877 103.612V98.9798C228.877 98.8576 228.926 98.7405 229.012 98.6542C229.099 98.5678 229.216 98.5193 229.339 98.5193H231.991C232.113 98.5193 232.231 98.5678 232.317 98.6542C232.404 98.7405 232.452 98.8576 232.452 98.9798V103.612C232.452 103.734 232.404 103.851 232.317 103.938C232.231 104.024 232.113 104.073 231.991 104.073ZM229.8 103.152H231.53V99.4402H229.8V103.152Z" fill="#9AA7B9"/>
<path d="M224.777 104.073H222.124C222.002 104.073 221.885 104.024 221.798 103.938C221.712 103.851 221.663 103.734 221.663 103.612V98.9798C221.663 98.8576 221.712 98.7405 221.798 98.6542C221.885 98.5678 222.002 98.5193 222.124 98.5193H224.777C224.899 98.5193 225.016 98.5678 225.103 98.6542C225.189 98.7405 225.238 98.8576 225.238 98.9798V103.612C225.238 103.734 225.189 103.851 225.103 103.938C225.016 104.024 224.899 104.073 224.777 104.073ZM222.586 103.152H224.315V99.4402H222.586V103.152Z" fill="#9AA7B9"/>
<path d="M212.89 104.073H210.237C210.115 104.073 209.998 104.024 209.911 103.938C209.825 103.851 209.776 103.734 209.776 103.612V98.9798C209.776 98.8576 209.825 98.7405 209.911 98.6542C209.998 98.5678 210.115 98.5193 210.237 98.5193H212.89C213.012 98.5193 213.129 98.5678 213.216 98.6542C213.302 98.7405 213.351 98.8576 213.351 98.9798V103.612C213.351 103.734 213.302 103.851 213.216 103.938C213.129 104.024 213.012 104.073 212.89 104.073ZM210.699 103.152H212.428V99.4402H210.699V103.152Z" fill="#9AA7B9"/>
<path d="M212.89 112.343H210.237C210.115 112.343 209.998 112.294 209.911 112.208C209.825 112.121 209.776 112.004 209.776 111.882V107.25C209.776 107.128 209.825 107.011 209.911 106.924C209.998 106.838 210.115 106.789 210.237 106.789H212.89C213.012 106.789 213.129 106.838 213.216 106.924C213.302 107.011 213.351 107.128 213.351 107.25V111.882C213.351 112.004 213.302 112.121 213.216 112.208C213.129 112.294 213.012 112.343 212.89 112.343ZM210.699 111.422H212.428V107.71H210.699V111.422Z" fill="#9AA7B9"/>
<path d="M205.676 112.343H203.023C202.901 112.343 202.784 112.294 202.697 112.208C202.611 112.121 202.562 112.004 202.562 111.882V107.25C202.562 107.128 202.611 107.011 202.697 106.924C202.784 106.838 202.901 106.789 203.023 106.789H205.676C205.798 106.789 205.915 106.838 206.002 106.924C206.088 107.011 206.137 107.128 206.137 107.25V111.882C206.137 112.004 206.088 112.121 206.002 112.208C205.915 112.294 205.798 112.343 205.676 112.343ZM203.484 111.422H205.214V107.71H203.484V111.422Z" fill="#9AA7B9"/>
<path d="M217.562 126H198.461C198.339 126 198.222 125.951 198.135 125.865C198.049 125.779 198 125.662 198 125.54V98.22C198 98.0979 198.049 97.9808 198.135 97.8944C198.222 97.808 198.339 97.7595 198.461 97.7595C198.584 97.7595 198.701 97.808 198.787 97.8944C198.874 97.9808 198.923 98.0979 198.923 98.22V125.079H217.562C217.685 125.079 217.802 125.128 217.889 125.214C217.975 125.3 218.024 125.417 218.024 125.54C218.024 125.662 217.975 125.779 217.889 125.865C217.802 125.951 217.685 126 217.562 126Z" fill="#9AA7B9"/>
<path d="M250.981 112.343H248.343C248.221 112.343 248.103 112.294 248.017 112.208C247.93 112.121 247.882 112.004 247.882 111.882V107.25C247.882 107.128 247.93 107.011 248.017 106.924C248.103 106.838 248.221 106.789 248.343 106.789H251C251.122 106.789 251.239 106.838 251.326 106.924C251.413 107.011 251.461 107.128 251.461 107.25V111.882C251.461 111.944 251.449 112.006 251.424 112.063C251.4 112.12 251.364 112.171 251.32 112.214C251.275 112.257 251.222 112.291 251.164 112.313C251.105 112.335 251.043 112.345 250.981 112.343ZM248.786 111.422H250.52V107.71H248.804L248.786 111.422Z" fill="#9AA7B9"/>
<path d="M255.539 126H236.442C236.32 126 236.202 125.951 236.116 125.865C236.029 125.779 235.981 125.662 235.981 125.539C235.981 125.417 236.029 125.3 236.116 125.214C236.202 125.128 236.32 125.079 236.442 125.079H255.077V103.925L248.158 101.199C248.045 101.155 247.953 101.068 247.904 100.956C247.855 100.845 247.852 100.719 247.895 100.605C247.917 100.548 247.95 100.497 247.992 100.453C248.034 100.409 248.085 100.374 248.141 100.349C248.196 100.325 248.256 100.312 248.317 100.311C248.378 100.309 248.439 100.32 248.495 100.343L255.723 103.184C255.809 103.218 255.883 103.277 255.934 103.353C255.986 103.43 256.014 103.52 256.014 103.612V125.539C256.014 125.601 256.001 125.662 255.977 125.719C255.953 125.776 255.918 125.827 255.874 125.87C255.83 125.913 255.777 125.947 255.719 125.969C255.662 125.991 255.6 126.002 255.539 126Z" fill="#9AA7B9"/>
<path d="M198.461 98.6806C198.354 98.6798 198.251 98.6418 198.169 98.5732C198.087 98.5046 198.031 98.4096 198.011 98.3046C197.992 98.1995 198.009 98.0909 198.061 97.9973C198.113 97.9038 198.196 97.8312 198.295 97.7919L212.724 92.1189C212.836 92.0804 212.959 92.0867 213.067 92.1365C213.175 92.1863 213.259 92.2758 213.303 92.3862C213.346 92.4967 213.345 92.6196 213.3 92.7294C213.255 92.8392 213.169 92.9273 213.06 92.9754L198.632 98.6484C198.578 98.6705 198.52 98.6815 198.461 98.6806Z" fill="#9AA7B9"/>
</g>
<g clip-path="url(#clip1_218_65)">
<path d="M296.445 59.9999H265.544C265.4 59.9999 265.261 59.9431 265.159 59.842C265.057 59.7409 265 59.6038 265 59.4608V12.5606C265 12.4176 265.057 12.2805 265.159 12.1794C265.261 12.0783 265.4 12.0215 265.544 12.0215H296.445C296.589 12.0215 296.728 12.0783 296.83 12.1794C296.932 12.2805 296.989 12.4176 296.989 12.5606V59.4608C296.989 59.6038 296.932 59.7409 296.83 59.842C296.728 59.9431 296.589 59.9999 296.445 59.9999ZM266.083 58.9218H295.901V13.0997H266.088L266.083 58.9218Z" fill="#9AA7B9"/>
<path d="M287.255 59.9999C287.11 59.9999 286.972 59.9431 286.87 59.842C286.768 59.7409 286.711 59.6038 286.711 59.4608V42.9756H275.284V59.4608C275.284 59.6038 275.227 59.7409 275.125 59.842C275.023 59.9431 274.884 59.9999 274.74 59.9999C274.596 59.9999 274.457 59.9431 274.355 59.842C274.253 59.7409 274.196 59.6038 274.196 59.4608V42.4365C274.196 42.2936 274.253 42.1565 274.355 42.0554C274.457 41.9543 274.596 41.8975 274.74 41.8975H287.255C287.399 41.8975 287.537 41.9543 287.639 42.0554C287.742 42.1565 287.799 42.2936 287.799 42.4365V59.4608C287.799 59.5316 287.785 59.6017 287.757 59.6671C287.73 59.7325 287.69 59.7919 287.639 59.842C287.589 59.8921 287.529 59.9318 287.463 59.9588C287.397 59.9859 287.326 59.9999 287.255 59.9999Z" fill="#9AA7B9"/>
<path d="M273.924 24.6415H270.795C270.651 24.6415 270.512 24.5847 270.41 24.4836C270.308 24.3825 270.251 24.2454 270.251 24.1024V18.6792C270.251 18.5362 270.308 18.3991 270.41 18.298C270.512 18.1969 270.651 18.1401 270.795 18.1401H273.924C274.068 18.1401 274.206 18.1969 274.308 18.298C274.41 18.3991 274.468 18.5362 274.468 18.6792V24.1024C274.468 24.2454 274.41 24.3825 274.308 24.4836C274.206 24.5847 274.068 24.6415 273.924 24.6415ZM271.339 23.5633H273.38V19.2183H271.339V23.5633Z" fill="#9AA7B9"/>
<path d="M282.564 24.6415H279.43C279.286 24.6415 279.147 24.5847 279.045 24.4836C278.943 24.3825 278.886 24.2454 278.886 24.1024V18.6792C278.886 18.5362 278.943 18.3991 279.045 18.298C279.147 18.1969 279.286 18.1401 279.43 18.1401H282.564C282.709 18.1401 282.847 18.1969 282.949 18.298C283.051 18.3991 283.108 18.5362 283.108 18.6792V24.1024C283.108 24.2454 283.051 24.3825 282.949 24.4836C282.847 24.5847 282.709 24.6415 282.564 24.6415ZM279.974 23.5633H282.02V19.2183H279.974V23.5633Z" fill="#9AA7B9"/>
<path d="M291.2 24.6415H288.071C287.927 24.6415 287.788 24.5847 287.686 24.4836C287.584 24.3825 287.527 24.2454 287.527 24.1024V18.6792C287.527 18.5362 287.584 18.3991 287.686 18.298C287.788 18.1969 287.927 18.1401 288.071 18.1401H291.2C291.344 18.1401 291.482 18.1969 291.584 18.298C291.686 18.3991 291.744 18.5362 291.744 18.6792V24.1024C291.744 24.2454 291.686 24.3825 291.584 24.4836C291.482 24.5847 291.344 24.6415 291.2 24.6415ZM288.615 23.5633H290.656V19.2183H288.615V23.5633Z" fill="#9AA7B9"/>
<path d="M273.924 34.3287H270.795C270.651 34.3287 270.512 34.272 270.41 34.1709C270.308 34.0698 270.251 33.9326 270.251 33.7897V28.3665C270.251 28.2235 270.308 28.0864 270.41 27.9853C270.512 27.8842 270.651 27.8274 270.795 27.8274H273.924C274.068 27.8274 274.206 27.8842 274.308 27.9853C274.41 28.0864 274.468 28.2235 274.468 28.3665V33.7897C274.468 33.9326 274.41 34.0698 274.308 34.1709C274.206 34.272 274.068 34.3287 273.924 34.3287ZM271.339 33.2506H273.38V28.9056H271.339V33.2506Z" fill="#9AA7B9"/>
<path d="M282.564 34.3287H279.43C279.286 34.3287 279.147 34.272 279.045 34.1709C278.943 34.0698 278.886 33.9326 278.886 33.7897V28.3665C278.886 28.2235 278.943 28.0864 279.045 27.9853C279.147 27.8842 279.286 27.8274 279.43 27.8274H282.564C282.709 27.8274 282.847 27.8842 282.949 27.9853C283.051 28.0864 283.108 28.2235 283.108 28.3665V33.7897C283.108 33.9326 283.051 34.0698 282.949 34.1709C282.847 34.272 282.709 34.3287 282.564 34.3287ZM279.974 33.2506H282.02V28.9056H279.974V33.2506Z" fill="#9AA7B9"/>
<path d="M291.2 34.3287H288.071C287.927 34.3287 287.788 34.272 287.686 34.1709C287.584 34.0698 287.527 33.9326 287.527 33.7897V28.3665C287.527 28.2235 287.584 28.0864 287.686 27.9853C287.788 27.8842 287.927 27.8274 288.071 27.8274H291.2C291.344 27.8274 291.482 27.8842 291.584 27.9853C291.686 28.0864 291.744 28.2235 291.744 28.3665V33.7897C291.744 33.9326 291.686 34.0698 291.584 34.1709C291.482 34.272 291.344 34.3287 291.2 34.3287ZM288.615 33.2506H290.656V28.9056H288.615V33.2506Z" fill="#9AA7B9"/>
</g>
<g clip-path="url(#clip2_218_65)">
<path d="M66.9952 261.178C65.6885 261.178 64.4112 260.791 63.3247 260.067C62.2382 259.343 61.3914 258.313 60.8914 257.109C60.3914 255.904 60.2605 254.579 60.5154 253.301C60.7704 252.022 61.3996 250.847 62.3236 249.926C63.2475 249.004 64.4247 248.376 65.7063 248.122C66.9879 247.867 68.3163 247.998 69.5235 248.497C70.7307 248.996 71.7626 249.841 72.4885 250.925C73.2145 252.008 73.6019 253.283 73.6019 254.586C73.6007 256.334 72.9042 258.01 71.6655 259.246C70.4267 260.482 68.747 261.177 66.9952 261.178ZM66.9952 248.958C65.8782 248.958 64.7864 249.288 63.8577 249.908C62.9291 250.527 62.2053 251.407 61.7781 252.437C61.3509 253.466 61.2394 254.599 61.4576 255.692C61.6759 256.785 62.2141 257.789 63.0043 258.576C63.7944 259.364 64.801 259.9 65.8966 260.117C66.9922 260.334 68.1277 260.221 69.1593 259.794C70.191 259.367 71.0725 258.644 71.6924 257.717C72.3123 256.79 72.6426 255.701 72.6417 254.586C72.6404 253.093 72.0449 251.662 70.9861 250.606C69.9274 249.551 68.4919 248.958 66.9952 248.958Z" fill="#9AA7B9"/>
<path d="M60.6861 299.926C60.5588 299.926 60.4367 299.875 60.3466 299.786C60.2566 299.696 60.206 299.574 60.206 299.447V274.902C60.206 274.775 60.2566 274.653 60.3466 274.563C60.4367 274.473 60.5588 274.423 60.6861 274.423C60.8135 274.423 60.9356 274.473 61.0257 274.563C61.1157 274.653 61.1663 274.775 61.1663 274.902V299.447C61.1663 299.574 61.1157 299.696 61.0257 299.786C60.9356 299.875 60.8135 299.926 60.6861 299.926Z" fill="#9AA7B9"/>
<path d="M73.309 299.926C73.1817 299.926 73.0595 299.875 72.9695 299.786C72.8795 299.696 72.8289 299.574 72.8289 299.447V274.902C72.8289 274.775 72.8795 274.653 72.9695 274.563C73.0595 274.473 73.1817 274.423 73.309 274.423C73.4363 274.423 73.5585 274.473 73.6485 274.563C73.7386 274.653 73.7891 274.775 73.7891 274.902V299.447C73.7891 299.574 73.7386 299.696 73.6485 299.786C73.5585 299.875 73.4363 299.926 73.309 299.926Z" fill="#9AA7B9"/>
<path d="M62.7891 301.995C62.1044 301.994 61.4482 301.722 60.964 301.239C60.4798 300.756 60.2073 300.101 60.206 299.418C60.206 299.291 60.2566 299.169 60.3466 299.079C60.4367 298.989 60.5588 298.939 60.6861 298.939C60.8135 298.939 60.9356 298.989 61.0257 299.079C61.1157 299.169 61.1663 299.291 61.1663 299.418C61.1889 299.833 61.37 300.223 61.6723 300.509C61.9746 300.794 62.3752 300.954 62.7916 300.954C63.2079 300.954 63.6085 300.794 63.9108 300.509C64.2131 300.223 64.3942 299.833 64.4168 299.418V287.624C64.4168 286.941 64.689 286.285 65.1734 285.802C65.6578 285.319 66.3149 285.047 67 285.047C67.1273 285.047 67.2494 285.098 67.3395 285.188C67.4295 285.278 67.4801 285.399 67.4801 285.526C67.4801 285.653 67.4295 285.775 67.3395 285.865C67.2494 285.955 67.1273 286.005 67 286.005C66.5696 286.005 66.1568 286.176 65.8524 286.48C65.5481 286.783 65.3771 287.195 65.3771 287.624V299.418C65.3758 300.102 65.1026 300.757 64.6174 301.241C64.1322 301.724 63.4747 301.995 62.7891 301.995Z" fill="#9AA7B9"/>
<path d="M71.2061 301.995C70.521 301.995 69.8639 301.724 69.3795 301.24C68.8951 300.757 68.6229 300.101 68.6229 299.418V287.624C68.6216 287.195 68.4502 286.784 68.1462 286.481C67.8421 286.178 67.4301 286.007 67 286.005C66.8727 286.005 66.7505 285.955 66.6605 285.865C66.5705 285.775 66.5199 285.653 66.5199 285.526C66.5199 285.399 66.5705 285.278 66.6605 285.188C66.7505 285.098 66.8727 285.047 67 285.047C67.6847 285.049 68.341 285.321 68.8252 285.804C69.3093 286.287 69.5819 286.941 69.5832 287.624V299.418C69.5832 299.847 69.7541 300.259 70.0585 300.563C70.3628 300.867 70.7757 301.037 71.2061 301.037C71.6365 301.037 72.0493 300.867 72.3536 300.563C72.658 300.259 72.8289 299.847 72.8289 299.418C72.8289 299.291 72.8795 299.169 72.9695 299.079C73.0596 298.989 73.1817 298.939 73.3091 298.939C73.4364 298.939 73.5585 298.989 73.6486 299.079C73.7386 299.169 73.7892 299.291 73.7892 299.418C73.7879 300.101 73.5154 300.756 73.0312 301.239C72.547 301.722 71.8908 301.994 71.2061 301.995Z" fill="#9AA7B9"/>
<path d="M58.5831 281.349C57.8984 281.348 57.2421 281.076 56.758 280.593C56.2738 280.11 56.0013 279.455 56 278.772V271.194C56.0025 268.284 57.1623 265.494 59.2246 263.437C61.287 261.379 64.0834 260.222 67 260.22C67.1273 260.22 67.2495 260.27 67.3395 260.36C67.4295 260.45 67.4801 260.572 67.4801 260.699C67.4801 260.826 67.4295 260.948 67.3395 261.037C67.2495 261.127 67.1273 261.178 67 261.178C64.3381 261.18 61.7859 262.236 59.9036 264.114C58.0214 265.992 56.9628 268.538 56.9603 271.194V278.772C56.9603 279.202 57.1313 279.613 57.4356 279.917C57.7399 280.221 58.1527 280.391 58.5831 280.391C59.0136 280.391 59.4263 280.221 59.7307 279.917C60.035 279.613 60.206 279.202 60.206 278.772C60.206 278.645 60.2566 278.523 60.3467 278.433C60.4367 278.344 60.5588 278.293 60.6862 278.293C60.8135 278.293 60.9356 278.344 61.0257 278.433C61.1157 278.523 61.1663 278.645 61.1663 278.772C61.1663 279.456 60.8942 280.111 60.4097 280.595C59.9253 281.078 59.2682 281.349 58.5831 281.349Z" fill="#9AA7B9"/>
<path d="M75.412 281.349C74.727 281.349 74.0699 281.078 73.5855 280.595C73.1011 280.111 72.8289 279.456 72.8289 278.772C72.8289 278.645 72.8795 278.523 72.9695 278.433C73.0596 278.344 73.1817 278.293 73.309 278.293C73.4364 278.293 73.5585 278.344 73.6486 278.433C73.7386 278.523 73.7892 278.645 73.7892 278.772C73.7892 279.202 73.9602 279.613 74.2645 279.917C74.5689 280.221 74.9816 280.391 75.412 280.391C75.8425 280.391 76.2553 280.221 76.5596 279.917C76.864 279.613 77.0349 279.202 77.0349 278.772V271.194C77.0324 268.538 75.9738 265.992 74.0915 264.114C72.2093 262.236 69.6571 261.18 66.9952 261.178C66.8679 261.178 66.7458 261.127 66.6557 261.037C66.5657 260.948 66.5151 260.826 66.5151 260.699C66.5151 260.572 66.5657 260.45 66.6557 260.36C66.7458 260.27 66.8679 260.22 66.9952 260.22C69.9118 260.222 72.7082 261.379 74.7706 263.437C76.8329 265.494 77.9927 268.284 77.9952 271.194V278.772C77.9939 279.455 77.7214 280.11 77.2372 280.593C76.7531 281.076 76.0968 281.348 75.412 281.349Z" fill="#9AA7B9"/>
</g>
<g clip-path="url(#clip3_218_65)">
<path d="M68.5024 185.934C67.211 185.934 65.9486 185.554 64.8749 184.844C63.8012 184.133 62.9643 183.122 62.4702 181.94C61.976 180.758 61.8467 179.457 62.0986 178.203C62.3505 176.948 62.9724 175.795 63.8855 174.89C64.7986 173.985 65.962 173.369 67.2286 173.12C68.4951 172.87 69.8079 172.998 71.001 173.488C72.194 173.977 73.2138 174.807 73.9312 175.87C74.6486 176.934 75.0316 178.185 75.0316 179.465C75.0303 181.18 74.342 182.825 73.1178 184.038C71.8936 185.251 70.2336 185.933 68.5024 185.934ZM68.5024 173.94C67.3985 173.94 66.3194 174.265 65.4017 174.872C64.4839 175.48 63.7687 176.344 63.3465 177.355C62.9243 178.365 62.814 179.477 63.0297 180.55C63.2454 181.622 63.7773 182.608 64.5582 183.381C65.3391 184.154 66.3338 184.68 67.4166 184.893C68.4994 185.105 69.6215 184.995 70.6411 184.576C71.6606 184.157 72.5318 183.447 73.1444 182.538C73.757 181.628 74.0835 180.558 74.0825 179.465C74.0813 177.999 73.4928 176.594 72.4465 175.558C71.4001 174.522 69.9815 173.94 68.5024 173.94Z" fill="#9AA7B9"/>
<path d="M62.2674 223.964C62.1415 223.964 62.0208 223.915 61.9318 223.826C61.8428 223.738 61.7928 223.619 61.7928 223.494V199.403C61.7928 199.279 61.8428 199.159 61.9318 199.071C62.0208 198.983 62.1415 198.933 62.2674 198.933C62.3932 198.933 62.5139 198.983 62.6029 199.071C62.6919 199.159 62.7419 199.279 62.7419 199.403V223.494C62.7419 223.619 62.6919 223.738 62.6029 223.826C62.5139 223.915 62.3932 223.964 62.2674 223.964Z" fill="#9AA7B9"/>
<path d="M74.7374 223.964C74.6115 223.964 74.4908 223.915 74.4018 223.826C74.3128 223.738 74.2629 223.619 74.2629 223.494V199.403C74.2629 199.279 74.3128 199.159 74.4018 199.071C74.4908 198.983 74.6115 198.933 74.7374 198.933C74.8632 198.933 74.9839 198.983 75.0729 199.071C75.1619 199.159 75.2119 199.279 75.2119 199.403V223.494C75.2119 223.619 75.1619 223.738 75.0729 223.826C74.9839 223.915 74.8632 223.964 74.7374 223.964Z" fill="#9AA7B9"/>
<path d="M64.3457 225.995C63.669 225.994 63.0204 225.727 62.5419 225.253C62.0635 224.779 61.7941 224.136 61.7928 223.466C61.7928 223.341 61.8428 223.222 61.9318 223.133C62.0208 223.045 62.1415 222.996 62.2674 222.996C62.3932 222.996 62.5139 223.045 62.6029 223.133C62.6919 223.222 62.7419 223.341 62.7419 223.466C62.7419 223.887 62.9108 224.291 63.2116 224.59C63.5124 224.888 63.9203 225.055 64.3457 225.055C64.7711 225.055 65.179 224.888 65.4798 224.59C65.7805 224.291 65.9495 223.887 65.9495 223.466V211.891C65.9508 211.22 66.2201 210.578 66.6986 210.104C67.1771 209.629 67.8257 209.363 68.5024 209.361C68.6282 209.361 68.7489 209.411 68.8379 209.499C68.9269 209.587 68.9769 209.707 68.9769 209.831C68.9769 209.956 68.9269 210.076 68.8379 210.164C68.7489 210.252 68.6282 210.302 68.5024 210.302C68.0774 210.303 67.6702 210.471 67.3697 210.768C67.0691 211.066 66.8998 211.47 66.8985 211.891V223.466C66.8985 224.137 66.6296 224.78 66.1508 225.254C65.6721 225.729 65.0227 225.995 64.3457 225.995Z" fill="#9AA7B9"/>
<path d="M72.6591 225.995C71.9824 225.994 71.3338 225.727 70.8553 225.253C70.3768 224.779 70.1075 224.136 70.1062 223.466V211.891C70.1062 211.469 69.9373 211.065 69.6365 210.767C69.3357 210.469 68.9278 210.302 68.5024 210.302C68.3766 210.302 68.2559 210.252 68.1669 210.164C68.0779 210.076 68.0279 209.956 68.0279 209.831C68.0279 209.707 68.0779 209.587 68.1669 209.499C68.2559 209.411 68.3766 209.361 68.5024 209.361C69.1795 209.361 69.8288 209.628 70.3075 210.102C70.7863 210.577 71.0552 211.22 71.0552 211.891V223.466C71.0552 223.887 71.2242 224.291 71.525 224.59C71.8258 224.888 72.2337 225.055 72.6591 225.055C73.0844 225.055 73.4924 224.888 73.7932 224.59C74.0939 224.291 74.2629 223.887 74.2629 223.466C74.2629 223.341 74.3129 223.222 74.4019 223.133C74.4909 223.045 74.6116 222.996 74.7374 222.996C74.8633 222.996 74.9839 223.045 75.0729 223.133C75.1619 223.222 75.2119 223.341 75.2119 223.466C75.2119 224.137 74.9429 224.78 74.4642 225.254C73.9854 225.729 73.3361 225.995 72.6591 225.995Z" fill="#9AA7B9"/>
<path d="M60.189 205.732C59.512 205.732 58.8626 205.465 58.3839 204.991C57.9051 204.517 57.6362 203.873 57.6362 203.202V195.765C57.6399 192.909 58.7865 190.171 60.8243 188.152C62.8622 186.133 65.6251 184.997 68.5071 184.993C68.633 184.993 68.7537 185.043 68.8426 185.131C68.9316 185.219 68.9816 185.339 68.9816 185.464C68.9816 185.588 68.9316 185.708 68.8426 185.796C68.7537 185.884 68.633 185.934 68.5071 185.934C65.8764 185.936 63.3542 186.973 61.494 188.816C59.6338 190.659 58.5877 193.158 58.5852 195.765V203.202C58.5852 203.624 58.7542 204.028 59.0549 204.326C59.3557 204.624 59.7637 204.791 60.189 204.791C60.6144 204.791 61.0223 204.624 61.3231 204.326C61.6239 204.028 61.7928 203.624 61.7928 203.202C61.7928 203.078 61.8428 202.958 61.9318 202.87C62.0208 202.782 62.1415 202.732 62.2674 202.732C62.3932 202.732 62.5139 202.782 62.6029 202.87C62.6919 202.958 62.7419 203.078 62.7419 203.202C62.7419 203.873 62.4729 204.517 61.9942 204.991C61.5154 205.465 60.8661 205.732 60.189 205.732Z" fill="#9AA7B9"/>
<path d="M76.8157 205.732C76.139 205.73 75.4905 205.464 75.012 204.99C74.5335 204.515 74.2642 203.873 74.2629 203.202C74.2629 203.078 74.3129 202.958 74.4019 202.87C74.4908 202.782 74.6116 202.732 74.7374 202.732C74.8633 202.732 74.9839 202.782 75.0729 202.87C75.1619 202.958 75.2119 203.078 75.2119 203.202C75.2119 203.624 75.3809 204.028 75.6816 204.326C75.9824 204.624 76.3904 204.791 76.8157 204.791C77.2411 204.791 77.649 204.624 77.9498 204.326C78.2506 204.028 78.4195 203.624 78.4195 203.202V195.765C78.417 193.158 77.3709 190.659 75.5107 188.816C73.6505 186.973 71.1283 185.936 68.4976 185.934C68.3718 185.934 68.2511 185.884 68.1621 185.796C68.0731 185.708 68.0231 185.588 68.0231 185.464C68.0231 185.339 68.0731 185.219 68.1621 185.131C68.2511 185.043 68.3718 184.993 68.4976 184.993C71.3796 184.997 74.1425 186.133 76.1804 188.152C78.2183 190.171 79.3648 192.909 79.3686 195.765V203.202C79.3686 203.873 79.0996 204.517 78.6209 204.991C78.1421 205.465 77.4928 205.732 76.8157 205.732Z" fill="#9AA7B9"/>
<path d="M85.1338 191.265C84.0424 191.265 82.9754 190.945 82.0679 190.344C81.1604 189.743 80.4531 188.889 80.0354 187.89C79.6177 186.891 79.5084 185.791 79.7213 184.731C79.9343 183.67 80.4599 182.696 81.2316 181.931C82.0034 181.166 82.9867 180.646 84.0572 180.435C85.1277 180.224 86.2373 180.332 87.2457 180.746C88.254 181.16 89.1159 181.86 89.7223 182.76C90.3287 183.659 90.6523 184.716 90.6523 185.797C90.6511 187.247 90.0692 188.637 89.0346 189.662C87.9999 190.688 86.597 191.264 85.1338 191.265ZM85.1338 181.27C84.23 181.27 83.3466 181.535 82.5951 182.033C81.8437 182.53 81.258 183.238 80.9121 184.065C80.5663 184.892 80.4758 185.802 80.6521 186.681C80.8284 187.559 81.2636 188.366 81.9027 188.999C82.5417 189.632 83.3559 190.063 84.2423 190.238C85.1287 190.413 86.0475 190.323 86.8825 189.98C87.7174 189.638 88.4311 189.057 88.9332 188.313C89.4353 187.568 89.7033 186.693 89.7033 185.797C89.702 184.597 89.2202 183.446 88.3635 182.597C87.5069 181.749 86.3453 181.271 85.1338 181.27Z" fill="#9AA7B9"/>
<path d="M78.8941 223.964C78.7682 223.964 78.6475 223.915 78.5585 223.827C78.4696 223.738 78.4196 223.619 78.4196 223.494V209.183C78.4196 209.058 78.4696 208.939 78.5585 208.85C78.6475 208.762 78.7682 208.713 78.8941 208.713C79.0199 208.713 79.1406 208.762 79.2296 208.85C79.3186 208.939 79.3686 209.058 79.3686 209.183V223.494C79.3686 223.619 79.3186 223.738 79.2296 223.827C79.1406 223.915 79.0199 223.964 78.8941 223.964Z" fill="#9AA7B9"/>
<path d="M91.3688 223.964C91.2429 223.964 91.1223 223.915 91.0333 223.827C90.9443 223.738 90.8943 223.619 90.8943 223.494V203.325C90.8943 203.2 90.9443 203.08 91.0333 202.992C91.1223 202.904 91.2429 202.854 91.3688 202.854C91.4946 202.854 91.6153 202.904 91.7043 202.992C91.7933 203.08 91.8433 203.2 91.8433 203.325V223.494C91.8433 223.619 91.7933 223.738 91.7043 223.827C91.6153 223.915 91.4946 223.964 91.3688 223.964Z" fill="#9AA7B9"/>
<path d="M80.9819 225.995C80.3052 225.994 79.6566 225.727 79.1781 225.253C78.6996 224.779 78.4303 224.136 78.429 223.466C78.429 223.341 78.479 223.222 78.568 223.133C78.657 223.045 78.7777 222.996 78.9035 222.996C79.0294 222.996 79.1501 223.045 79.239 223.133C79.328 223.222 79.378 223.341 79.378 223.466C79.4004 223.873 79.5793 224.256 79.8781 224.536C80.1769 224.817 80.5727 224.973 80.9842 224.973C81.3957 224.973 81.7916 224.817 82.0904 224.536C82.3891 224.256 82.5681 223.873 82.5904 223.466V213.771C82.5904 213.101 82.8594 212.457 83.3381 211.983C83.8169 211.508 84.4662 211.242 85.1433 211.242C85.2691 211.242 85.3898 211.291 85.4788 211.38C85.5678 211.468 85.6178 211.587 85.6178 211.712C85.6178 211.837 85.5678 211.956 85.4788 212.045C85.3898 212.133 85.2691 212.182 85.1433 212.182C84.7179 212.182 84.31 212.35 84.0092 212.648C83.7084 212.946 83.5395 213.35 83.5395 213.771V223.466C83.5382 224.137 83.2682 224.78 82.7887 225.255C82.3092 225.729 81.6594 225.995 80.9819 225.995Z" fill="#9AA7B9"/>
<path d="M89.2905 225.995C88.6134 225.995 87.9641 225.729 87.4853 225.254C87.0066 224.78 86.7376 224.137 86.7376 223.466V213.771C86.7364 213.35 86.567 212.947 86.2665 212.649C85.966 212.351 85.5588 212.183 85.1338 212.182C85.008 212.182 84.8873 212.133 84.7983 212.045C84.7093 211.956 84.6593 211.837 84.6593 211.712C84.6593 211.587 84.7093 211.468 84.7983 211.38C84.8873 211.291 85.008 211.242 85.1338 211.242C85.8105 211.243 86.4591 211.51 86.9376 211.984C87.416 212.458 87.6854 213.101 87.6867 213.771V223.466C87.6867 223.887 87.8556 224.292 88.1564 224.59C88.4572 224.888 88.8651 225.055 89.2905 225.055C89.7158 225.055 90.1238 224.888 90.4246 224.59C90.7253 224.292 90.8943 223.887 90.8943 223.466C90.8943 223.341 90.9443 223.222 91.0333 223.133C91.1223 223.045 91.243 222.996 91.3688 222.996C91.4947 222.996 91.6154 223.045 91.7043 223.133C91.7933 223.222 91.8433 223.341 91.8433 223.466C91.8421 224.136 91.5727 224.779 91.0942 225.253C90.6158 225.727 89.9672 225.994 89.2905 225.995Z" fill="#9AA7B9"/>
<path d="M93.4472 209.653C92.7701 209.653 92.1208 209.386 91.642 208.912C91.1633 208.438 90.8943 207.794 90.8943 207.123C90.8943 206.999 90.9443 206.879 91.0333 206.791C91.1223 206.703 91.243 206.653 91.3688 206.653C91.4947 206.653 91.6153 206.703 91.7043 206.791C91.7933 206.879 91.8433 206.999 91.8433 207.123C91.8433 207.545 92.0123 207.949 92.3131 208.247C92.6139 208.545 93.0218 208.713 93.4472 208.713C93.8725 208.713 94.2805 208.545 94.5812 208.247C94.882 207.949 95.051 207.545 95.051 207.123V201.096C95.0485 198.49 94.0023 195.99 92.1421 194.147C90.282 192.304 87.7597 191.268 85.129 191.265C85.0032 191.265 84.8825 191.216 84.7935 191.128C84.7045 191.039 84.6545 190.92 84.6545 190.795C84.6545 190.67 84.7045 190.551 84.7935 190.463C84.8825 190.374 85.0032 190.325 85.129 190.325C88.0114 190.327 90.775 191.463 92.8132 193.482C94.8513 195.502 95.9975 198.24 96 201.096V207.123C95.9987 207.794 95.7294 208.437 95.2509 208.911C94.7724 209.385 94.1238 209.652 93.4472 209.653Z" fill="#9AA7B9"/>
<path d="M51.8709 191.265C50.7795 191.265 49.7125 190.945 48.805 190.344C47.8975 189.743 47.1902 188.889 46.7725 187.89C46.3548 186.891 46.2455 185.791 46.4585 184.731C46.6714 183.67 47.197 182.696 47.9687 181.931C48.7405 181.166 49.7238 180.646 50.7943 180.435C51.8648 180.224 52.9744 180.332 53.9828 180.746C54.9911 181.16 55.853 181.86 56.4594 182.76C57.0658 183.659 57.3894 184.716 57.3894 185.797C57.3869 187.247 56.8047 188.636 55.7703 189.661C54.7359 190.686 53.3338 191.263 51.8709 191.265ZM51.8709 181.27C50.9672 181.27 50.0837 181.535 49.3323 182.033C48.5808 182.53 47.9951 183.238 47.6493 184.065C47.3034 184.892 47.2129 185.802 47.3892 186.681C47.5655 187.559 48.0008 188.366 48.6398 188.999C49.2789 189.632 50.0931 190.063 50.9795 190.238C51.8659 190.413 52.7846 190.323 53.6196 189.98C54.4546 189.638 55.1682 189.057 55.6703 188.313C56.1724 187.568 56.4404 186.693 56.4404 185.797C56.4392 184.597 55.9573 183.446 55.1007 182.597C54.244 181.749 53.0825 181.271 51.8709 181.27Z" fill="#9AA7B9"/>
<path d="M58.1059 223.964C57.9801 223.964 57.8594 223.915 57.7704 223.827C57.6814 223.738 57.6314 223.619 57.6314 223.494V209.183C57.6314 209.058 57.6814 208.939 57.7704 208.85C57.8594 208.762 57.9801 208.713 58.1059 208.713C58.2318 208.713 58.3525 208.762 58.4415 208.85C58.5305 208.939 58.5804 209.058 58.5804 209.183V223.494C58.5804 223.619 58.5305 223.738 58.4415 223.827C58.3525 223.915 58.2318 223.964 58.1059 223.964Z" fill="#9AA7B9"/>
<path d="M45.6359 223.964C45.5101 223.964 45.3894 223.915 45.3004 223.827C45.2114 223.738 45.1614 223.619 45.1614 223.494V203.325C45.1614 203.2 45.2114 203.08 45.3004 202.992C45.3894 202.904 45.5101 202.854 45.6359 202.854C45.7618 202.854 45.8825 202.904 45.9715 202.992C46.0605 203.08 46.1105 203.2 46.1105 203.325V223.494C46.1105 223.619 46.0605 223.738 45.9715 223.827C45.8825 223.915 45.7618 223.964 45.6359 223.964Z" fill="#9AA7B9"/>
<path d="M56.0276 225.995C55.3509 225.994 54.7023 225.727 54.2239 225.253C53.7454 224.779 53.476 224.136 53.4748 223.466V213.771C53.4748 213.35 53.3058 212.946 53.005 212.648C52.7042 212.35 52.2963 212.182 51.8709 212.182C51.7451 212.182 51.6244 212.133 51.5354 212.045C51.4464 211.956 51.3964 211.837 51.3964 211.712C51.3964 211.587 51.4464 211.468 51.5354 211.38C51.6244 211.291 51.7451 211.242 51.8709 211.242C52.548 211.242 53.1973 211.508 53.676 211.983C54.1548 212.457 54.4238 213.101 54.4238 213.771V223.466C54.4238 223.887 54.5927 224.292 54.8935 224.59C55.1943 224.888 55.6022 225.055 56.0276 225.055C56.4529 225.055 56.8609 224.888 57.1617 224.59C57.4625 224.292 57.6314 223.887 57.6314 223.466C57.6314 223.341 57.6814 223.222 57.7704 223.133C57.8594 223.045 57.9801 222.996 58.1059 222.996C58.2318 222.996 58.3525 223.045 58.4415 223.133C58.5305 223.222 58.5804 223.341 58.5804 223.466C58.5804 224.137 58.3115 224.78 57.8327 225.254C57.354 225.729 56.7046 225.995 56.0276 225.995Z" fill="#9AA7B9"/>
<path d="M47.7143 225.995C47.0372 225.995 46.3879 225.729 45.9091 225.254C45.4304 224.78 45.1614 224.137 45.1614 223.466C45.1614 223.341 45.2114 223.222 45.3004 223.133C45.3894 223.045 45.5101 222.996 45.6359 222.996C45.7618 222.996 45.8825 223.045 45.9715 223.133C46.0605 223.222 46.1105 223.341 46.1105 223.466C46.1105 223.887 46.2794 224.292 46.5802 224.59C46.881 224.888 47.2889 225.055 47.7143 225.055C48.1396 225.055 48.5476 224.888 48.8484 224.59C49.1491 224.292 49.3181 223.887 49.3181 223.466V213.771C49.3194 213.101 49.5887 212.458 50.0672 211.984C50.5457 211.51 51.1943 211.243 51.871 211.242C51.9968 211.242 52.1175 211.291 52.2065 211.38C52.2955 211.468 52.3455 211.587 52.3455 211.712C52.3455 211.837 52.2955 211.956 52.2065 212.045C52.1175 212.133 51.9968 212.182 51.871 212.182C51.446 212.183 51.0388 212.351 50.7382 212.649C50.4377 212.947 50.2684 213.35 50.2671 213.771V223.466C50.2671 224.137 49.9981 224.78 49.5194 225.254C49.0406 225.729 48.3913 225.995 47.7143 225.995Z" fill="#9AA7B9"/>
<path d="M43.5576 209.653C42.8809 209.652 42.2323 209.385 41.7539 208.911C41.2754 208.437 41.006 207.794 41.0048 207.123V201.096C41.0085 198.241 42.1551 195.503 44.1929 193.484C46.2308 191.465 48.9937 190.329 51.8757 190.325C52.0015 190.325 52.1222 190.374 52.2112 190.463C52.3002 190.551 52.3502 190.67 52.3502 190.795C52.3502 190.92 52.3002 191.039 52.2112 191.128C52.1222 191.216 52.0015 191.265 51.8757 191.265C49.245 191.268 46.7228 192.304 44.8626 194.147C43.0024 195.99 41.9563 198.49 41.9538 201.096V207.123C41.9538 207.545 42.1228 207.949 42.4235 208.247C42.7243 208.545 43.1322 208.713 43.5576 208.713C43.983 208.713 44.3909 208.545 44.6917 208.247C44.9925 207.949 45.1614 207.545 45.1614 207.123C45.1614 206.999 45.2114 206.879 45.3004 206.791C45.3894 206.703 45.5101 206.653 45.6359 206.653C45.7618 206.653 45.8825 206.703 45.9715 206.791C46.0605 206.879 46.1105 206.999 46.1105 207.123C46.1105 207.794 45.8415 208.438 45.3627 208.912C44.884 209.386 44.2347 209.653 43.5576 209.653Z" fill="#9AA7B9"/>
</g>
<path fill-rule="evenodd" clip-rule="evenodd" d="M175.854 0.646627L178.854 3.64645C179.049 3.84171 179.049 4.15829 178.854 4.35355C178.658 4.54882 178.342 4.54882 178.146 4.35355L175.5 1.70711L172.854 4.35355C172.658 4.54882 172.342 4.54882 172.146 4.35355C171.951 4.15829 171.951 3.84171 172.146 3.64645L175.146 0.646447C175.342 0.451184 175.658 0.451184 175.854 0.646447C175.854 0.646507 175.854 0.646567 175.854 0.646627Z" fill="black"/>
<path fill-rule="evenodd" clip-rule="evenodd" d="M320.853 147.854L317.854 150.854C317.658 151.049 317.342 151.049 317.146 150.854C316.951 150.658 316.951 150.342 317.146 150.146L319.793 147.5L317.146 144.854C316.951 144.658 316.951 144.342 317.146 144.146C317.342 143.951 317.658 143.951 317.854 144.146L320.854 147.146C321.049 147.342 321.049 147.658 320.854 147.854C320.853 147.854 320.853 147.854 320.853 147.854Z" fill="black"/>
<defs>
<clipPath id="clip0_218_65">
<rect width="58" height="41" fill="white" transform="translate(198 85)"/>
</clipPath>
<clipPath id="clip1_218_65">
<rect width="32" height="48" fill="white" transform="translate(265 12)"/>
</clipPath>
<clipPath id="clip2_218_65">
<rect width="22" height="54" fill="white" transform="translate(56 248)"/>
</clipPath>
<clipPath id="clip3_218_65">
<rect width="55" height="53" fill="white" transform="translate(41 173)"/>
</clipPath>
</defs>
</svg>
