<svg viewBox="0 0 78 76" fill="currentColor" xmlns="http://www.w3.org/2000/svg">
<g id="&#229;&#156;&#150;&#229;&#177;&#164;_1" clipPath="url(#clip0_2671_2546)">
<path id="Vector" d="M39.0033 18.5466C37.1719 18.5466 35.3816 18.0025 33.8589 16.9832C32.3362 15.9639 31.1493 14.5151 30.4485 12.82C29.7477 11.1249 29.5643 9.25965 29.9216 7.46015C30.2789 5.66065 31.1607 4.00771 32.4557 2.71034C33.7507 1.41297 35.4006 0.529449 37.1968 0.171506C38.993 -0.186436 40.8548 -0.00271882 42.5467 0.699411C44.2387 1.40154 45.6849 2.59055 46.7023 4.1161C47.7198 5.64164 48.2629 7.43518 48.2629 9.26994C48.2611 11.7297 47.2849 14.0882 45.5488 15.8276C43.8127 17.5669 41.4585 18.5448 39.0033 18.5466ZM39.0033 1.34835C37.4378 1.34835 35.9075 1.81352 34.6059 2.68499C33.3044 3.55647 32.2901 4.7951 31.6913 6.2442C31.0925 7.69331 30.9362 9.28778 31.2421 10.8259C31.548 12.364 32.3023 13.7767 33.4098 14.8852C34.5172 15.9938 35.9279 16.7483 37.4635 17.0535C38.999 17.3586 40.5904 17.2007 42.0364 16.5996C43.4823 15.9985 44.7178 14.9812 45.5866 13.6765C46.4553 12.3718 46.9183 10.8383 46.917 9.26994C46.9152 7.16838 46.0806 5.15351 44.5967 3.66812C43.1128 2.18273 41.1009 1.34835 39.0033 1.34835Z" />
<path id="Vector_2" d="M30.161 73.0808C29.9825 73.0808 29.8113 73.0098 29.6851 72.8834C29.5589 72.7569 29.488 72.5854 29.488 72.4066V37.8618C29.488 37.683 29.5589 37.5115 29.6851 37.3851C29.8113 37.2587 29.9825 37.1876 30.161 37.1876C30.3394 37.1876 30.5106 37.2587 30.6368 37.3851C30.763 37.5115 30.8339 37.683 30.8339 37.8618V72.4066C30.8339 72.5854 30.763 72.7569 30.6368 72.8834C30.5106 73.0098 30.3394 73.0808 30.161 73.0808Z" />
<path id="Vector_3" d="M47.8458 73.0808C47.6673 73.0808 47.4961 73.0098 47.3699 72.8834C47.2437 72.7569 47.1729 72.5854 47.1729 72.4066V37.8618C47.1729 37.683 47.2437 37.5115 47.3699 37.3851C47.4961 37.2587 47.6673 37.1876 47.8458 37.1876C48.0243 37.1876 48.1954 37.2587 48.3216 37.3851C48.4478 37.5115 48.5187 37.683 48.5187 37.8618V72.4066C48.5187 72.5854 48.4478 72.7569 48.3216 72.8834C48.1954 73.0098 48.0243 73.0808 47.8458 73.0808Z"  />
<path id="Vector_4" d="M33.1084 75.9933C32.1488 75.9915 31.229 75.6088 30.5504 74.929C29.8718 74.2491 29.4898 73.3276 29.488 72.3662C29.488 72.1874 29.5589 72.0159 29.6851 71.8895C29.8113 71.763 29.9825 71.692 30.161 71.692C30.3394 71.692 30.5106 71.763 30.6368 71.8895C30.763 72.0159 30.8339 72.1874 30.8339 72.3662C30.8339 72.9705 31.0736 73.5502 31.5001 73.9775C31.9267 74.4048 32.5052 74.6449 33.1084 74.6449C33.7117 74.6449 34.2902 74.4048 34.7168 73.9775C35.1433 73.5502 35.383 72.9705 35.383 72.3662V55.7679C35.3847 54.8065 35.7667 53.885 36.4453 53.2052C37.1239 52.5254 38.0437 52.1427 39.0034 52.1409C39.1818 52.1409 39.353 52.2119 39.4792 52.3383C39.6054 52.4648 39.6763 52.6362 39.6763 52.815C39.6763 52.9938 39.6054 53.1653 39.4792 53.2918C39.353 53.4182 39.1818 53.4892 39.0034 53.4892C38.4007 53.491 37.8231 53.7316 37.397 54.1586C36.9708 54.5856 36.7306 55.1641 36.7288 55.7679V72.3662C36.7288 73.3281 36.3474 74.2507 35.6685 74.9309C34.9895 75.6111 34.0686 75.9933 33.1084 75.9933Z" />
<path id="Vector_5" d="M44.8982 75.9933C43.9385 75.9915 43.0187 75.6088 42.3401 74.929C41.6616 74.2491 41.2796 73.3276 41.2778 72.3662V55.7679C41.2778 55.1636 41.0381 54.584 40.6116 54.1567C40.185 53.7293 39.6065 53.4892 39.0033 53.4892C38.8248 53.4892 38.6536 53.4182 38.5274 53.2918C38.4012 53.1653 38.3303 52.9938 38.3303 52.815C38.3303 52.6362 38.4012 52.4648 38.5274 52.3383C38.6536 52.2119 38.8248 52.1409 39.0033 52.1409C39.9634 52.1409 40.8843 52.523 41.5632 53.2032C42.2422 53.8834 42.6237 54.806 42.6237 55.7679V72.3662C42.6237 72.9705 42.8633 73.5502 43.2899 73.9775C43.7164 74.4048 44.2949 74.6449 44.8982 74.6449C45.5014 74.6449 46.08 74.4048 46.5065 73.9775C46.9331 73.5502 47.1727 72.9705 47.1727 72.3662C47.1727 72.1874 47.2436 72.0159 47.3698 71.8895C47.496 71.763 47.6672 71.692 47.8456 71.692C48.0241 71.692 48.1953 71.763 48.3215 71.8895C48.4477 72.0159 48.5186 72.1874 48.5186 72.3662C48.5186 73.3281 48.1371 74.2507 47.4582 74.9309C46.7792 75.6111 45.8584 75.9933 44.8982 75.9933Z"  />
<path id="Vector_6" d="M27.2134 46.9362C26.2532 46.9362 25.3324 46.5541 24.6534 45.8739C23.9745 45.1937 23.593 44.2711 23.593 43.3091V32.6436C23.5984 28.5489 25.2243 24.6234 28.1144 21.728C31.0045 18.8326 34.9228 17.2036 39.01 17.1982C39.1885 17.1982 39.3596 17.2693 39.4858 17.3957C39.612 17.5221 39.6829 17.6936 39.6829 17.8724C39.6829 18.0512 39.612 18.2227 39.4858 18.3491C39.3596 18.4756 39.1885 18.5466 39.01 18.5466C35.2792 18.5502 31.7022 20.0365 29.0642 22.6795C26.4261 25.3224 24.9425 28.906 24.9389 32.6436V43.3091C24.9389 43.9135 25.1785 44.4931 25.6051 44.9204C26.0316 45.3478 26.6102 45.5878 27.2134 45.5878C27.8167 45.5878 28.3952 45.3478 28.8217 44.9204C29.2483 44.4931 29.4879 43.9135 29.4879 43.3091C29.4879 43.1303 29.5589 42.9588 29.6851 42.8324C29.8113 42.706 29.9824 42.635 30.1609 42.635C30.3394 42.635 30.5105 42.706 30.6367 42.8324C30.7629 42.9588 30.8338 43.1303 30.8338 43.3091C30.8338 44.2711 30.4524 45.1937 29.7734 45.8739C29.0945 46.5541 28.1736 46.9362 27.2134 46.9362Z"  />
<path id="Vector_7" d="M50.7932 46.9362C49.8336 46.9344 48.9138 46.5517 48.2352 45.8719C47.5566 45.1921 47.1746 44.2705 47.1729 43.3091C47.1729 43.1303 47.2437 42.9588 47.3699 42.8324C47.4961 42.706 47.6673 42.635 47.8458 42.635C48.0243 42.635 48.1954 42.706 48.3216 42.8324C48.4478 42.9588 48.5187 43.1303 48.5187 43.3091C48.5187 43.9135 48.7583 44.4931 49.1849 44.9204C49.6114 45.3478 50.19 45.5878 50.7932 45.5878C51.3965 45.5878 51.975 45.3478 52.4016 44.9204C52.8281 44.4931 53.0677 43.9135 53.0677 43.3091V32.6436C53.0642 28.906 51.5805 25.3224 48.9425 22.6795C46.3044 20.0365 42.7275 18.5502 38.9967 18.5466C38.8182 18.5466 38.647 18.4756 38.5208 18.3491C38.3946 18.2227 38.3237 18.0512 38.3237 17.8724C38.3237 17.6936 38.3946 17.5221 38.5208 17.3957C38.647 17.2693 38.8182 17.1982 38.9967 17.1982C43.0839 17.2036 47.0021 18.8326 49.8922 21.728C52.7823 24.6234 54.4083 28.5489 54.4136 32.6436V43.3091C54.4136 44.2711 54.0322 45.1937 53.3532 45.8739C52.6743 46.5541 51.7534 46.9362 50.7932 46.9362Z"  />
<path id="Vector_8" d="M62.5897 26.1918C61.0418 26.1918 59.5287 25.7319 58.2416 24.8704C56.9546 24.0089 55.9515 22.7843 55.3592 21.3516C54.7668 19.9189 54.6118 18.3424 54.9138 16.8215C55.2158 15.3005 55.9612 13.9035 57.0557 12.8069C58.1502 11.7104 59.5447 10.9636 61.0628 10.6611C62.581 10.3586 64.1546 10.5138 65.5847 11.1073C67.0147 11.7007 68.237 12.7057 69.097 13.9951C69.9569 15.2845 70.4159 16.8004 70.4159 18.3511C70.4141 20.43 69.589 22.4233 68.1217 23.8933C66.6544 25.3634 64.6648 26.19 62.5897 26.1918ZM62.5897 11.8588C61.308 11.8588 60.0551 12.2396 58.9894 12.9529C57.9237 13.6663 57.0931 14.6803 56.6026 15.8666C56.1121 17.0529 55.9838 18.3583 56.2338 19.6177C56.4839 20.8771 57.1011 22.0339 58.0074 22.9419C58.9137 23.8499 60.0684 24.4682 61.3254 24.7187C62.5825 24.9692 63.8855 24.8406 65.0696 24.3493C66.2537 23.8579 67.2659 23.0257 67.9779 21.9581C68.69 20.8904 69.0701 19.6352 69.0701 18.3511C69.0683 16.6298 68.385 14.9795 67.17 13.7623C65.9551 12.5452 64.3078 11.8606 62.5897 11.8588Z"  />
<path id="Vector_9" d="M53.7406 73.0808C53.5621 73.0808 53.3909 73.0098 53.2647 72.8834C53.1385 72.7569 53.0676 72.5854 53.0676 72.4066V51.8847C53.0676 51.7059 53.1385 51.5344 53.2647 51.408C53.3909 51.2815 53.5621 51.2105 53.7406 51.2105C53.919 51.2105 54.0902 51.2815 54.2164 51.408C54.3426 51.5344 54.4135 51.7059 54.4135 51.8847V72.4066C54.4135 72.5854 54.3426 72.7569 54.2164 72.8834C54.0902 73.0098 53.919 73.0808 53.7406 73.0808Z" />
<path id="Vector_10" d="M71.4322 73.0808C71.2537 73.0808 71.0826 73.0098 70.9564 72.8833C70.8302 72.7569 70.7593 72.5854 70.7593 72.4066V43.4844C70.7593 43.3056 70.8302 43.1341 70.9564 43.0077C71.0826 42.8813 71.2537 42.8102 71.4322 42.8102C71.6107 42.8102 71.7818 42.8813 71.908 43.0077C72.0342 43.1341 72.1051 43.3056 72.1051 43.4844V72.4066C72.1051 72.5854 72.0342 72.7569 71.908 72.8833C71.7818 73.0098 71.6107 73.0808 71.4322 73.0808Z"  />
<path id="Vector_11" d="M56.7017 75.9933C55.7421 75.9915 54.8222 75.6088 54.1436 74.929C53.4651 74.2491 53.0831 73.3276 53.0813 72.3662C53.0813 72.1874 53.1522 72.0159 53.2784 71.8895C53.4046 71.7631 53.5758 71.692 53.7542 71.692C53.9327 71.692 54.1039 71.7631 54.2301 71.8895C54.3563 72.0159 54.4272 72.1874 54.4272 72.3662C54.4589 72.95 54.7127 73.4994 55.1364 73.9015C55.5601 74.3035 56.1215 74.5276 56.7051 74.5276C57.2887 74.5276 57.85 74.3035 58.2738 73.9015C58.6975 73.4994 58.9513 72.95 58.983 72.3662V58.4647C58.983 57.5027 59.3644 56.5801 60.0433 55.8999C60.7223 55.2197 61.6432 54.8376 62.6034 54.8376C62.7818 54.8376 62.953 54.9086 63.0792 55.0351C63.2054 55.1615 63.2763 55.333 63.2763 55.5118C63.2763 55.6906 63.2054 55.8621 63.0792 55.9885C62.953 56.1149 62.7818 56.1859 62.6034 56.1859C62.0001 56.1859 61.4216 56.426 60.995 56.8534C60.5685 57.2807 60.3288 57.8603 60.3288 58.4647V72.3662C60.327 73.3288 59.9441 74.2513 59.2641 74.9313C58.5841 75.6113 57.6625 75.9933 56.7017 75.9933Z"  />
<path id="Vector_12" d="M68.4846 75.9933C67.5244 75.9933 66.6035 75.6111 65.9246 74.9309C65.2456 74.2507 64.8642 73.3282 64.8642 72.3662V58.4647C64.8624 57.8609 64.6222 57.2823 64.196 56.8553C63.7699 56.4284 63.1924 56.1877 62.5897 56.1859C62.4112 56.1859 62.2401 56.1149 62.1139 55.9885C61.9877 55.8621 61.9167 55.6906 61.9167 55.5118C61.9167 55.333 61.9877 55.1615 62.1139 55.0351C62.2401 54.9086 62.4112 54.8376 62.5897 54.8376C63.5493 54.8394 64.4692 55.2221 65.1477 55.9019C65.8263 56.5817 66.2083 57.5032 66.2101 58.4647V72.3662C66.2101 72.9705 66.4497 73.5502 66.8763 73.9775C67.3028 74.4048 67.8814 74.6449 68.4846 74.6449C69.0879 74.6449 69.6664 74.4048 70.0929 73.9775C70.5195 73.5502 70.7591 72.9705 70.7591 72.3662C70.7591 72.1874 70.83 72.0159 70.9562 71.8895C71.0824 71.7631 71.2536 71.692 71.4321 71.692C71.6105 71.692 71.7817 71.7631 71.9079 71.8895C72.0341 72.0159 72.105 72.1874 72.105 72.3662C72.1032 73.3276 71.7212 74.2491 71.0427 74.929C70.3641 75.6088 69.4443 75.9915 68.4846 75.9933Z"  />
<path id="Vector_13" d="M74.3797 52.5589C73.4195 52.5589 72.4986 52.1767 71.8197 51.4965C71.1407 50.8163 70.7593 49.8938 70.7593 48.9318C70.7593 48.753 70.8302 48.5815 70.9564 48.4551C71.0826 48.3286 71.2537 48.2576 71.4322 48.2576C71.6107 48.2576 71.7818 48.3286 71.908 48.4551C72.0342 48.5815 72.1052 48.753 72.1052 48.9318C72.1052 49.5362 72.3448 50.1158 72.7714 50.5431C73.1979 50.9704 73.7764 51.2105 74.3797 51.2105C74.9829 51.2105 75.5614 50.9704 75.988 50.5431C76.4146 50.1158 76.6542 49.5362 76.6542 48.9318V40.2888C76.6506 36.5512 75.167 32.9676 72.5289 30.3247C69.8909 27.6817 66.3139 26.1954 62.5831 26.1918C62.4046 26.1918 62.2335 26.1208 62.1073 25.9943C61.9811 25.8679 61.9102 25.6964 61.9102 25.5176C61.9102 25.3388 61.9811 25.1673 62.1073 25.0409C62.2335 24.9145 62.4046 24.8434 62.5831 24.8434C66.6708 24.847 70.5901 26.4754 73.4806 29.3712C76.3711 32.267 77.9965 36.1936 78.0001 40.2888V48.9318C77.9983 49.8932 77.6163 50.8147 76.9377 51.4946C76.2591 52.1744 75.3393 52.5571 74.3797 52.5589Z"  />
<path id="Vector_14" d="M15.4171 26.1918C13.8692 26.1918 12.3561 25.7319 11.069 24.8704C9.78202 24.0089 8.77891 22.7843 8.18656 21.3516C7.59421 19.9189 7.43923 18.3424 7.7412 16.8215C8.04318 15.3005 8.78855 13.9035 9.88307 12.8069C10.9776 11.7104 12.3721 10.9636 13.8902 10.6611C15.4084 10.3586 16.982 10.5138 18.412 11.1073C19.8421 11.7007 21.0644 12.7057 21.9244 13.9951C22.7843 15.2845 23.2433 16.8004 23.2433 18.3511C23.2398 20.4295 22.4141 22.4217 20.9471 23.8914C19.4802 25.361 17.4916 26.1882 15.4171 26.1918ZM15.4171 11.8588C14.1354 11.8588 12.8825 12.2396 11.8168 12.9529C10.7511 13.6663 9.92048 14.6803 9.42999 15.8666C8.93951 17.0529 8.81115 18.3583 9.0612 19.6177C9.31125 20.8771 9.92847 22.0339 10.8348 22.9419C11.7411 23.8499 12.8958 24.4682 14.1528 24.7187C15.4099 24.9692 16.7129 24.8406 17.897 24.3493C19.0811 23.8579 20.0932 23.0257 20.8053 21.9581C21.5174 20.8904 21.8975 19.6352 21.8975 18.3511C21.8957 16.6298 21.2124 14.9795 19.9974 13.7623C18.7825 12.5452 17.1352 11.8606 15.4171 11.8588Z"  />
<path id="Vector_15" d="M24.2594 73.0808C24.0809 73.0808 23.9097 73.0098 23.7835 72.8834C23.6573 72.7569 23.5864 72.5854 23.5864 72.4066V51.8847C23.5864 51.7059 23.6573 51.5344 23.7835 51.408C23.9097 51.2815 24.0809 51.2105 24.2594 51.2105C24.4378 51.2105 24.609 51.2815 24.7352 51.408C24.8614 51.5344 24.9323 51.7059 24.9323 51.8847V72.4066C24.9323 72.5854 24.8614 72.7569 24.7352 72.8834C24.609 73.0098 24.4378 73.0808 24.2594 73.0808Z"  />
<path id="Vector_16" d="M6.57455 73.0808C6.39607 73.0808 6.22492 73.0098 6.09872 72.8833C5.97252 72.7569 5.90161 72.5854 5.90161 72.4066V43.4844C5.90161 43.3056 5.97252 43.1341 6.09872 43.0077C6.22492 42.8813 6.39607 42.8102 6.57455 42.8102C6.75302 42.8102 6.92418 42.8813 7.05037 43.0077C7.17657 43.1341 7.24748 43.3056 7.24748 43.4844V72.4066C7.24748 72.5854 7.17657 72.7569 7.05037 72.8833C6.92418 73.0098 6.75302 73.0808 6.57455 73.0808Z"  />
<path id="Vector_17" d="M21.312 75.9933C20.3523 75.9915 19.4325 75.6088 18.7539 74.929C18.0754 74.2491 17.6934 73.3276 17.6916 72.3662V58.4647C17.6916 57.8603 17.452 57.2807 17.0254 56.8534C16.5988 56.426 16.0203 56.1859 15.4171 56.1859C15.2386 56.1859 15.0674 56.1149 14.9412 55.9885C14.815 55.8621 14.7441 55.6906 14.7441 55.5118C14.7441 55.333 14.815 55.1615 14.9412 55.0351C15.0674 54.9086 15.2386 54.8376 15.4171 54.8376C16.3773 54.8376 17.2981 55.2197 17.9771 55.8999C18.656 56.5801 19.0375 57.5027 19.0375 58.4647V72.3662C19.0375 72.9705 19.2771 73.5502 19.7036 73.9775C20.1302 74.4048 20.7087 74.6449 21.312 74.6449C21.9152 74.6449 22.4938 74.4048 22.9203 73.9775C23.3469 73.5502 23.5865 72.9705 23.5865 72.3662C23.5865 72.1874 23.6574 72.0159 23.7836 71.8895C23.9098 71.7631 24.0809 71.692 24.2594 71.692C24.4379 71.692 24.6091 71.7631 24.7353 71.8895C24.8615 72.0159 24.9324 72.1874 24.9324 72.3662C24.9324 73.3282 24.5509 74.2507 23.872 74.9309C23.193 75.6111 22.2721 75.9933 21.312 75.9933Z"  />
<path id="Vector_18" d="M9.52201 75.9933C8.56182 75.9933 7.64094 75.6111 6.96199 74.9309C6.28303 74.2507 5.90161 73.3282 5.90161 72.3662C5.90161 72.1874 5.97252 72.0159 6.09872 71.8895C6.22492 71.7631 6.39607 71.692 6.57455 71.692C6.75302 71.692 6.92418 71.7631 7.05037 71.8895C7.17657 72.0159 7.24748 72.1874 7.24748 72.3662C7.24748 72.9705 7.48713 73.5502 7.91368 73.9775C8.34024 74.4048 8.91877 74.6449 9.52201 74.6449C10.1253 74.6449 10.7038 74.4048 11.1303 73.9775C11.5569 73.5502 11.7965 72.9705 11.7965 72.3662V58.4647C11.7983 57.5032 12.1803 56.5817 12.8589 55.9019C13.5375 55.2221 14.4573 54.8394 15.4169 54.8376C15.5954 54.8376 15.7666 54.9086 15.8928 55.0351C16.019 55.1615 16.0899 55.333 16.0899 55.5118C16.0899 55.6906 16.019 55.8621 15.8928 55.9885C15.7666 56.1149 15.5954 56.1859 15.4169 56.1859C14.8142 56.1877 14.2367 56.4284 13.8105 56.8553C13.3844 57.2823 13.1442 57.8609 13.1424 58.4647V72.3662C13.1424 73.3282 12.7609 74.2507 12.082 74.9309C11.403 75.6111 10.4822 75.9933 9.52201 75.9933Z"  />
<path id="Vector_19" d="M3.62723 52.5589C2.66759 52.5571 1.74775 52.1744 1.06918 51.4946C0.390612 50.8147 0.0086147 49.8932 0.00683594 48.9318V40.2888C0.0121775 36.1941 1.63816 32.2686 4.52825 29.3732C7.41833 26.4778 11.3366 24.8488 15.4238 24.8434C15.6023 24.8434 15.7734 24.9145 15.8996 25.0409C16.0258 25.1673 16.0967 25.3388 16.0967 25.5176C16.0967 25.6964 16.0258 25.8679 15.8996 25.9943C15.7734 26.1208 15.6023 26.1918 15.4238 26.1918C11.693 26.1954 8.11604 27.6817 5.47797 30.3247C2.8399 32.9676 1.35627 36.5512 1.35271 40.2888V48.9318C1.35271 49.5362 1.59235 50.1158 2.01891 50.5431C2.44546 50.9704 3.02399 51.2105 3.62723 51.2105C4.23047 51.2105 4.809 50.9704 5.23556 50.5431C5.66212 50.1158 5.90176 49.5362 5.90176 48.9318C5.90176 48.753 5.97267 48.5815 6.09887 48.4551C6.22507 48.3286 6.39622 48.2576 6.5747 48.2576C6.75317 48.2576 6.92432 48.3286 7.05052 48.4551C7.17672 48.5815 7.24763 48.753 7.24763 48.9318C7.24763 49.8938 6.86617 50.8163 6.18722 51.4965C5.50826 52.1767 4.58742 52.5589 3.62723 52.5589Z"  />
</g>
<defs>
<clipPath id="clip0_2671_2546">
<rect width="78" height="76" fill="white"/>
</clipPath>
</defs>
</svg>
