<svg width="106" height="101" viewBox="0 0 106 101" fill="none" xmlns="http://www.w3.org/2000/svg">
<g clipPath="url(#clip0_2969_4245)">
<path d="M10.33 40.6398C10.769 42.4639 11.7124 44.1277 13.0522 45.441C14.392 46.7544 16.0743 47.6643 17.9067 48.0669C19.7392 48.4694 21.648 48.3484 23.4149 47.7175C25.1818 47.0866 26.7356 45.9714 27.8987 44.4993C29.0619 43.0272 29.7875 41.2576 29.9925 39.3926C30.1975 37.5277 29.8738 35.6427 29.0583 33.953C28.2428 32.2634 26.9683 30.8372 25.3807 29.8376C23.793 28.8379 21.9562 28.305 20.08 28.2998C18.6066 28.313 17.1547 28.6547 15.83 29.2998" stroke="#005FA2" stroke-width="2" stroke-linecap="round" stroke-linejoin="round"/>
<path d="M30.37 95.9301V70.8701" stroke="#005FA2" stroke-width="2" stroke-linecap="round" stroke-linejoin="round"/>
<path d="M20.05 78.8096C19.5982 78.8096 19.1509 78.8985 18.7336 79.0714C18.3162 79.2443 17.937 79.4977 17.6176 79.8171C17.2981 80.1365 17.0448 80.5158 16.8719 80.9331C16.699 81.3505 16.61 81.7978 16.61 82.2496V95.8896C16.61 96.8019 16.2476 97.6769 15.6025 98.322C14.9574 98.9671 14.0824 99.3296 13.17 99.3296C12.2577 99.3296 11.3827 98.9671 10.7375 98.322C10.0924 97.6769 9.73004 96.8019 9.73004 95.8896" stroke="#005FA2" stroke-width="2" stroke-linecap="round" stroke-linejoin="round"/>
<path d="M20.05 78.8096C20.9623 78.8096 21.8374 79.172 22.4825 79.8171C23.1276 80.4622 23.49 81.3372 23.49 82.2496V95.8896C23.49 96.8019 23.8524 97.6769 24.4976 98.322C25.1427 98.9671 26.0176 99.3296 26.93 99.3296C27.8423 99.3296 28.7174 98.9671 29.3625 98.322C30.0076 97.6769 30.37 96.8019 30.37 95.8896" stroke="#005FA2" stroke-width="2" stroke-linecap="round" stroke-linejoin="round"/>
<path d="M10.31 40.6299L9.28003 41.6899L12.53 44.9399" stroke="#005FA2" stroke-width="2" stroke-linecap="round" stroke-linejoin="round"/>
<path d="M9.73001 95.9602V68.3802V66.0802V52.8902C9.73173 52.5984 9.67507 52.3092 9.56345 52.0396C9.45182 51.77 9.28746 51.5254 9.07999 51.3202L1.97 44.1702C1.6486 43.8513 1.39347 43.472 1.21939 43.0541C1.04531 42.6362 0.955719 42.1879 0.955719 41.7352C0.955719 41.2825 1.04531 40.8342 1.21939 40.4163C1.39347 39.9983 1.6486 39.619 1.97 39.3002L11.36 29.6402C12.0137 29.0427 12.8726 28.7203 13.758 28.7401C14.6434 28.76 15.4871 29.1206 16.1134 29.7468C16.7396 30.3731 17.1002 31.2167 17.12 32.1021C17.1399 32.9875 16.8175 33.8465 16.22 34.5002L10.22 40.6402" stroke="#005FA2" stroke-width="2" stroke-linecap="round" stroke-linejoin="round"/>
<path d="M77.64 40.6398C78.079 42.4639 79.0224 44.1277 80.3622 45.441C81.702 46.7544 83.3843 47.6643 85.2167 48.0669C87.0492 48.4694 88.958 48.3484 90.7249 47.7175C92.4918 47.0866 94.0456 45.9714 95.2087 44.4993C96.3719 43.0272 97.0975 41.2576 97.3025 39.3926C97.5075 37.5277 97.1838 35.6427 96.3683 33.953C95.5528 32.2634 94.2783 30.8372 92.6907 29.8376C91.103 28.8379 89.2662 28.305 87.39 28.2998C85.9166 28.313 84.4647 28.6547 83.14 29.2998" stroke="#005FA2" stroke-width="2" stroke-linecap="round" stroke-linejoin="round"/>
<path d="M97.71 95.9301V64.8701" stroke="#005FA2" stroke-width="2" stroke-linecap="round" stroke-linejoin="round"/>
<path d="M87.39 78.8096C86.9383 78.8096 86.491 78.8985 86.0736 79.0714C85.6562 79.2443 85.277 79.4977 84.9576 79.8171C84.6381 80.1365 84.3847 80.5158 84.2119 80.9331C84.039 81.3505 83.95 81.7978 83.95 82.2496V95.8896C83.95 96.8019 83.5876 97.6769 82.9424 98.322C82.2973 98.9671 81.4224 99.3296 80.51 99.3296C79.5977 99.3296 78.7227 98.9671 78.0776 98.322C77.4325 97.6769 77.07 96.8019 77.07 95.8896" stroke="#005FA2" stroke-width="2" stroke-linecap="round" stroke-linejoin="round"/>
<path d="M87.39 78.8096C88.3024 78.8096 89.1773 79.172 89.8224 79.8171C90.4676 80.4622 90.83 81.3372 90.83 82.2496V95.8896C90.83 96.8019 91.1925 97.6769 91.8376 98.322C92.4827 98.9671 93.3577 99.3296 94.27 99.3296C95.1824 99.3296 96.0573 98.9671 96.7025 98.322C97.3476 97.6769 97.71 96.8019 97.71 95.8896" stroke="#005FA2" stroke-width="2" stroke-linecap="round" stroke-linejoin="round"/>
<path d="M77.65 40.6299L76.62 41.6899L79.87 44.9399" stroke="#005FA2" stroke-width="2" stroke-linecap="round" stroke-linejoin="round"/>
<path d="M71.92 36.6499L78.75 29.6499C79.4037 29.0524 80.2627 28.73 81.1481 28.7499C82.0335 28.7698 82.8771 29.1303 83.5034 29.7566C84.1296 30.3828 84.4902 31.2264 84.5101 32.1119C84.5299 32.9973 84.2076 33.8562 83.61 34.5099L77.61 40.6499" stroke="#005FA2" stroke-width="2" stroke-linecap="round" stroke-linejoin="round"/>
<path d="M77.08 95.9301V70.8701" stroke="#005FA2" stroke-width="2" stroke-linecap="round" stroke-linejoin="round"/>
<path d="M97.71 72.3501C97.71 73.2624 98.0725 74.1374 98.7176 74.7825C99.3627 75.4277 100.238 75.7901 101.15 75.7901C102.062 75.7901 102.937 75.4277 103.582 74.7825C104.228 74.1374 104.59 73.2624 104.59 72.3501V65.5401C104.59 60.9774 102.778 56.6015 99.5529 53.3743C96.3275 50.1471 91.9527 48.3327 87.39 48.3301" stroke="#005FA2" stroke-width="2" stroke-linecap="round" stroke-linejoin="round"/>
<path d="M39.77 18.0797C40.4328 20.8661 41.942 23.379 44.0903 25.2733C46.2385 27.1676 48.9206 28.3503 51.768 28.6591C54.6155 28.968 57.4887 28.3877 59.9931 26.9981C62.4975 25.6084 64.5104 23.4775 65.7551 20.898C66.9999 18.3185 67.4156 15.4169 66.9451 12.5916C66.4746 9.76637 65.141 7.15608 63.1275 5.11917C61.114 3.08227 58.5192 1.71865 55.6996 1.21561C52.88 0.712567 49.9737 1.09478 47.38 2.30972" stroke="#005FA2" stroke-width="2" stroke-linecap="round" stroke-linejoin="round"/>
<path d="M67.55 94.6298V52.0098" stroke="#005FA2" stroke-width="2" stroke-linecap="round" stroke-linejoin="round"/>
<path d="M53.27 65.04C52.0067 65.04 50.7949 65.5412 49.9006 66.4336C49.0064 67.326 48.5026 68.5367 48.5 69.8V94.5601C48.5 95.8225 47.9985 97.0332 47.1058 97.9259C46.2132 98.8185 45.0024 99.32 43.74 99.32C42.4776 99.32 41.2669 98.8185 40.3742 97.9259C39.4815 97.0332 38.98 95.8225 38.98 94.5601" stroke="#005FA2" stroke-width="2" stroke-linecap="round" stroke-linejoin="round"/>
<path d="M53.27 65.04C54.5325 65.04 55.7432 65.5416 56.6359 66.4342C57.5285 67.3269 58.03 68.5376 58.03 69.8V94.5601C58.03 95.8225 58.5315 97.0332 59.4242 97.9259C60.3169 98.8185 61.5276 99.32 62.79 99.32C64.0525 99.32 65.2631 98.8185 66.1558 97.9259C67.0485 97.0332 67.55 95.8225 67.55 94.5601" stroke="#005FA2" stroke-width="2" stroke-linecap="round" stroke-linejoin="round"/>
<path d="M39.78 18.0801L38.35 19.5401L42.86 24.0401" stroke="#005FA2" stroke-width="2" stroke-linecap="round" stroke-linejoin="round"/>
<path d="M38.98 94.6303V56.4802V53.3003V35.0402C38.9779 34.2236 38.6546 33.4406 38.08 32.8602L28.33 22.9603C27.4372 22.0659 26.9358 20.8539 26.9358 19.5903C26.9358 18.3266 27.4372 17.1146 28.33 16.2203L41.33 2.84026C42.2357 2.00675 43.4285 1.55559 44.6591 1.5811C45.8896 1.60662 47.0628 2.10682 47.9331 2.97716C48.8034 3.8475 49.3036 5.0206 49.3292 6.25118C49.3547 7.48176 48.9035 8.67458 48.07 9.58025L39.81 18.0702" stroke="#005FA2" stroke-width="2" stroke-linecap="round" stroke-linejoin="round"/>
<path d="M67.55 61.9605C67.55 63.2229 68.0515 64.4336 68.9442 65.3263C69.8369 66.219 71.0476 66.7205 72.31 66.7205C73.5724 66.7205 74.7832 66.219 75.6758 65.3263C76.5685 64.4336 77.07 63.2229 77.07 61.9605V52.5605C77.0713 49.4316 76.4562 46.333 75.2597 43.4419C74.0632 40.5508 72.3089 37.9237 70.0969 35.7107C67.8848 33.4978 65.2585 31.7423 62.3679 30.5446C59.4772 29.3469 56.3789 28.7305 53.25 28.7305" stroke="#005FA2" stroke-width="2" stroke-linecap="round" stroke-linejoin="round"/>
</g>
<defs>
<clipPath id="clip0_2969_4245">
<rect width="105.59" height="100.32" fill="white"/>
</clipPath>
</defs>
</svg>
