<svg width="126" height="68" viewBox="0 0 126 68" fill="none" xmlns="http://www.w3.org/2000/svg">
<g id="&#229;&#156;&#150;&#229;&#177;&#164;_1" clipPath="url(#clip0_2622_2631)">
<path id="Vector" d="M34.66 60.35H30.59C30.3247 60.35 30.0704 60.2446 29.8829 60.0571C29.6953 59.8696 29.59 59.6152 29.59 59.35C29.59 59.0848 29.6953 58.8304 29.8829 58.6429C30.0704 58.4553 30.3247 58.35 30.59 58.35H34.66C34.9252 58.35 35.1795 58.4553 35.3671 58.6429C35.5546 58.8304 35.66 59.0848 35.66 59.35C35.66 59.6152 35.5546 59.8696 35.3671 60.0571C35.1795 60.2446 34.9252 60.35 34.66 60.35Z" fill="#075E9C"/>
<path id="Vector_2" d="M23.13 2H15.03C14.7648 2 14.5105 1.89466 14.3229 1.70712C14.1354 1.51959 14.03 1.26522 14.03 1C14.03 0.734784 14.1354 0.480444 14.3229 0.292908C14.5105 0.105371 14.7648 0 15.03 0H23.13C23.3953 0 23.6496 0.105371 23.8371 0.292908C24.0247 0.480444 24.13 0.734784 24.13 1C24.13 1.26522 24.0247 1.51959 23.8371 1.70712C23.6496 1.89466 23.3953 2 23.13 2Z" fill="#075E9C"/>
<path id="Vector_3" d="M38.6799 50.62H20.58C20.3147 50.62 20.0604 50.5146 19.8728 50.3271C19.6853 50.1396 19.58 49.8852 19.58 49.62C19.58 49.3548 19.6853 49.1004 19.8728 48.9129C20.0604 48.7253 20.3147 48.62 20.58 48.62H38.6799C38.9452 48.62 39.1995 48.7253 39.3871 48.9129C39.5746 49.1004 39.6799 49.3548 39.6799 49.62C39.6799 49.8852 39.5746 50.1396 39.3871 50.3271C39.1995 50.5146 38.9452 50.62 38.6799 50.62Z" fill="#075E9C"/>
<path id="Vector_4" d="M38.68 31.17H9.09998C8.83476 31.17 8.5804 31.0647 8.39287 30.8771C8.20533 30.6896 8.09998 30.4353 8.09998 30.17C8.09998 29.9048 8.20533 29.6505 8.39287 29.463C8.5804 29.2754 8.83476 29.17 9.09998 29.17H38.68C38.9452 29.17 39.1995 29.2754 39.3871 29.463C39.5746 29.6505 39.68 29.9048 39.68 30.17C39.68 30.4353 39.5746 30.6896 39.3871 30.8771C39.1995 31.0647 38.9452 31.17 38.68 31.17Z" fill="#075E9C"/>
<path id="Vector_5" d="M38.6799 11.72H20.58C20.3147 11.72 20.0604 11.6146 19.8728 11.4271C19.6853 11.2396 19.58 10.9852 19.58 10.72C19.58 10.4548 19.6853 10.2004 19.8728 10.0129C20.0604 9.82534 20.3147 9.71997 20.58 9.71997H38.6799C38.9452 9.71997 39.1995 9.82534 39.3871 10.0129C39.5746 10.2004 39.6799 10.4548 39.6799 10.72C39.6799 10.9852 39.5746 11.2396 39.3871 11.4271C39.1995 11.6146 38.9452 11.72 38.6799 11.72Z" fill="#075E9C"/>
<path id="Vector_6" d="M83.01 37.55C80.9398 37.5235 78.9403 36.7935 77.34 35.48L49.34 11.9699C49.1371 11.7989 49.0105 11.5542 48.988 11.2898C48.9655 11.0254 49.0489 10.7629 49.22 10.56C49.3911 10.3571 49.6357 10.2305 49.9002 10.2079C50.1646 10.1854 50.4271 10.2689 50.63 10.4399L78.63 33.93C79.8665 34.9857 81.4391 35.5658 83.065 35.5658C84.6909 35.5658 86.2635 34.9857 87.5 33.93L115.4 10.42C115.5 10.3353 115.617 10.2712 115.742 10.2314C115.867 10.1915 115.999 10.1768 116.13 10.1879C116.261 10.1991 116.388 10.2359 116.505 10.2963C116.622 10.3567 116.725 10.4395 116.81 10.54C116.895 10.6404 116.959 10.7566 116.999 10.8818C117.038 11.007 117.053 11.1389 117.042 11.2698C117.031 11.4007 116.994 11.5282 116.934 11.6449C116.873 11.7616 116.79 11.8653 116.69 11.95L88.75 35.42C87.1343 36.7616 85.1098 37.5129 83.01 37.55Z" fill="#075E9C"/>
<path id="Vector_7" d="M50.1 50.14C49.9531 50.1402 49.808 50.1081 49.6749 50.0458C49.5418 49.9836 49.4241 49.8928 49.33 49.7799C49.2458 49.6789 49.1824 49.5623 49.1433 49.4366C49.1043 49.311 49.0904 49.179 49.1025 49.048C49.1146 48.917 49.1524 48.7897 49.2137 48.6733C49.2751 48.557 49.3588 48.4539 49.46 48.37L71.97 29.42C72.0705 29.3353 72.1866 29.2712 72.3119 29.2314C72.4371 29.1915 72.569 29.1768 72.6999 29.1879C72.8308 29.1991 72.9583 29.2359 73.075 29.2963C73.1917 29.3567 73.2953 29.4395 73.38 29.54C73.4647 29.6404 73.5288 29.7566 73.5686 29.8818C73.6084 30.007 73.6232 30.1389 73.612 30.2698C73.6009 30.4007 73.5641 30.5282 73.5037 30.6449C73.4433 30.7616 73.3605 30.8653 73.26 30.95L50.75 49.9C50.5689 50.0549 50.3384 50.14 50.1 50.14Z" fill="#075E9C"/>
<path id="Vector_8" d="M115.94 50.14C115.706 50.1404 115.48 50.0591 115.3 49.91L92.75 30.98C92.5471 30.8089 92.4205 30.5643 92.398 30.2998C92.3755 30.0354 92.459 29.7729 92.63 29.57C92.8011 29.3671 93.0458 29.2405 93.3102 29.218C93.5746 29.1955 93.8371 29.2789 94.04 29.45L116.59 48.42C116.745 48.5529 116.856 48.7302 116.908 48.928C116.959 49.1258 116.949 49.3347 116.878 49.5264C116.807 49.7182 116.679 49.8837 116.512 50.0005C116.344 50.1174 116.144 50.18 115.94 50.18V50.14Z" fill="#075E9C"/>
<path id="Vector_9" d="M114.2 60.35H108.2C107.935 60.35 107.68 60.2447 107.493 60.0571C107.305 59.8696 107.2 59.6152 107.2 59.35C107.2 59.0848 107.305 58.8305 107.493 58.6429C107.68 58.4554 107.935 58.35 108.2 58.35H114.2C116.745 58.3474 119.186 57.3351 120.985 55.5353C122.785 53.7355 123.797 51.2953 123.8 48.75V11.59C123.797 9.04568 122.785 6.60645 120.985 4.80826C119.185 3.01007 116.744 2 114.2 2H29.05C28.7848 2 28.5305 1.89466 28.3429 1.70712C28.1554 1.51959 28.05 1.26522 28.05 1C28.05 0.734784 28.1554 0.480444 28.3429 0.292908C28.5305 0.105371 28.7848 0 29.05 0H114.2C117.274 0.00264313 120.221 1.22429 122.396 3.39697C124.571 5.56966 125.795 8.51606 125.8 11.59V48.75C125.797 51.8257 124.574 54.7747 122.4 56.9495C120.225 59.1244 117.276 60.3474 114.2 60.35ZM92.8801 60.35H73.16C72.8948 60.35 72.6405 60.2447 72.4529 60.0571C72.2654 59.8696 72.16 59.6152 72.16 59.35C72.16 59.0848 72.2654 58.8305 72.4529 58.6429C72.6405 58.4554 72.8948 58.35 73.16 58.35H92.8801C93.1453 58.35 93.3996 58.4554 93.5872 58.6429C93.7747 58.8305 93.8801 59.0848 93.8801 59.35C93.8801 59.6152 93.7747 59.8696 93.5872 60.0571C93.3996 60.2447 93.1453 60.35 92.8801 60.35ZM57.8801 60.35H40.59C40.3248 60.35 40.0705 60.2447 39.8829 60.0571C39.6954 59.8696 39.59 59.6152 39.59 59.35C39.59 59.0848 39.6954 58.8305 39.8829 58.6429C40.0705 58.4554 40.3248 58.35 40.59 58.35H57.87C58.1353 58.35 58.3896 58.4554 58.5771 58.6429C58.7647 58.8305 58.87 59.0848 58.87 59.35C58.87 59.6152 58.7647 59.8696 58.5771 60.0571C58.3896 60.2447 58.1353 60.35 57.87 60.35H57.8801Z" fill="#075E9C"/>
<path id="Vector_10" d="M24.66 40.9H1.01001C0.744793 40.9 0.490439 40.7947 0.302902 40.6071C0.115366 40.4196 0.0100098 40.1652 0.0100098 39.9C0.0100098 39.6348 0.115366 39.3804 0.302902 39.1929C0.490439 39.0054 0.744793 38.9 1.01001 38.9H24.66C24.9252 38.9 25.1796 39.0054 25.3671 39.1929C25.5547 39.3804 25.66 39.6348 25.66 39.9C25.66 40.1652 25.5547 40.4196 25.3671 40.6071C25.1796 40.7947 24.9252 40.9 24.66 40.9Z" fill="#075E9C"/>
<path id="Vector_11" d="M38.68 40.9H30.59C30.3247 40.9 30.0704 40.7947 29.8829 40.6071C29.6953 40.4196 29.59 40.1652 29.59 39.9C29.59 39.6348 29.6953 39.3804 29.8829 39.1929C30.0704 39.0054 30.3247 38.9 30.59 38.9H38.68C38.9452 38.9 39.1995 39.0054 39.3871 39.1929C39.5746 39.3804 39.68 39.6348 39.68 39.9C39.68 40.1652 39.5746 40.4196 39.3871 40.6071C39.1995 40.7947 38.9452 40.9 38.68 40.9Z" fill="#075E9C"/>
<path id="Vector_12" d="M38.68 21.42H15.03C14.7648 21.42 14.5105 21.3147 14.3229 21.1271C14.1354 20.9396 14.03 20.6853 14.03 20.42C14.03 20.1548 14.1354 19.9005 14.3229 19.713C14.5105 19.5254 14.7648 19.42 15.03 19.42H38.68C38.9452 19.42 39.1996 19.5254 39.3871 19.713C39.5747 19.9005 39.68 20.1548 39.68 20.42C39.68 20.6853 39.5747 20.9396 39.3871 21.1271C39.1996 21.3147 38.9452 21.42 38.68 21.42Z" fill="#075E9C"/>
<path id="Vector_13" d="M9.10001 21.42H1C0.734784 21.42 0.480429 21.3147 0.292892 21.1271C0.105356 20.9396 0 20.6853 0 20.42C0 20.1548 0.105356 19.9005 0.292892 19.713C0.480429 19.5254 0.734784 19.42 1 19.42H9.10001C9.36522 19.42 9.61958 19.5254 9.80711 19.713C9.99465 19.9005 10.1 20.1548 10.1 20.42C10.1 20.6853 9.99465 20.9396 9.80711 21.1271C9.61958 21.3147 9.36522 21.42 9.10001 21.42Z" fill="#075E9C"/>
<path id="Vector_14" d="M100.52 67.99C98.8088 67.9899 97.136 67.4824 95.7133 66.5315C94.2906 65.5805 93.1819 64.229 92.5275 62.6478C91.8731 61.0667 91.7024 59.3269 92.0369 57.6487C92.3715 55.9705 93.1963 54.4293 94.4071 53.2199C95.6178 52.0106 97.16 51.1876 98.8386 50.8549C100.517 50.5223 102.257 50.695 103.837 51.3512C105.418 52.0075 106.768 53.1177 107.717 54.5415C108.666 55.9653 109.172 57.6387 109.17 59.3499C109.165 61.6415 108.251 63.8376 106.63 65.457C105.009 67.0765 102.812 67.9873 100.52 67.99ZM100.52 52.6999C99.2047 52.6999 97.9191 53.09 96.8255 53.8207C95.7319 54.5514 94.8795 55.59 94.3762 56.8051C93.8729 58.0202 93.7412 59.3573 93.9978 60.6473C94.2544 61.9373 94.8877 63.1222 95.8177 64.0522C96.7478 64.9822 97.9327 65.6156 99.2227 65.8722C100.513 66.1287 101.85 65.9971 103.065 65.4937C104.28 64.9904 105.319 64.1381 106.049 63.0445C106.78 61.9509 107.17 60.6652 107.17 59.3499C107.17 57.5862 106.469 55.8948 105.222 54.6477C103.975 53.4006 102.284 52.6999 100.52 52.6999Z" fill="#075E9C"/>
<path id="Vector_15" d="M65.52 67.9899C63.8083 67.9919 62.1346 67.486 60.7105 66.5363C59.2865 65.5866 58.1763 64.2358 57.5203 62.6548C56.8644 61.0738 56.6923 59.3337 57.0257 57.6549C57.3592 55.976 58.1832 54.4338 59.3935 53.2235C60.6039 52.0131 62.146 51.1891 63.8249 50.8557C65.5038 50.5222 67.2438 50.6944 68.8248 51.3503C70.4058 52.0062 71.7566 53.1165 72.7064 54.5405C73.6561 55.9645 74.162 57.6383 74.16 59.3499C74.1547 61.6398 73.2427 63.8343 71.6236 65.4535C70.0044 67.0727 67.8098 67.9847 65.52 67.9899ZM65.52 52.6999C64.2043 52.698 62.9176 53.0863 61.8227 53.8158C60.7278 54.5453 59.8739 55.5832 59.3691 56.7981C58.8642 58.0131 58.7311 59.3505 58.9865 60.6412C59.242 61.9318 59.8746 63.1176 60.8042 64.0487C61.7338 64.9797 62.9187 65.614 64.209 65.8714C65.4992 66.1288 66.8368 65.9977 68.0525 65.4947C69.2682 64.9916 70.3074 64.1393 71.0386 63.0455C71.7697 61.9517 72.16 60.6656 72.16 59.3499C72.16 57.588 71.4607 55.898 70.2158 54.6512C68.9708 53.4044 67.2819 52.7026 65.52 52.6999Z" fill="#075E9C"/>
</g>
<defs>
<clipPath id="clip0_2622_2631">
<rect width="125.8" height="68" fill="white"/>
</clipPath>
</defs>
</svg>
