<svg viewBox="0 0 31 76" fill="currentColor" xmlns="http://www.w3.org/2000/svg">
<g id="&#229;&#156;&#150;&#229;&#177;&#164;_1" clipPath="url(#clip0_2671_2538)">
<path id="Vector" d="M15.4933 18.5466C13.6521 18.5466 11.8522 18.0025 10.3212 16.9832C8.79031 15.9639 7.59709 14.5151 6.89248 12.82C6.18787 11.1249 6.00351 9.25965 6.36272 7.46015C6.72193 5.66065 7.60857 4.00771 8.91052 2.71034C10.2125 1.41297 11.8713 0.529449 13.6771 0.171506C15.483 -0.186436 17.3548 -0.00271882 19.0559 0.699411C20.757 1.40154 22.2109 2.59055 23.2339 4.1161C24.2568 5.64164 24.8028 7.43518 24.8028 9.26994C24.801 11.7297 23.8196 14.0882 22.0741 15.8276C20.3287 17.5669 17.9618 18.5448 15.4933 18.5466ZM15.4933 1.34835C13.9194 1.34835 12.3809 1.81352 11.0723 2.68499C9.76374 3.55647 8.74395 4.7951 8.14195 6.2442C7.53996 7.69331 7.3828 9.28778 7.69034 10.8259C7.99789 12.364 8.75632 13.7767 9.86972 14.8852C10.9831 15.9938 12.4014 16.7483 13.9452 17.0535C15.4891 17.3586 17.089 17.2007 18.5428 16.5996C19.9965 15.9985 21.2386 14.9812 22.1121 13.6765C22.9855 12.3718 23.451 10.8383 23.4497 9.26994C23.4479 7.16838 22.6088 5.15351 21.1169 3.66812C19.625 2.18273 17.6023 1.34835 15.4933 1.34835Z" />
<path id="Vector_2" d="M6.60332 73.0808C6.42388 73.0808 6.25181 73.0098 6.12493 72.8834C5.99805 72.7569 5.92676 72.5854 5.92676 72.4066V37.8618C5.92676 37.683 5.99805 37.5115 6.12493 37.3851C6.25181 37.2587 6.42388 37.1876 6.60332 37.1876C6.78275 37.1876 6.95485 37.2587 7.08173 37.3851C7.20861 37.5115 7.27988 37.683 7.27988 37.8618V72.4066C7.27988 72.5854 7.20861 72.7569 7.08173 72.8834C6.95485 73.0098 6.78275 73.0808 6.60332 73.0808Z"  />
<path id="Vector_3" d="M24.3899 73.0808C24.2105 73.0808 24.0384 73.0098 23.9115 72.8834C23.7847 72.7569 23.7134 72.5854 23.7134 72.4066V37.8618C23.7134 37.683 23.7847 37.5115 23.9115 37.3851C24.0384 37.2587 24.2105 37.1876 24.3899 37.1876C24.5694 37.1876 24.7415 37.2587 24.8684 37.3851C24.9953 37.5115 25.0665 37.683 25.0665 37.8618V72.4066C25.0665 72.5854 24.9953 72.7569 24.8684 72.8834C24.7415 73.0098 24.5694 73.0808 24.3899 73.0808Z"  />
<path id="Vector_4" d="M9.56666 75.9933C8.60185 75.9915 7.67707 75.6088 6.99485 74.929C6.31262 74.2491 5.92855 73.3276 5.92676 72.3662C5.92676 72.1874 5.99805 72.0159 6.12493 71.8895C6.25181 71.763 6.42388 71.692 6.60332 71.692C6.78275 71.692 6.95485 71.763 7.08173 71.8895C7.20861 72.0159 7.27988 72.1874 7.27988 72.3662C7.31173 72.95 7.56691 73.4994 7.9929 73.9015C8.41889 74.3035 8.98331 74.5276 9.57004 74.5276C10.1568 74.5276 10.7212 74.3035 11.1472 73.9015C11.5732 73.4994 11.8284 72.95 11.8602 72.3662V55.7679C11.8602 54.806 12.2437 53.8834 12.9263 53.2032C13.6089 52.523 14.5347 52.1409 15.5001 52.1409C15.6795 52.1409 15.8516 52.2119 15.9785 52.3383C16.1054 52.4648 16.1767 52.6362 16.1767 52.815C16.1767 52.9938 16.1054 53.1653 15.9785 53.2918C15.8516 53.4182 15.6795 53.4892 15.5001 53.4892C14.8936 53.4892 14.312 53.7293 13.8831 54.1567C13.4543 54.584 13.2133 55.1636 13.2133 55.7679V72.3662C13.2115 73.3288 12.8266 74.2513 12.1429 74.9313C11.4592 75.6113 10.5326 75.9933 9.56666 75.9933Z"  />
<path id="Vector_5" d="M21.4267 75.9933C20.4614 75.9933 19.5355 75.6111 18.8529 74.9309C18.1703 74.2507 17.7868 73.3281 17.7868 72.3662V55.7679C17.785 55.1641 17.5435 54.5856 17.1151 54.1586C16.6866 53.7316 16.106 53.491 15.5 53.4892C15.3206 53.4892 15.1485 53.4182 15.0216 53.2918C14.8947 53.1653 14.8235 52.9938 14.8235 52.815C14.8235 52.6362 14.8947 52.4648 15.0216 52.3383C15.1485 52.2119 15.3206 52.1409 15.5 52.1409C16.4649 52.1427 17.3896 52.5254 18.0718 53.2052C18.7541 53.885 19.1382 54.8065 19.1399 55.7679V72.3662C19.1399 72.9705 19.3808 73.5502 19.8097 73.9775C20.2385 74.4048 20.8202 74.6449 21.4267 74.6449C22.0332 74.6449 22.6149 74.4048 23.0437 73.9775C23.4726 73.5502 23.7135 72.9705 23.7135 72.3662C23.7135 72.1874 23.7847 72.0159 23.9116 71.8895C24.0385 71.763 24.2106 71.692 24.39 71.692C24.5695 71.692 24.7416 71.763 24.8685 71.8895C24.9953 72.0159 25.0666 72.1874 25.0666 72.3662C25.0648 73.3276 24.6807 74.2491 23.9985 74.929C23.3163 75.6088 22.3915 75.9915 21.4267 75.9933Z" />
<path id="Vector_6" d="M3.63988 46.9362C2.67507 46.9344 1.75029 46.5517 1.06807 45.8719C0.385843 45.1921 0.00178835 44.2705 0 43.3091V32.6436C0.00358305 28.5484 1.63777 24.6218 4.5438 21.726C7.44984 18.8302 11.3902 17.2018 15.5 17.1982C15.6794 17.1982 15.8515 17.2693 15.9784 17.3957C16.1053 17.5221 16.1766 17.6936 16.1766 17.8724C16.1766 18.0512 16.1053 18.2227 15.9784 18.3491C15.8515 18.4756 15.6794 18.5466 15.5 18.5466C11.7491 18.5502 8.15286 20.0365 5.50058 22.6795C2.84831 25.3224 1.3567 28.906 1.35312 32.6436V43.3091C1.35312 43.9135 1.59404 44.4931 2.02289 44.9204C2.45174 45.3478 3.03339 45.5878 3.63988 45.5878C4.24637 45.5878 4.82803 45.3478 5.25689 44.9204C5.68574 44.4931 5.92666 43.9135 5.92666 43.3091C5.92666 43.1303 5.99795 42.9588 6.12483 42.8324C6.25171 42.706 6.42378 42.635 6.60322 42.635C6.78265 42.635 6.95475 42.706 7.08163 42.8324C7.20851 42.9588 7.27978 43.1303 7.27978 43.3091C7.27978 44.2711 6.8963 45.1936 6.21369 45.8739C5.53108 46.5541 4.60524 46.9362 3.63988 46.9362Z"  />
<path id="Vector_7" d="M27.3533 46.9362C26.3879 46.9362 25.4621 46.5541 24.7795 45.8739C24.0969 45.1936 23.7134 44.2711 23.7134 43.3091C23.7134 43.1303 23.7847 42.9588 23.9116 42.8324C24.0384 42.706 24.2105 42.635 24.39 42.635C24.5694 42.635 24.7415 42.706 24.8684 42.8324C24.9953 42.9588 25.0665 43.1303 25.0665 43.3091C25.0665 43.9135 25.3075 44.4931 25.7363 44.9204C26.1652 45.3478 26.7468 45.5878 27.3533 45.5878C27.9598 45.5878 28.5415 45.3478 28.9703 44.9204C29.3992 44.4931 29.6401 43.9135 29.6401 43.3091V32.6436C29.6365 28.906 28.1449 25.3224 25.4926 22.6795C22.8403 20.0365 19.2441 18.5502 15.4932 18.5466C15.3138 18.5466 15.1417 18.4756 15.0148 18.3491C14.8879 18.2227 14.8167 18.0512 14.8167 17.8724C14.8167 17.6936 14.8879 17.5221 15.0148 17.3957C15.1417 17.2693 15.3138 17.1982 15.4932 17.1982C19.603 17.2018 23.5434 18.8302 26.4494 21.726C29.3554 24.6218 30.9896 28.5484 30.9932 32.6436V43.3091C30.9914 44.2705 30.6073 45.1921 29.9251 45.8719C29.2429 46.5517 28.3181 46.9344 27.3533 46.9362Z" />
</g>
<defs>
<clipPath id="clip0_2671_2538">
<rect width="31" height="76" fill="white"/>
</clipPath>
</defs>
</svg>
