<svg xmlns="http://www.w3.org/2000/svg" viewBox="0 0 107 76" fill="currentColor">
  <g clipPath="url(#clip0_2622_2445)">
    <path d="M84.4324 76H36.0892C35.8636 76 35.6471 75.9101 35.4875 75.75C35.3279 75.5899 35.2383 75.3728 35.2383 75.1464V0.887668C35.2383 0.661292 35.3279 0.444201 35.4875 0.28413C35.6471 0.124058 35.8636 0.0341187 36.0892 0.0341187H84.4324C84.6581 0.0341187 84.8746 0.124058 85.0341 0.28413C85.1937 0.444201 85.2834 0.661292 85.2834 0.887668V75.1464C85.2834 75.3728 85.1937 75.5899 85.0341 75.75C84.8746 75.9101 84.6581 76 84.4324 76ZM36.9402 74.2929H83.5815V1.74122H36.9402V74.2929Z" />
    <path d="M70.0513 76C69.8256 76 69.6091 75.9101 69.4496 75.75C69.29 75.5899 69.2003 75.3728 69.2003 75.1464V49.0449H51.3301V75.1464C51.3301 75.3728 51.2405 75.5899 51.0809 75.75C50.9213 75.9101 50.7048 76 50.4791 76C50.2534 76 50.037 75.9101 49.8774 75.75C49.7178 75.5899 49.6282 75.3728 49.6282 75.1464V48.1914C49.6282 47.965 49.7178 47.7479 49.8774 47.5878C50.037 47.4278 50.2534 47.3378 50.4791 47.3378H70.0513C70.277 47.3378 70.4934 47.4278 70.653 47.5878C70.8126 47.7479 70.9022 47.965 70.9022 48.1914V75.1464C70.9022 75.2585 70.8802 75.3695 70.8375 75.4731C70.7947 75.5766 70.732 75.6707 70.653 75.75C70.574 75.8293 70.4802 75.8921 70.3769 75.935C70.2737 75.9779 70.163 76 70.0513 76Z" />
    <path d="M76.0165 20.0157H71.1234C70.8977 20.0157 70.6813 19.9258 70.5217 19.7657C70.3621 19.6057 70.2725 19.3885 70.2725 19.1622V10.6267C70.2725 10.4003 70.3621 10.1832 70.5217 10.0231C70.6813 9.86307 70.8977 9.77313 71.1234 9.77313H76.0165C76.2421 9.77313 76.4586 9.86307 76.6182 10.0231C76.7778 10.1832 76.8674 10.4003 76.8674 10.6267V19.1622C76.8674 19.3885 76.7778 19.6057 76.6182 19.7657C76.4586 19.9258 76.2421 20.0157 76.0165 20.0157ZM71.9744 18.3086H75.1655V11.4802H71.9744V18.3086Z" />
    <path d="M62.7074 20.0157H57.8143C57.5887 20.0157 57.3722 19.9258 57.2126 19.7657C57.053 19.6057 56.9634 19.3885 56.9634 19.1622V10.6267C56.9634 10.4003 57.053 10.1832 57.2126 10.0231C57.3722 9.86307 57.5887 9.77313 57.8143 9.77313H62.7074C62.9331 9.77313 63.1495 9.86307 63.3091 10.0231C63.4687 10.1832 63.5583 10.4003 63.5583 10.6267V19.1622C63.5583 19.3885 63.4687 19.6057 63.3091 19.7657C63.1495 19.9258 62.9331 20.0157 62.7074 20.0157ZM58.6653 18.3086H61.8564V11.4802H58.6653V18.3086Z"  />
    <path d="M49.3983 20.0157H44.5053C44.2796 20.0157 44.0631 19.9258 43.9035 19.7657C43.7439 19.6057 43.6543 19.3885 43.6543 19.1622V10.6267C43.6543 10.4003 43.7439 10.1832 43.9035 10.0231C44.0631 9.86307 44.2796 9.77313 44.5053 9.77313H49.3983C49.624 9.77313 49.8404 9.86307 50 10.0231C50.1596 10.1832 50.2493 10.4003 50.2493 10.6267V19.1622C50.2493 19.3885 50.1596 19.6057 50 19.7657C49.8404 19.9258 49.624 20.0157 49.3983 20.0157ZM45.3562 18.3086H48.5473V11.4802H45.3562V18.3086Z"  />
    <path d="M76.0165 35.354H71.1234C70.8977 35.354 70.6813 35.2641 70.5217 35.104C70.3621 34.9439 70.2725 34.7268 70.2725 34.5004V25.9137C70.2725 25.6874 70.3621 25.4703 70.5217 25.3102C70.6813 25.1501 70.8977 25.0602 71.1234 25.0602H76.0165C76.2421 25.0602 76.4586 25.1501 76.6182 25.3102C76.7778 25.4703 76.8674 25.6874 76.8674 25.9137V34.5004C76.8674 34.7268 76.7778 34.9439 76.6182 35.104C76.4586 35.2641 76.2421 35.354 76.0165 35.354ZM71.9744 33.6469H75.1655V26.7673H71.9744V33.6469Z" />
    <path d="M62.7074 35.354H57.8143C57.5887 35.354 57.3722 35.2641 57.2126 35.104C57.053 34.9439 56.9634 34.7268 56.9634 34.5004V25.9137C56.9634 25.6874 57.053 25.4703 57.2126 25.3102C57.3722 25.1501 57.5887 25.0602 57.8143 25.0602H62.7074C62.9331 25.0602 63.1495 25.1501 63.3091 25.3102C63.4687 25.4703 63.5583 25.6874 63.5583 25.9137V34.5004C63.5583 34.7268 63.4687 34.9439 63.3091 35.104C63.1495 35.2641 62.9331 35.354 62.7074 35.354ZM58.6653 33.6469H61.8564V26.7673H58.6653V33.6469Z" />
    <path d="M49.3983 35.354H44.5053C44.2796 35.354 44.0631 35.2641 43.9035 35.104C43.7439 34.9439 43.6543 34.7268 43.6543 34.5004V25.9137C43.6543 25.6874 43.7439 25.4703 43.9035 25.3102C44.0631 25.1501 44.2796 25.0602 44.5053 25.0602H49.3983C49.624 25.0602 49.8404 25.1501 50 25.3102C50.1596 25.4703 50.2493 25.6874 50.2493 25.9137V34.5004C50.2493 34.7268 50.1596 34.9439 50 35.104C49.8404 35.2641 49.624 35.354 49.3983 35.354ZM45.3562 33.6469H48.5473V26.7673H45.3562V33.6469Z"  />
    <path d="M27.4691 35.354H22.5761C22.3504 35.354 22.1339 35.2641 21.9743 35.104C21.8148 34.9439 21.7251 34.7268 21.7251 34.5004V25.9137C21.7251 25.6874 21.8148 25.4703 21.9743 25.3102C22.1339 25.1501 22.3504 25.0602 22.5761 25.0602H27.4691C27.6948 25.0602 27.9112 25.1501 28.0708 25.3102C28.2304 25.4703 28.3201 25.6874 28.3201 25.9137V34.5004C28.3201 34.7268 28.2304 34.9439 28.0708 35.104C27.9112 35.2641 27.6948 35.354 27.4691 35.354ZM23.427 33.6469H26.6181V26.7673H23.427V33.6469Z" />
    <path d="M27.4691 50.6838H22.5761C22.3504 50.6838 22.1339 50.5938 21.9743 50.4337C21.8148 50.2737 21.7251 50.0566 21.7251 49.8302V41.2435C21.7251 41.0171 21.8148 40.8 21.9743 40.6399C22.1339 40.4799 22.3504 40.39 22.5761 40.39H27.4691C27.6948 40.39 27.9112 40.4799 28.0708 40.6399C28.2304 40.8 28.3201 41.0171 28.3201 41.2435V49.8302C28.3201 50.0566 28.2304 50.2737 28.0708 50.4337C27.9112 50.5938 27.6948 50.6838 27.4691 50.6838ZM23.427 48.9767H26.6181V42.0971H23.427V48.9767Z"  />
    <path d="M14.16 50.6838H9.26698C9.04129 50.6838 8.82484 50.5938 8.66526 50.4337C8.50567 50.2737 8.41602 50.0566 8.41602 49.8302V41.2435C8.41602 41.0171 8.50567 40.8 8.66526 40.6399C8.82484 40.4799 9.04129 40.39 9.26698 40.39H14.16C14.3857 40.39 14.6021 40.4799 14.7617 40.6399C14.9213 40.8 15.011 41.0171 15.011 41.2435V49.8302C15.011 50.0566 14.9213 50.2737 14.7617 50.4337C14.6021 50.5938 14.3857 50.6838 14.16 50.6838ZM10.1179 48.9767H13.309V42.0971H10.1179V48.9767Z"  />
    <path d="M36.0893 76H0.850962C0.625273 76 0.408827 75.9101 0.24924 75.75C0.0896541 75.5899 0 75.3728 0 75.1465V24.5054C0 24.279 0.0896541 24.0619 0.24924 23.9019C0.408827 23.7418 0.625273 23.6519 0.850962 23.6519C1.07665 23.6519 1.2931 23.7418 1.45268 23.9019C1.61227 24.0619 1.70192 24.279 1.70192 24.5054V74.2929H36.0893C36.315 74.2929 36.5315 74.3828 36.691 74.5429C36.8506 74.703 36.9403 74.9201 36.9403 75.1465C36.9403 75.3728 36.8506 75.5899 36.691 75.75C36.5315 75.9101 36.315 76 36.0893 76Z"  />
    <path d="M97.7414 50.6838H92.8739C92.6482 50.6838 92.4318 50.5938 92.2722 50.4337C92.1126 50.2737 92.0229 50.0566 92.0229 49.8302V41.2435C92.0229 41.0171 92.1126 40.8 92.2722 40.6399C92.4318 40.4799 92.6482 40.39 92.8739 40.39H97.7755C98.0012 40.39 98.2176 40.4799 98.3772 40.6399C98.5368 40.8 98.6264 41.0171 98.6264 41.2435V49.8302C98.6265 49.9452 98.6034 50.0591 98.5585 50.1649C98.5137 50.2708 98.4479 50.3664 98.3653 50.4461C98.2826 50.5259 98.1847 50.588 98.0775 50.6288C97.9703 50.6697 97.856 50.6884 97.7414 50.6838ZM93.6908 48.9767H96.8905V42.0971H93.7249L93.6908 48.9767Z"  />
    <path d="M106.149 76H70.9193C70.6936 76 70.4772 75.91 70.3176 75.75C70.158 75.5899 70.0684 75.3728 70.0684 75.1464C70.0684 74.92 70.158 74.7029 70.3176 74.5429C70.4772 74.3828 70.6936 74.2929 70.9193 74.2929H105.298V35.0808L92.5338 30.0278C92.3243 29.9458 92.1556 29.784 92.0648 29.5777C91.9739 29.3713 91.9681 29.1373 92.0487 28.9267C92.0891 28.8217 92.1499 28.7257 92.2275 28.6443C92.3051 28.5629 92.398 28.4977 92.5009 28.4524C92.6037 28.4072 92.7144 28.3829 92.8267 28.3808C92.939 28.3787 93.0505 28.3989 93.1549 28.4402L106.49 33.7066C106.648 33.7699 106.784 33.8794 106.879 34.0209C106.975 34.1624 107.026 34.3295 107.026 34.5004V75.1464C107.026 75.2607 107.003 75.3738 106.959 75.4791C106.914 75.5844 106.849 75.6796 106.767 75.7592C106.686 75.8388 106.589 75.9011 106.483 75.9425C106.376 75.9838 106.263 76.0034 106.149 76Z" />
    <path d="M0.850938 25.359C0.653418 25.3575 0.462565 25.2871 0.311101 25.16C0.159636 25.0328 0.056996 24.8567 0.0207766 24.6619C-0.0154427 24.4672 0.0170201 24.2658 0.112591 24.0925C0.208162 23.9191 0.360887 23.7844 0.544591 23.7116L27.1627 13.1959C27.3701 13.1245 27.597 13.1361 27.7961 13.2285C27.9952 13.3208 28.151 13.4866 28.2311 13.6914C28.3113 13.8961 28.3095 14.124 28.2261 14.3275C28.1428 14.531 27.9844 14.6944 27.7839 14.7835L1.16579 25.2992C1.06593 25.3402 0.958833 25.3606 0.850938 25.359Z"  />
  </g>
  <defs>
    <clipPath id="clip0_2622_2445">
      <rect width="107" height="76" fill="white"/>
    </clipPath>
  </defs>
</svg>