<svg width="105" height="120" viewBox="0 0 105 120" fill="none" xmlns="http://www.w3.org/2000/svg">
<g id="&#229;&#156;&#150;&#229;&#177;&#164;_1" clipPath="url(#clip0_2625_2400)">
<path id="Vector" d="M37.853 24.188C37.6711 24.1871 37.4935 24.1323 37.3427 24.0307C37.1918 23.929 37.0744 23.785 37.0053 23.6167L27.9383 1.27161C27.8454 1.04555 27.8461 0.791867 27.9403 0.566357C28.0345 0.340846 28.2144 0.161985 28.4404 0.0691191C28.6665 -0.0237464 28.9202 -0.0230068 29.1457 0.0711718C29.3712 0.16535 29.5501 0.345259 29.6429 0.571313L38.6915 22.9256C38.7827 23.1517 38.7806 23.4047 38.6856 23.6292C38.5906 23.8537 38.4105 24.0315 38.1847 24.1235C38.0791 24.1653 37.9666 24.1871 37.853 24.188Z" fill="#0363A6"/>
<path id="Vector_2" d="M52.0801 20.9353C51.8358 20.9353 51.6014 20.8382 51.4286 20.6654C51.2558 20.4926 51.1587 20.2582 51.1587 20.0138V1.08731C51.1587 0.842927 51.2558 0.608553 51.4286 0.435748C51.6014 0.262943 51.8358 0.165863 52.0801 0.165863C52.3245 0.165863 52.5589 0.262943 52.7317 0.435748C52.9045 0.608553 53.0016 0.842927 53.0016 1.08731V20.0138C53.0016 20.2582 52.9045 20.4926 52.7317 20.6654C52.5589 20.8382 52.3245 20.9353 52.0801 20.9353Z" fill="#0363A6"/>
<path id="Vector_3" d="M24.6395 29.4218C24.5182 29.4225 24.398 29.3992 24.2857 29.3534C24.1735 29.3075 24.0713 29.24 23.9852 29.1546L13.6835 18.8067C13.587 18.7241 13.5087 18.6225 13.4534 18.5081C13.3981 18.3938 13.367 18.2693 13.3621 18.1424C13.3572 18.0155 13.3786 17.889 13.4249 17.7707C13.4712 17.6525 13.5415 17.5451 13.6313 17.4553C13.7211 17.3655 13.8285 17.2952 13.9467 17.2489C14.065 17.2026 14.1915 17.1812 14.3184 17.1861C14.4453 17.191 14.5698 17.2221 14.6841 17.2774C14.7985 17.3327 14.9001 17.411 14.9827 17.5075L25.2937 27.8738C25.4653 28.0464 25.5617 28.2799 25.5617 28.5234C25.5617 28.7668 25.4653 29.0004 25.2937 29.173C25.1168 29.3388 24.8818 29.4281 24.6395 29.4218Z" fill="#0363A6"/>
<path id="Vector_4" d="M66.3349 24.188C66.2151 24.1895 66.0962 24.1675 65.9848 24.1235C65.759 24.0315 65.5789 23.8537 65.484 23.6292C65.389 23.4047 65.3868 23.1517 65.478 22.9256L74.545 0.57131C74.591 0.45938 74.6586 0.357601 74.7439 0.271787C74.8292 0.185973 74.9306 0.117802 75.0422 0.0711694C75.1539 0.0245369 75.2737 0.000355778 75.3947 3.89685e-06C75.5157 -0.000347985 75.6356 0.0231343 75.7475 0.0691166C75.8594 0.115099 75.9612 0.182681 76.047 0.267998C76.1329 0.353314 76.201 0.454693 76.2477 0.566354C76.2943 0.678016 76.3185 0.797772 76.3188 0.918779C76.3192 1.03979 76.2957 1.15967 76.2497 1.2716L67.1919 23.6167C67.1221 23.7864 67.0034 23.9315 66.8507 24.0332C66.698 24.135 66.5184 24.1889 66.3349 24.188Z" fill="#0363A6"/>
<path id="Vector_5" d="M79.53 29.4218C79.2883 29.4208 79.0567 29.3248 78.885 29.1546C78.7134 28.9819 78.6171 28.7484 78.6171 28.5049C78.6171 28.2615 78.7134 28.028 78.885 27.8553L89.1868 17.5075C89.3591 17.334 89.5933 17.236 89.8378 17.2351C90.0823 17.2343 90.3171 17.3306 90.4906 17.5029C90.6642 17.6752 90.7621 17.9093 90.763 18.1538C90.7639 18.3984 90.6675 18.6332 90.4953 18.8067L80.1566 29.1546C79.9896 29.3204 79.7654 29.416 79.53 29.4218Z" fill="#0363A6"/>
<path id="Vector_6" d="M82.6906 74.0567C80.6859 74.0567 78.7262 73.4622 77.0594 72.3485C75.3926 71.2347 74.0934 69.6517 73.3262 67.7996C72.5591 65.9475 72.3584 63.9095 72.7495 61.9433C73.1406 59.9772 74.1059 58.1711 75.5234 56.7536C76.941 55.3361 78.747 54.3707 80.7132 53.9796C82.6794 53.5885 84.7173 53.7892 86.5694 54.5564C88.4215 55.3236 90.0046 56.6227 91.1183 58.2896C92.2321 59.9564 92.8265 61.9161 92.8265 63.9208C92.8265 66.609 91.7586 69.1871 89.8578 71.0879C87.9569 72.9888 85.3788 74.0567 82.6906 74.0567ZM82.6906 55.6277C81.0504 55.6277 79.447 56.1141 78.0833 57.0254C76.7195 57.9366 75.6565 59.2318 75.0289 60.7472C74.4012 62.2625 74.237 63.93 74.5569 65.5387C74.8769 67.1473 75.6668 68.625 76.8266 69.7848C77.9864 70.9446 79.464 71.7345 81.0727 72.0544C82.6814 72.3744 84.3489 72.2102 85.8642 71.5825C87.3796 70.9548 88.6747 69.8919 89.586 68.5281C90.4972 67.1643 90.9836 65.561 90.9836 63.9208C90.9848 62.8309 90.7712 61.7516 90.355 60.7443C89.9388 59.7371 89.3281 58.8218 88.5579 58.0508C87.7877 57.2797 86.8731 56.668 85.8663 56.2507C84.8596 55.8333 83.7804 55.6185 82.6906 55.6185V55.6277Z" fill="#0363A6"/>
<path id="Vector_7" d="M76.3603 116.194C76.1159 116.194 75.8815 116.097 75.7087 115.925C75.5359 115.752 75.4388 115.517 75.4388 115.273C75.4388 115.029 75.5359 114.794 75.7087 114.621C75.8815 114.449 76.1159 114.352 76.3603 114.352C76.9566 114.352 77.5285 114.115 77.9501 113.693C78.3717 113.271 78.6086 112.699 78.6086 112.103V96.1529C78.6111 95.0711 79.0419 94.0342 79.8069 93.2692C80.5719 92.5042 81.6088 92.0734 82.6906 92.0709C82.935 92.0709 83.1694 92.168 83.3422 92.3408C83.515 92.5136 83.6121 92.748 83.6121 92.9924C83.6121 93.2368 83.515 93.4711 83.3422 93.6439C83.1694 93.8167 82.935 93.9138 82.6906 93.9138C82.0968 93.9138 81.5273 94.1497 81.1073 94.5696C80.6874 94.9896 80.4515 95.5591 80.4515 96.1529V112.103C80.4515 113.188 80.0205 114.229 79.2532 114.996C78.486 115.763 77.4453 116.194 76.3603 116.194Z" fill="#0363A6"/>
<path id="Vector_8" d="M76.3603 116.194C75.2911 116.192 74.2652 115.772 73.5022 115.022C72.7393 114.273 72.3 113.255 72.2783 112.186V82.1654C72.2783 81.921 72.3754 81.6866 72.5482 81.5138C72.721 81.341 72.9554 81.244 73.1998 81.244C73.4441 81.244 73.6785 81.341 73.8513 81.5138C74.0241 81.6866 74.1212 81.921 74.1212 82.1654V112.103C74.12 112.398 74.177 112.69 74.289 112.963C74.401 113.236 74.5657 113.484 74.7737 113.692C74.9818 113.901 75.229 114.067 75.5013 114.18C75.7736 114.293 76.0655 114.352 76.3603 114.352C76.6047 114.352 76.8391 114.449 77.0119 114.621C77.1847 114.794 77.2818 115.029 77.2818 115.273C77.2818 115.517 77.1847 115.752 77.0119 115.925C76.8391 116.097 76.6047 116.194 76.3603 116.194Z" fill="#0363A6"/>
<path id="Vector_9" d="M89.0209 105.718C87.9375 105.715 86.8992 105.283 86.134 104.516C85.3687 103.749 84.9389 102.71 84.9389 101.626V96.153C84.9389 95.8582 84.8807 95.5662 84.7676 95.294C84.6545 95.0217 84.4888 94.7745 84.2799 94.5664C84.071 94.3584 83.823 94.1936 83.5503 94.0817C83.2776 93.9697 82.9854 93.9126 82.6906 93.9139C82.4462 93.9139 82.2119 93.8168 82.0391 93.644C81.8663 93.4712 81.7692 93.2368 81.7692 92.9924C81.7692 92.748 81.8663 92.5137 82.0391 92.3409C82.2119 92.168 82.4462 92.071 82.6906 92.071C83.7741 92.071 84.8133 92.5007 85.5803 93.266C86.3473 94.0313 86.7794 95.0695 86.7818 96.153V101.59C86.7622 101.896 86.8056 102.204 86.9095 102.493C87.0133 102.782 87.1754 103.047 87.3857 103.271C87.5959 103.496 87.85 103.674 88.132 103.797C88.4141 103.919 88.7182 103.982 89.0256 103.982C89.3329 103.982 89.637 103.919 89.9191 103.797C90.2011 103.674 90.4552 103.496 90.6655 103.271C90.8757 103.047 91.0378 102.782 91.1416 102.493C91.2455 102.204 91.2889 101.896 91.2693 101.59V77.2817C91.2677 76.8931 91.3435 76.508 91.4922 76.1489C91.6409 75.7898 91.8596 75.4638 92.1354 75.1901L101.663 65.6531C102.082 65.2319 102.317 64.6621 102.317 64.0682C102.317 63.4743 102.082 62.9045 101.663 62.4833C101.235 62.0749 100.666 61.8471 100.074 61.8471C99.4818 61.8471 98.9126 62.0749 98.4842 62.4833L89.3711 71.5503C89.1985 71.722 88.9649 71.8183 88.7215 71.8183C88.4781 71.8183 88.2445 71.722 88.0719 71.5503C87.9855 71.4647 87.9169 71.3628 87.8702 71.2505C87.8234 71.1382 87.7993 71.0178 87.7993 70.8961C87.7993 70.7745 87.8234 70.654 87.8702 70.5418C87.9169 70.4295 87.9855 70.3276 88.0719 70.2419L97.1758 61.138C97.9521 60.4171 98.9778 60.0254 100.037 60.0454C101.096 60.0654 102.107 60.4955 102.855 61.2452C103.604 61.995 104.032 63.0059 104.05 64.0651C104.069 65.1244 103.675 66.1495 102.953 66.9247L93.4255 76.4893C93.3222 76.5936 93.2405 76.7174 93.1852 76.8534C93.1298 76.9893 93.1019 77.1349 93.1029 77.2817V101.709C93.0813 102.778 92.642 103.796 91.879 104.546C91.1161 105.295 90.0902 105.715 89.0209 105.718Z" fill="#0363A6"/>
<path id="Vector_10" d="M21.4789 74.0567C19.4743 74.0567 17.5146 73.4622 15.8477 72.3485C14.1809 71.2347 12.8817 69.6517 12.1146 67.7996C11.3474 65.9475 11.1467 63.9095 11.5378 61.9433C11.9289 59.9772 12.8942 58.1711 14.3118 56.7536C15.7293 55.3361 17.5354 54.3707 19.5015 53.9796C21.4677 53.5885 23.5057 53.7892 25.3578 54.5564C27.2099 55.3236 28.7929 56.6227 29.9066 58.2896C31.0204 59.9564 31.6149 61.9161 31.6149 63.9208C31.6149 66.609 30.547 69.1871 28.6461 71.0879C26.7453 72.9888 24.1672 74.0567 21.4789 74.0567ZM21.4789 55.6277C19.8387 55.6277 18.2354 56.1141 16.8716 57.0254C15.5078 57.9366 14.4449 59.2318 13.8172 60.7472C13.1895 62.2625 13.0253 63.93 13.3453 65.5387C13.6653 67.1473 14.4551 68.625 15.6149 69.7848C16.7747 70.9446 18.2524 71.7345 19.8611 72.0544C21.4697 72.3744 23.1372 72.2102 24.6525 71.5825C26.1679 70.9548 27.4631 69.8919 28.3743 68.5281C29.2856 67.1643 29.772 65.561 29.772 63.9208C29.7732 62.8309 29.5596 61.7516 29.1433 60.7443C28.7271 59.7371 28.1165 58.8218 27.3463 58.0508C26.5761 57.2797 25.6614 56.668 24.6547 56.2507C23.6479 55.8333 22.5688 55.6185 21.4789 55.6185V55.6277Z" fill="#0363A6"/>
<path id="Vector_11" d="M27.8001 116.194C26.7166 116.192 25.6783 115.76 24.9131 114.993C24.1478 114.226 23.7181 113.187 23.7181 112.103V96.1529C23.7181 95.8581 23.6598 95.5662 23.5467 95.2939C23.4336 95.0217 23.2679 94.7744 23.059 94.5664C22.8501 94.3583 22.6022 94.1936 22.3294 94.0816C22.0567 93.9696 21.7645 93.9126 21.4697 93.9138C21.2253 93.9138 20.991 93.8167 20.8182 93.6439C20.6454 93.4711 20.5483 93.2368 20.5483 92.9924C20.5483 92.748 20.6454 92.5136 20.8182 92.3408C20.991 92.168 21.2253 92.0709 21.4697 92.0709C22.5532 92.0709 23.5924 92.5007 24.3594 93.266C25.1264 94.0312 25.5585 95.0695 25.561 96.1529V112.103C25.5597 112.398 25.6168 112.69 25.7287 112.963C25.8407 113.236 26.0055 113.484 26.2135 113.692C26.4216 113.901 26.6688 114.067 26.9411 114.18C27.2133 114.293 27.5052 114.352 27.8001 114.352C28.0444 114.352 28.2788 114.449 28.4516 114.621C28.6244 114.794 28.7215 115.029 28.7215 115.273C28.7215 115.517 28.6244 115.752 28.4516 115.925C28.2788 116.097 28.0444 116.194 27.8001 116.194Z" fill="#0363A6"/>
<path id="Vector_12" d="M27.8 116.194C27.5557 116.194 27.3213 116.097 27.1485 115.925C26.9757 115.752 26.8786 115.517 26.8786 115.273C26.8786 115.029 26.9757 114.794 27.1485 114.621C27.3213 114.449 27.5557 114.352 27.8 114.352C28.3963 114.352 28.9682 114.115 29.3899 113.693C29.8115 113.271 30.0484 112.7 30.0484 112.103V82.1654C30.0484 81.921 30.1455 81.6866 30.3183 81.5138C30.4911 81.341 30.7254 81.244 30.9698 81.244C31.2142 81.244 31.4486 81.341 31.6214 81.5138C31.7942 81.6866 31.8913 81.921 31.8913 82.1654V112.186C31.8696 113.257 31.429 114.276 30.6641 115.026C29.8991 115.775 28.8709 116.195 27.8 116.194Z" fill="#0363A6"/>
<path id="Vector_13" d="M15.1393 105.718C14.0701 105.715 13.0442 105.295 12.2813 104.546C11.5183 103.796 11.079 102.778 11.0573 101.709V77.2817C11.0575 77.1356 11.0282 76.9909 10.9712 76.8563C10.9142 76.7218 10.8307 76.6001 10.7256 76.4985L1.19785 66.9247C0.817891 66.5447 0.516497 66.0936 0.310864 65.5972C0.105232 65.1008 -0.000610352 64.5687 -0.000610352 64.0313C-0.000610352 63.494 0.105232 62.9619 0.310864 62.4655C0.516497 61.969 0.817891 61.5179 1.19785 61.138C1.57781 60.758 2.02889 60.4566 2.52533 60.251C3.02177 60.0454 3.55385 59.9395 4.09119 59.9395C4.62854 59.9395 5.16062 60.0454 5.65706 60.251C6.1535 60.4566 6.60457 60.758 6.98453 61.138L16.0884 70.2419C16.1748 70.3275 16.2433 70.4294 16.2901 70.5417C16.3369 70.654 16.361 70.7745 16.361 70.8961C16.361 71.0177 16.3369 71.1382 16.2901 71.2505C16.2433 71.3628 16.1748 71.4647 16.0884 71.5503C15.9158 71.7219 15.6822 71.8183 15.4388 71.8183C15.1954 71.8183 14.9618 71.7219 14.7892 71.5503L5.67608 62.4464C5.46795 62.2383 5.22087 62.0732 4.94893 61.9606C4.677 61.8479 4.38553 61.79 4.09119 61.79C3.79685 61.79 3.5054 61.8479 3.23347 61.9606C2.96153 62.0732 2.71443 62.2383 2.5063 62.4464C2.29817 62.6546 2.13308 62.9017 2.02044 63.1736C1.9078 63.4455 1.84982 63.737 1.84982 64.0313C1.84982 64.3257 1.9078 64.6171 2.02044 64.8891C2.13308 65.161 2.29817 65.4081 2.5063 65.6162L12.0341 75.1901C12.31 75.4638 12.5286 75.7898 12.6773 76.1489C12.826 76.508 12.9018 76.8931 12.9002 77.2817V101.589C12.8806 101.896 12.924 102.204 13.0279 102.493C13.1317 102.782 13.2938 103.047 13.5041 103.271C13.7143 103.496 13.9684 103.674 14.2504 103.797C14.5325 103.919 14.8366 103.982 15.144 103.982C15.4513 103.982 15.7554 103.919 16.0375 103.797C16.3195 103.674 16.5736 103.496 16.7838 103.271C16.9941 103.047 17.1562 102.782 17.26 102.493C17.3639 102.204 17.4073 101.896 17.3877 101.589V96.153C17.3901 95.0711 17.821 94.0342 18.586 93.2692C19.351 92.5042 20.3878 92.0734 21.4697 92.0709C21.7141 92.0709 21.9484 92.168 22.1212 92.3408C22.294 92.5136 22.3911 92.748 22.3911 92.9924C22.3911 93.2368 22.294 93.4712 22.1212 93.644C21.9484 93.8168 21.7141 93.9138 21.4697 93.9138C20.8758 93.9138 20.3063 94.1497 19.8864 94.5697C19.4665 94.9896 19.2306 95.5591 19.2306 96.153V101.589C19.2354 102.13 19.1332 102.666 18.9298 103.166C18.7264 103.667 18.4258 104.122 18.0454 104.506C17.665 104.89 17.2123 105.195 16.7135 105.403C16.2148 105.611 15.6797 105.718 15.1393 105.718Z" fill="#0363A6"/>
<path id="Vector_14" d="M52.0801 54.9551C49.3716 54.9551 46.7239 54.1518 44.4719 52.6468C42.22 51.1418 40.465 49.0028 39.4289 46.5002C38.3928 43.9977 38.1221 41.244 38.6512 38.5877C39.1803 35.9313 40.4853 33.4915 42.4012 31.5769C44.3171 29.6623 46.7578 28.359 49.4145 27.8317C52.0712 27.3044 54.8246 27.5768 57.3265 28.6146C59.8284 29.6524 61.9662 31.4089 63.4697 33.6618C64.9732 35.9148 65.7747 38.563 65.7729 41.2716C65.7704 44.9015 64.3267 48.3819 61.7591 50.9478C59.1915 53.5137 55.7101 54.9551 52.0801 54.9551ZM52.0801 29.4218C49.7365 29.4218 47.4454 30.1168 45.4967 31.4188C43.5481 32.7209 42.0292 34.5716 41.1324 36.7369C40.2355 38.9021 40.0008 41.2847 40.458 43.5834C40.9153 45.882 42.0438 47.9934 43.7011 49.6507C45.3583 51.3079 47.4697 52.4365 49.7684 52.8937C52.067 53.3509 54.4496 53.1163 56.6149 52.2194C58.7801 51.3225 60.6308 49.8037 61.9329 47.855C63.235 45.9063 63.93 43.6153 63.93 41.2716C63.9275 38.1296 62.6783 35.1169 60.4565 32.8952C58.2348 30.6735 55.2222 29.4242 52.0801 29.4218Z" fill="#0363A6"/>
<path id="Vector_15" d="M43.2988 120.018C41.9117 120.016 40.5806 119.471 39.5903 118.5C38.6 117.529 38.0294 116.208 38.0005 114.821V59.7835C38.0001 59.2753 37.7979 58.7881 37.4384 58.4289L24.2341 45.1785C23.2426 44.1822 22.686 42.8338 22.686 41.4282C22.686 40.0227 23.2426 38.6743 24.2341 37.6779C24.7262 37.1848 25.3108 36.7936 25.9543 36.5266C26.5978 36.2597 27.2877 36.1223 27.9844 36.1223C28.6811 36.1223 29.3709 36.2597 30.0144 36.5266C30.658 36.7936 31.2425 37.1848 31.7346 37.6779L44.3493 50.2833C44.5002 50.4596 44.5791 50.6863 44.5701 50.9183C44.5612 51.1502 44.4651 51.3702 44.3009 51.5343C44.1368 51.6984 43.9168 51.7945 43.6849 51.8035C43.453 51.8124 43.2263 51.7335 43.05 51.5826L30.4354 38.9772C29.7769 38.3469 28.9005 37.9952 27.989 37.9952C27.0774 37.9952 26.2011 38.3469 25.5425 38.9772C25.2205 39.299 24.965 39.681 24.7906 40.1016C24.6163 40.5222 24.5266 40.973 24.5266 41.4282C24.5266 41.8835 24.6163 42.3343 24.7906 42.7549C24.965 43.1754 25.2205 43.5575 25.5425 43.8793L38.7469 57.1297C39.4491 57.8344 39.8434 58.7886 39.8434 59.7835V114.702C39.8892 115.588 40.2737 116.424 40.9175 117.035C41.5614 117.647 42.4155 117.988 43.3034 117.988C44.1914 117.988 45.0454 117.647 45.6893 117.035C46.3332 116.424 46.7177 115.588 46.7634 114.702V91.8959C46.7683 90.4906 47.3294 89.1444 48.3239 88.1515C49.3185 87.1587 50.6657 86.6 52.071 86.5975C52.3154 86.5975 52.5497 86.6946 52.7225 86.8674C52.8954 87.0402 52.9924 87.2746 52.9924 87.519C52.9924 87.7634 52.8954 87.9977 52.7225 88.1706C52.5497 88.3434 52.3154 88.4404 52.071 88.4404C51.1537 88.4404 50.2738 88.8042 49.6244 89.452C48.9749 90.0997 48.6088 90.9786 48.6063 91.8959V114.702C48.6075 115.399 48.4712 116.091 48.205 116.736C47.9388 117.381 47.548 117.967 47.0551 118.461C46.5621 118.954 45.9766 119.346 45.332 119.614C44.6875 119.881 43.9966 120.018 43.2988 120.018Z" fill="#0363A6"/>
<path id="Vector_16" d="M60.8523 120.018C59.4479 120.016 58.1016 119.457 57.1085 118.464C56.1154 117.471 55.5564 116.125 55.554 114.72V91.8959C55.5516 90.9786 55.1855 90.0997 54.536 89.452C53.8865 88.8042 53.0066 88.4405 52.0894 88.4405C51.845 88.4405 51.6106 88.3434 51.4378 88.1706C51.265 87.9978 51.1679 87.7634 51.1679 87.519C51.1679 87.2746 51.265 87.0403 51.4378 86.8675C51.6106 86.6947 51.845 86.5976 52.0894 86.5976C53.4954 86.5976 54.844 87.1555 55.8391 88.1489C56.8342 89.1422 57.3945 90.4898 57.3969 91.8959V114.702C57.4427 115.588 57.8272 116.424 58.471 117.035C59.1149 117.647 59.969 117.988 60.8569 117.988C61.7449 117.988 62.599 117.647 63.2428 117.035C63.8867 116.424 64.2712 115.588 64.317 114.702V59.7743C64.3141 59.2826 64.4096 58.7954 64.598 58.3412C64.7863 57.887 65.0636 57.4751 65.4135 57.1297L78.6086 43.8793C78.9307 43.5575 79.1862 43.1755 79.3605 42.7549C79.5348 42.3343 79.6245 41.8835 79.6245 41.4283C79.6245 40.973 79.5348 40.5222 79.3605 40.1016C79.1862 39.6811 78.9307 39.299 78.6086 38.9772C77.9501 38.347 77.0737 37.9952 76.1622 37.9952C75.2506 37.9952 74.3743 38.347 73.7157 38.9772L61.1011 51.5826C61.0155 51.669 60.9135 51.7375 60.8013 51.7843C60.689 51.8311 60.5685 51.8552 60.4469 51.8552C60.3252 51.8552 60.2048 51.8311 60.0925 51.7843C59.9802 51.7375 59.8783 51.669 59.7927 51.5826C59.621 51.41 59.5247 51.1764 59.5247 50.933C59.5247 50.6895 59.621 50.456 59.7927 50.2834L72.4073 37.678C73.4068 36.706 74.7487 36.1664 76.1429 36.1757C77.5371 36.185 78.8716 36.7425 79.8581 37.7278C80.8445 38.7131 81.4037 40.0469 81.4148 41.4411C81.4258 42.8353 80.8878 44.1778 79.917 45.1785L66.7219 58.4382C66.5428 58.6113 66.4006 58.819 66.304 59.0486C66.2074 59.2783 66.1584 59.5251 66.1599 59.7743V114.803C66.1357 116.195 65.5659 117.521 64.5731 118.497C63.5804 119.472 62.2441 120.019 60.8523 120.018Z" fill="#0363A6"/>
</g>
<defs>
<clipPath id="clip0_2625_2400">
<rect width="104.16" height="120" fill="white"/>
</clipPath>
</defs>
</svg>
